G04 #@! TF.GenerationSoftware,KiCad,Pcbnew,(5.1.4)-1*
G04 #@! TF.CreationDate,2020-01-14T12:24:16+00:00*
G04 #@! TF.ProjectId,GFuzz,4746757a-7a2e-46b6-9963-61645f706362,rev?*
G04 #@! TF.SameCoordinates,Original*
G04 #@! TF.FileFunction,Legend,Top*
G04 #@! TF.FilePolarity,Positive*
%FSLAX46Y46*%
G04 Gerber Fmt 4.6, Leading zero omitted, Abs format (unit mm)*
G04 Created by KiCad (PCBNEW (5.1.4)-1) date 2020-01-14 12:24:16*
%MOMM*%
%LPD*%
G04 APERTURE LIST*
%ADD10C,0.150000*%
%ADD11C,0.120000*%
G04 APERTURE END LIST*
D10*
X177799761Y-90209619D02*
X177704523Y-90209619D01*
X177609285Y-90162000D01*
X177561666Y-90114380D01*
X177514047Y-90019142D01*
X177466428Y-89828666D01*
X177466428Y-89590571D01*
X177514047Y-89400095D01*
X177561666Y-89304857D01*
X177609285Y-89257238D01*
X177704523Y-89209619D01*
X177799761Y-89209619D01*
X177895000Y-89257238D01*
X177942619Y-89304857D01*
X177990238Y-89400095D01*
X178037857Y-89590571D01*
X178037857Y-89828666D01*
X177990238Y-90019142D01*
X177942619Y-90114380D01*
X177895000Y-90162000D01*
X177799761Y-90209619D01*
X177180714Y-90209619D02*
X176847380Y-89209619D01*
X176514047Y-90209619D01*
X175466428Y-90257238D02*
X176323571Y-88971523D01*
X175085476Y-89209619D02*
X174895000Y-89209619D01*
X174799761Y-89257238D01*
X174752142Y-89304857D01*
X174656904Y-89447714D01*
X174609285Y-89638190D01*
X174609285Y-90019142D01*
X174656904Y-90114380D01*
X174704523Y-90162000D01*
X174799761Y-90209619D01*
X174990238Y-90209619D01*
X175085476Y-90162000D01*
X175133095Y-90114380D01*
X175180714Y-90019142D01*
X175180714Y-89781047D01*
X175133095Y-89685809D01*
X175085476Y-89638190D01*
X174990238Y-89590571D01*
X174799761Y-89590571D01*
X174704523Y-89638190D01*
X174656904Y-89685809D01*
X174609285Y-89781047D01*
X174323571Y-90209619D02*
X173990238Y-89209619D01*
X173656904Y-90209619D01*
X164480809Y-85145619D02*
X164480809Y-86145619D01*
X164004619Y-85145619D02*
X164004619Y-86145619D01*
X163433190Y-85145619D01*
X163433190Y-86145619D01*
X146494333Y-89098428D02*
X146827666Y-89098428D01*
X146827666Y-88574619D02*
X146827666Y-89574619D01*
X146351476Y-89574619D01*
X145970523Y-89574619D02*
X145970523Y-88765095D01*
X145922904Y-88669857D01*
X145875285Y-88622238D01*
X145780047Y-88574619D01*
X145589571Y-88574619D01*
X145494333Y-88622238D01*
X145446714Y-88669857D01*
X145399095Y-88765095D01*
X145399095Y-89574619D01*
X145018142Y-89574619D02*
X144351476Y-89574619D01*
X145018142Y-88574619D01*
X144351476Y-88574619D01*
X144065761Y-89574619D02*
X143399095Y-89574619D01*
X144065761Y-88574619D01*
X143399095Y-88574619D01*
X132270190Y-88495238D02*
X132127333Y-88447619D01*
X131889238Y-88447619D01*
X131794000Y-88495238D01*
X131746380Y-88542857D01*
X131698761Y-88638095D01*
X131698761Y-88733333D01*
X131746380Y-88828571D01*
X131794000Y-88876190D01*
X131889238Y-88923809D01*
X132079714Y-88971428D01*
X132174952Y-89019047D01*
X132222571Y-89066666D01*
X132270190Y-89161904D01*
X132270190Y-89257142D01*
X132222571Y-89352380D01*
X132174952Y-89400000D01*
X132079714Y-89447619D01*
X131841619Y-89447619D01*
X131698761Y-89400000D01*
X131270190Y-88971428D02*
X130936857Y-88971428D01*
X130794000Y-88447619D02*
X131270190Y-88447619D01*
X131270190Y-89447619D01*
X130794000Y-89447619D01*
X129889238Y-88447619D02*
X130365428Y-88447619D01*
X130365428Y-89447619D01*
X129555904Y-88971428D02*
X129222571Y-88971428D01*
X129079714Y-88447619D02*
X129555904Y-88447619D01*
X129555904Y-89447619D01*
X129079714Y-89447619D01*
X128079714Y-88542857D02*
X128127333Y-88495238D01*
X128270190Y-88447619D01*
X128365428Y-88447619D01*
X128508285Y-88495238D01*
X128603523Y-88590476D01*
X128651142Y-88685714D01*
X128698761Y-88876190D01*
X128698761Y-89019047D01*
X128651142Y-89209523D01*
X128603523Y-89304761D01*
X128508285Y-89400000D01*
X128365428Y-89447619D01*
X128270190Y-89447619D01*
X128127333Y-89400000D01*
X128079714Y-89352380D01*
X127794000Y-89447619D02*
X127222571Y-89447619D01*
X127508285Y-88447619D02*
X127508285Y-89447619D01*
X111497904Y-89447619D02*
X111164571Y-88447619D01*
X110831238Y-89447619D01*
X110307428Y-89447619D02*
X110116952Y-89447619D01*
X110021714Y-89400000D01*
X109926476Y-89304761D01*
X109878857Y-89114285D01*
X109878857Y-88780952D01*
X109926476Y-88590476D01*
X110021714Y-88495238D01*
X110116952Y-88447619D01*
X110307428Y-88447619D01*
X110402666Y-88495238D01*
X110497904Y-88590476D01*
X110545523Y-88780952D01*
X110545523Y-89114285D01*
X110497904Y-89304761D01*
X110402666Y-89400000D01*
X110307428Y-89447619D01*
X108974095Y-88447619D02*
X109450285Y-88447619D01*
X109450285Y-89447619D01*
X100956809Y-89447619D02*
X100766333Y-89447619D01*
X100671095Y-89400000D01*
X100575857Y-89304761D01*
X100528238Y-89114285D01*
X100528238Y-88780952D01*
X100575857Y-88590476D01*
X100671095Y-88495238D01*
X100766333Y-88447619D01*
X100956809Y-88447619D01*
X101052047Y-88495238D01*
X101147285Y-88590476D01*
X101194904Y-88780952D01*
X101194904Y-89114285D01*
X101147285Y-89304761D01*
X101052047Y-89400000D01*
X100956809Y-89447619D01*
X100099666Y-89447619D02*
X100099666Y-88638095D01*
X100052047Y-88542857D01*
X100004428Y-88495238D01*
X99909190Y-88447619D01*
X99718714Y-88447619D01*
X99623476Y-88495238D01*
X99575857Y-88542857D01*
X99528238Y-88638095D01*
X99528238Y-89447619D01*
X99194904Y-89447619D02*
X98623476Y-89447619D01*
X98909190Y-88447619D02*
X98909190Y-89447619D01*
X97575857Y-89495238D02*
X98433000Y-88209523D01*
X96718714Y-89400000D02*
X96813952Y-89447619D01*
X96956809Y-89447619D01*
X97099666Y-89400000D01*
X97194904Y-89304761D01*
X97242523Y-89209523D01*
X97290142Y-89019047D01*
X97290142Y-88876190D01*
X97242523Y-88685714D01*
X97194904Y-88590476D01*
X97099666Y-88495238D01*
X96956809Y-88447619D01*
X96861571Y-88447619D01*
X96718714Y-88495238D01*
X96671095Y-88542857D01*
X96671095Y-88876190D01*
X96861571Y-88876190D01*
D11*
X180035000Y-84639000D02*
X177535000Y-84639000D01*
X180035000Y-87139000D02*
X180035000Y-84639000D01*
X173015000Y-86439000D02*
X173015000Y-84939000D01*
X172015000Y-86439000D02*
X173015000Y-86439000D01*
X178735000Y-86439000D02*
X178735000Y-84939000D01*
X179735000Y-86439000D02*
X178735000Y-86439000D01*
X172515000Y-87249000D02*
X172015000Y-87249000D01*
X172515000Y-88459000D02*
X172515000Y-87249000D01*
X179235000Y-88459000D02*
X172515000Y-88459000D01*
X179235000Y-87249000D02*
X179235000Y-88459000D01*
X179735000Y-87249000D02*
X179235000Y-87249000D01*
X172015000Y-88959000D02*
X179735000Y-88959000D01*
X172015000Y-84939000D02*
X172015000Y-88959000D01*
X179735000Y-84939000D02*
X172015000Y-84939000D01*
X179735000Y-88959000D02*
X179735000Y-84939000D01*
X166057456Y-111792150D02*
G75*
G03X165067719Y-110802331I1582544J2572150D01*
G01*
X165145501Y-112704448D02*
X166057669Y-111792281D01*
X164155552Y-111714499D02*
X165145501Y-112704448D01*
X165067719Y-110802331D02*
X164155552Y-111714499D01*
X121860000Y-87690000D02*
X121860000Y-86360000D01*
X123190000Y-87690000D02*
X121860000Y-87690000D01*
X124460000Y-87690000D02*
X124460000Y-85030000D01*
X124460000Y-85030000D02*
X137220000Y-85030000D01*
X124460000Y-87690000D02*
X137220000Y-87690000D01*
X137220000Y-87690000D02*
X137220000Y-85030000D01*
X127600000Y-108385000D02*
X127600000Y-111325000D01*
X127840000Y-108385000D02*
X127840000Y-111325000D01*
X127720000Y-108385000D02*
X127720000Y-111325000D01*
X133480000Y-109855000D02*
X132260000Y-109855000D01*
X125600000Y-109855000D02*
X126820000Y-109855000D01*
X132260000Y-108385000D02*
X126820000Y-108385000D01*
X132260000Y-111325000D02*
X132260000Y-108385000D01*
X126820000Y-111325000D02*
X132260000Y-111325000D01*
X126820000Y-108385000D02*
X126820000Y-111325000D01*
X153670000Y-115165000D02*
X153670000Y-114395000D01*
X153670000Y-107085000D02*
X153670000Y-107855000D01*
X155040000Y-114395000D02*
X155040000Y-107855000D01*
X152300000Y-114395000D02*
X155040000Y-114395000D01*
X152300000Y-107855000D02*
X152300000Y-114395000D01*
X155040000Y-107855000D02*
X152300000Y-107855000D01*
X110145000Y-117535000D02*
X111395000Y-117535000D01*
X110145000Y-107255000D02*
X110145000Y-117535000D01*
X114645000Y-107255000D02*
X110145000Y-107255000D01*
X114645000Y-117535000D02*
X114645000Y-107255000D01*
X113395000Y-117535000D02*
X114645000Y-117535000D01*
X111395000Y-117535000D02*
G75*
G02X113395000Y-117535000I1000000J0D01*
G01*
X153900000Y-95250000D02*
X153130000Y-95250000D01*
X145820000Y-95250000D02*
X146590000Y-95250000D01*
X153130000Y-93880000D02*
X146590000Y-93880000D01*
X153130000Y-96620000D02*
X153130000Y-93880000D01*
X146590000Y-96620000D02*
X153130000Y-96620000D01*
X146590000Y-93880000D02*
X146590000Y-96620000D01*
X172147789Y-95875000D02*
X172147789Y-96625000D01*
X171772789Y-96250000D02*
X172522789Y-96250000D01*
X179756000Y-97984000D02*
X179756000Y-98866000D01*
X179716000Y-97732000D02*
X179716000Y-99118000D01*
X179676000Y-97548000D02*
X179676000Y-99302000D01*
X179636000Y-97397000D02*
X179636000Y-99453000D01*
X179596000Y-97267000D02*
X179596000Y-99583000D01*
X179556000Y-97150000D02*
X179556000Y-99700000D01*
X179516000Y-97044000D02*
X179516000Y-99806000D01*
X179476000Y-96947000D02*
X179476000Y-99903000D01*
X179436000Y-96856000D02*
X179436000Y-99994000D01*
X179396000Y-96771000D02*
X179396000Y-100079000D01*
X179356000Y-96692000D02*
X179356000Y-100158000D01*
X179316000Y-96616000D02*
X179316000Y-100234000D01*
X179276000Y-96544000D02*
X179276000Y-100306000D01*
X179236000Y-96476000D02*
X179236000Y-100374000D01*
X179196000Y-96411000D02*
X179196000Y-100439000D01*
X179156000Y-96348000D02*
X179156000Y-100502000D01*
X179116000Y-96288000D02*
X179116000Y-100562000D01*
X179076000Y-96230000D02*
X179076000Y-100620000D01*
X179036000Y-96175000D02*
X179036000Y-100675000D01*
X178996000Y-96121000D02*
X178996000Y-100729000D01*
X178956000Y-96070000D02*
X178956000Y-100780000D01*
X178916000Y-96020000D02*
X178916000Y-100830000D01*
X178876000Y-95971000D02*
X178876000Y-100879000D01*
X178836000Y-95925000D02*
X178836000Y-100925000D01*
X178796000Y-95879000D02*
X178796000Y-100971000D01*
X178756000Y-95836000D02*
X178756000Y-101014000D01*
X178716000Y-95793000D02*
X178716000Y-101057000D01*
X178676000Y-95752000D02*
X178676000Y-101098000D01*
X178636000Y-95712000D02*
X178636000Y-101138000D01*
X178596000Y-95673000D02*
X178596000Y-101177000D01*
X178556000Y-95635000D02*
X178556000Y-101215000D01*
X178516000Y-95598000D02*
X178516000Y-101252000D01*
X178476000Y-95562000D02*
X178476000Y-101288000D01*
X178436000Y-95527000D02*
X178436000Y-101323000D01*
X178396000Y-95494000D02*
X178396000Y-101356000D01*
X178356000Y-95461000D02*
X178356000Y-101389000D01*
X178316000Y-95429000D02*
X178316000Y-101421000D01*
X178276000Y-95397000D02*
X178276000Y-101453000D01*
X178236000Y-95367000D02*
X178236000Y-101483000D01*
X178196000Y-99465000D02*
X178196000Y-101513000D01*
X178196000Y-95337000D02*
X178196000Y-97385000D01*
X178156000Y-99465000D02*
X178156000Y-101541000D01*
X178156000Y-95309000D02*
X178156000Y-97385000D01*
X178116000Y-99465000D02*
X178116000Y-101569000D01*
X178116000Y-95281000D02*
X178116000Y-97385000D01*
X178076000Y-99465000D02*
X178076000Y-101597000D01*
X178076000Y-95253000D02*
X178076000Y-97385000D01*
X178036000Y-99465000D02*
X178036000Y-101623000D01*
X178036000Y-95227000D02*
X178036000Y-97385000D01*
X177996000Y-99465000D02*
X177996000Y-101649000D01*
X177996000Y-95201000D02*
X177996000Y-97385000D01*
X177956000Y-99465000D02*
X177956000Y-101674000D01*
X177956000Y-95176000D02*
X177956000Y-97385000D01*
X177916000Y-99465000D02*
X177916000Y-101699000D01*
X177916000Y-95151000D02*
X177916000Y-97385000D01*
X177876000Y-99465000D02*
X177876000Y-101722000D01*
X177876000Y-95128000D02*
X177876000Y-97385000D01*
X177836000Y-99465000D02*
X177836000Y-101746000D01*
X177836000Y-95104000D02*
X177836000Y-97385000D01*
X177796000Y-99465000D02*
X177796000Y-101768000D01*
X177796000Y-95082000D02*
X177796000Y-97385000D01*
X177756000Y-99465000D02*
X177756000Y-101790000D01*
X177756000Y-95060000D02*
X177756000Y-97385000D01*
X177716000Y-99465000D02*
X177716000Y-101811000D01*
X177716000Y-95039000D02*
X177716000Y-97385000D01*
X177676000Y-99465000D02*
X177676000Y-101832000D01*
X177676000Y-95018000D02*
X177676000Y-97385000D01*
X177636000Y-99465000D02*
X177636000Y-101852000D01*
X177636000Y-94998000D02*
X177636000Y-97385000D01*
X177596000Y-99465000D02*
X177596000Y-101872000D01*
X177596000Y-94978000D02*
X177596000Y-97385000D01*
X177556000Y-99465000D02*
X177556000Y-101891000D01*
X177556000Y-94959000D02*
X177556000Y-97385000D01*
X177516000Y-99465000D02*
X177516000Y-101909000D01*
X177516000Y-94941000D02*
X177516000Y-97385000D01*
X177476000Y-99465000D02*
X177476000Y-101927000D01*
X177476000Y-94923000D02*
X177476000Y-97385000D01*
X177436000Y-99465000D02*
X177436000Y-101945000D01*
X177436000Y-94905000D02*
X177436000Y-97385000D01*
X177396000Y-99465000D02*
X177396000Y-101961000D01*
X177396000Y-94889000D02*
X177396000Y-97385000D01*
X177356000Y-99465000D02*
X177356000Y-101978000D01*
X177356000Y-94872000D02*
X177356000Y-97385000D01*
X177316000Y-99465000D02*
X177316000Y-101993000D01*
X177316000Y-94857000D02*
X177316000Y-97385000D01*
X177276000Y-99465000D02*
X177276000Y-102009000D01*
X177276000Y-94841000D02*
X177276000Y-97385000D01*
X177236000Y-99465000D02*
X177236000Y-102023000D01*
X177236000Y-94827000D02*
X177236000Y-97385000D01*
X177196000Y-99465000D02*
X177196000Y-102038000D01*
X177196000Y-94812000D02*
X177196000Y-97385000D01*
X177156000Y-99465000D02*
X177156000Y-102051000D01*
X177156000Y-94799000D02*
X177156000Y-97385000D01*
X177116000Y-99465000D02*
X177116000Y-102065000D01*
X177116000Y-94785000D02*
X177116000Y-97385000D01*
X177076000Y-99465000D02*
X177076000Y-102078000D01*
X177076000Y-94772000D02*
X177076000Y-97385000D01*
X177036000Y-99465000D02*
X177036000Y-102090000D01*
X177036000Y-94760000D02*
X177036000Y-97385000D01*
X176996000Y-99465000D02*
X176996000Y-102102000D01*
X176996000Y-94748000D02*
X176996000Y-97385000D01*
X176956000Y-99465000D02*
X176956000Y-102113000D01*
X176956000Y-94737000D02*
X176956000Y-97385000D01*
X176916000Y-99465000D02*
X176916000Y-102124000D01*
X176916000Y-94726000D02*
X176916000Y-97385000D01*
X176876000Y-99465000D02*
X176876000Y-102135000D01*
X176876000Y-94715000D02*
X176876000Y-97385000D01*
X176836000Y-99465000D02*
X176836000Y-102145000D01*
X176836000Y-94705000D02*
X176836000Y-97385000D01*
X176796000Y-99465000D02*
X176796000Y-102154000D01*
X176796000Y-94696000D02*
X176796000Y-97385000D01*
X176756000Y-99465000D02*
X176756000Y-102163000D01*
X176756000Y-94687000D02*
X176756000Y-97385000D01*
X176716000Y-99465000D02*
X176716000Y-102172000D01*
X176716000Y-94678000D02*
X176716000Y-97385000D01*
X176676000Y-99465000D02*
X176676000Y-102180000D01*
X176676000Y-94670000D02*
X176676000Y-97385000D01*
X176636000Y-99465000D02*
X176636000Y-102188000D01*
X176636000Y-94662000D02*
X176636000Y-97385000D01*
X176595000Y-99465000D02*
X176595000Y-102195000D01*
X176595000Y-94655000D02*
X176595000Y-97385000D01*
X176555000Y-99465000D02*
X176555000Y-102202000D01*
X176555000Y-94648000D02*
X176555000Y-97385000D01*
X176515000Y-99465000D02*
X176515000Y-102209000D01*
X176515000Y-94641000D02*
X176515000Y-97385000D01*
X176475000Y-99465000D02*
X176475000Y-102215000D01*
X176475000Y-94635000D02*
X176475000Y-97385000D01*
X176435000Y-99465000D02*
X176435000Y-102220000D01*
X176435000Y-94630000D02*
X176435000Y-97385000D01*
X176395000Y-99465000D02*
X176395000Y-102226000D01*
X176395000Y-94624000D02*
X176395000Y-97385000D01*
X176355000Y-99465000D02*
X176355000Y-102230000D01*
X176355000Y-94620000D02*
X176355000Y-97385000D01*
X176315000Y-99465000D02*
X176315000Y-102235000D01*
X176315000Y-94615000D02*
X176315000Y-97385000D01*
X176275000Y-99465000D02*
X176275000Y-102239000D01*
X176275000Y-94611000D02*
X176275000Y-97385000D01*
X176235000Y-99465000D02*
X176235000Y-102242000D01*
X176235000Y-94608000D02*
X176235000Y-97385000D01*
X176195000Y-99465000D02*
X176195000Y-102245000D01*
X176195000Y-94605000D02*
X176195000Y-97385000D01*
X176155000Y-99465000D02*
X176155000Y-102248000D01*
X176155000Y-94602000D02*
X176155000Y-97385000D01*
X176115000Y-94600000D02*
X176115000Y-102250000D01*
X176075000Y-94598000D02*
X176075000Y-102252000D01*
X176035000Y-94596000D02*
X176035000Y-102254000D01*
X175995000Y-94595000D02*
X175995000Y-102255000D01*
X175955000Y-94595000D02*
X175955000Y-102255000D01*
X175915000Y-94595000D02*
X175915000Y-102255000D01*
X179785000Y-98425000D02*
G75*
G03X179785000Y-98425000I-3870000J0D01*
G01*
X114360000Y-85030000D02*
X114360000Y-86360000D01*
X113030000Y-85030000D02*
X114360000Y-85030000D01*
X111760000Y-85030000D02*
X111760000Y-87690000D01*
X111760000Y-87690000D02*
X106620000Y-87690000D01*
X111760000Y-85030000D02*
X106620000Y-85030000D01*
X106620000Y-85030000D02*
X106620000Y-87690000D01*
X136400000Y-96715000D02*
X142740000Y-96715000D01*
X136400000Y-106485000D02*
X142740000Y-106485000D01*
X142740000Y-106485000D02*
X142740000Y-96715000D01*
X136400000Y-106485000D02*
X136400000Y-96715000D01*
X140910000Y-87690000D02*
X140910000Y-86360000D01*
X142240000Y-87690000D02*
X140910000Y-87690000D01*
X143510000Y-87690000D02*
X143510000Y-85030000D01*
X143510000Y-85030000D02*
X148650000Y-85030000D01*
X143510000Y-87690000D02*
X148650000Y-87690000D01*
X148650000Y-87690000D02*
X148650000Y-85030000D01*
X136400000Y-107510000D02*
X142740000Y-107510000D01*
X136400000Y-117280000D02*
X142740000Y-117280000D01*
X142740000Y-117280000D02*
X142740000Y-107510000D01*
X136400000Y-117280000D02*
X136400000Y-107510000D01*
X99060000Y-112165000D02*
X99060000Y-112935000D01*
X99060000Y-120245000D02*
X99060000Y-119475000D01*
X97690000Y-112935000D02*
X97690000Y-119475000D01*
X100430000Y-112935000D02*
X97690000Y-112935000D01*
X100430000Y-119475000D02*
X100430000Y-112935000D01*
X97690000Y-119475000D02*
X100430000Y-119475000D01*
X103505000Y-118975000D02*
X103505000Y-118205000D01*
X103505000Y-110895000D02*
X103505000Y-111665000D01*
X104875000Y-118205000D02*
X104875000Y-111665000D01*
X102135000Y-118205000D02*
X104875000Y-118205000D01*
X102135000Y-111665000D02*
X102135000Y-118205000D01*
X104875000Y-111665000D02*
X102135000Y-111665000D01*
X150495000Y-107085000D02*
X150495000Y-107855000D01*
X150495000Y-115165000D02*
X150495000Y-114395000D01*
X149125000Y-107855000D02*
X149125000Y-114395000D01*
X151865000Y-107855000D02*
X149125000Y-107855000D01*
X151865000Y-114395000D02*
X151865000Y-107855000D01*
X149125000Y-114395000D02*
X151865000Y-114395000D01*
X116435000Y-120015000D02*
X115665000Y-120015000D01*
X108355000Y-120015000D02*
X109125000Y-120015000D01*
X115665000Y-118645000D02*
X109125000Y-118645000D01*
X115665000Y-121385000D02*
X115665000Y-118645000D01*
X109125000Y-121385000D02*
X115665000Y-121385000D01*
X109125000Y-118645000D02*
X109125000Y-121385000D01*
X156845000Y-115165000D02*
X156845000Y-114395000D01*
X156845000Y-107085000D02*
X156845000Y-107855000D01*
X158215000Y-114395000D02*
X158215000Y-107855000D01*
X155475000Y-114395000D02*
X158215000Y-114395000D01*
X155475000Y-107855000D02*
X155475000Y-114395000D01*
X158215000Y-107855000D02*
X155475000Y-107855000D01*
X160020000Y-115165000D02*
X160020000Y-114395000D01*
X160020000Y-107085000D02*
X160020000Y-107855000D01*
X161390000Y-114395000D02*
X161390000Y-107855000D01*
X158650000Y-114395000D02*
X161390000Y-114395000D01*
X158650000Y-107855000D02*
X158650000Y-114395000D01*
X161390000Y-107855000D02*
X158650000Y-107855000D01*
X168505000Y-92456000D02*
X167735000Y-92456000D01*
X160425000Y-92456000D02*
X161195000Y-92456000D01*
X167735000Y-91086000D02*
X161195000Y-91086000D01*
X167735000Y-93826000D02*
X167735000Y-91086000D01*
X161195000Y-93826000D02*
X167735000Y-93826000D01*
X161195000Y-91086000D02*
X161195000Y-93826000D01*
X99060000Y-99465000D02*
X99060000Y-100235000D01*
X99060000Y-107545000D02*
X99060000Y-106775000D01*
X97690000Y-100235000D02*
X97690000Y-106775000D01*
X100430000Y-100235000D02*
X97690000Y-100235000D01*
X100430000Y-106775000D02*
X100430000Y-100235000D01*
X97690000Y-106775000D02*
X100430000Y-106775000D01*
X120880000Y-94615000D02*
X120110000Y-94615000D01*
X112800000Y-94615000D02*
X113570000Y-94615000D01*
X120110000Y-93245000D02*
X113570000Y-93245000D01*
X120110000Y-95985000D02*
X120110000Y-93245000D01*
X113570000Y-95985000D02*
X120110000Y-95985000D01*
X113570000Y-93245000D02*
X113570000Y-95985000D01*
X120650000Y-115165000D02*
X120650000Y-114395000D01*
X120650000Y-107085000D02*
X120650000Y-107855000D01*
X122020000Y-114395000D02*
X122020000Y-107855000D01*
X119280000Y-114395000D02*
X122020000Y-114395000D01*
X119280000Y-107855000D02*
X119280000Y-114395000D01*
X122020000Y-107855000D02*
X119280000Y-107855000D01*
X120880000Y-91440000D02*
X120110000Y-91440000D01*
X112800000Y-91440000D02*
X113570000Y-91440000D01*
X120110000Y-90070000D02*
X113570000Y-90070000D01*
X120110000Y-92810000D02*
X120110000Y-90070000D01*
X113570000Y-92810000D02*
X120110000Y-92810000D01*
X113570000Y-90070000D02*
X113570000Y-92810000D01*
X133580000Y-106680000D02*
X132810000Y-106680000D01*
X125500000Y-106680000D02*
X126270000Y-106680000D01*
X132810000Y-105310000D02*
X126270000Y-105310000D01*
X132810000Y-108050000D02*
X132810000Y-105310000D01*
X126270000Y-108050000D02*
X132810000Y-108050000D01*
X126270000Y-105310000D02*
X126270000Y-108050000D01*
X133580000Y-103505000D02*
X132810000Y-103505000D01*
X125500000Y-103505000D02*
X126270000Y-103505000D01*
X132810000Y-102135000D02*
X126270000Y-102135000D01*
X132810000Y-104875000D02*
X132810000Y-102135000D01*
X126270000Y-104875000D02*
X132810000Y-104875000D01*
X126270000Y-102135000D02*
X126270000Y-104875000D01*
X125500000Y-97155000D02*
X126270000Y-97155000D01*
X133580000Y-97155000D02*
X132810000Y-97155000D01*
X126270000Y-98525000D02*
X132810000Y-98525000D01*
X126270000Y-95785000D02*
X126270000Y-98525000D01*
X132810000Y-95785000D02*
X126270000Y-95785000D01*
X132810000Y-98525000D02*
X132810000Y-95785000D01*
X133580000Y-100330000D02*
X132810000Y-100330000D01*
X125500000Y-100330000D02*
X126270000Y-100330000D01*
X132810000Y-98960000D02*
X126270000Y-98960000D01*
X132810000Y-101700000D02*
X132810000Y-98960000D01*
X126270000Y-101700000D02*
X132810000Y-101700000D01*
X126270000Y-98960000D02*
X126270000Y-101700000D01*
X153900000Y-92075000D02*
X153130000Y-92075000D01*
X145820000Y-92075000D02*
X146590000Y-92075000D01*
X153130000Y-90705000D02*
X146590000Y-90705000D01*
X153130000Y-93445000D02*
X153130000Y-90705000D01*
X146590000Y-93445000D02*
X153130000Y-93445000D01*
X146590000Y-90705000D02*
X146590000Y-93445000D01*
X166057456Y-119412150D02*
G75*
G03X165067719Y-118422331I1582544J2572150D01*
G01*
X165145501Y-120324448D02*
X166057669Y-119412281D01*
X164155552Y-119334499D02*
X165145501Y-120324448D01*
X165067719Y-118422331D02*
X164155552Y-119334499D01*
X169577150Y-103182544D02*
G75*
G03X168587331Y-104172281I-2572150J1582544D01*
G01*
X170489448Y-104094499D02*
X169577281Y-103182331D01*
X169499499Y-105084448D02*
X170489448Y-104094499D01*
X168587331Y-104172281D02*
X169499499Y-105084448D01*
X101660000Y-85030000D02*
X101660000Y-86360000D01*
X100330000Y-85030000D02*
X101660000Y-85030000D01*
X99060000Y-85030000D02*
X99060000Y-87690000D01*
X99060000Y-87690000D02*
X96460000Y-87690000D01*
X99060000Y-85030000D02*
X96460000Y-85030000D01*
X96460000Y-85030000D02*
X96460000Y-87690000D01*
X166811000Y-87062000D02*
X166811000Y-88392000D01*
X165481000Y-87062000D02*
X166811000Y-87062000D01*
X164211000Y-87062000D02*
X164211000Y-89722000D01*
X164211000Y-89722000D02*
X161611000Y-89722000D01*
X164211000Y-87062000D02*
X161611000Y-87062000D01*
X161611000Y-87062000D02*
X161611000Y-89722000D01*
X127600000Y-111687000D02*
X127600000Y-114627000D01*
X127840000Y-111687000D02*
X127840000Y-114627000D01*
X127720000Y-111687000D02*
X127720000Y-114627000D01*
X133480000Y-113157000D02*
X132260000Y-113157000D01*
X125600000Y-113157000D02*
X126820000Y-113157000D01*
X132260000Y-111687000D02*
X126820000Y-111687000D01*
X132260000Y-114627000D02*
X132260000Y-111687000D01*
X126820000Y-114627000D02*
X132260000Y-114627000D01*
X126820000Y-111687000D02*
X126820000Y-114627000D01*
X127600000Y-114735000D02*
X127600000Y-117675000D01*
X127840000Y-114735000D02*
X127840000Y-117675000D01*
X127720000Y-114735000D02*
X127720000Y-117675000D01*
X133480000Y-116205000D02*
X132260000Y-116205000D01*
X125600000Y-116205000D02*
X126820000Y-116205000D01*
X132260000Y-114735000D02*
X126820000Y-114735000D01*
X132260000Y-117675000D02*
X132260000Y-114735000D01*
X126820000Y-117675000D02*
X132260000Y-117675000D01*
X126820000Y-114735000D02*
X126820000Y-117675000D01*
X131770000Y-92495000D02*
X131770000Y-92510000D01*
X131770000Y-90370000D02*
X131770000Y-90385000D01*
X127230000Y-92495000D02*
X127230000Y-92510000D01*
X127230000Y-90370000D02*
X127230000Y-90385000D01*
X127230000Y-92510000D02*
X131770000Y-92510000D01*
X127230000Y-90370000D02*
X131770000Y-90370000D01*
X97335000Y-95919775D02*
X97835000Y-95919775D01*
X97585000Y-96169775D02*
X97585000Y-95669775D01*
X98776000Y-90764000D02*
X99344000Y-90764000D01*
X98542000Y-90804000D02*
X99578000Y-90804000D01*
X98383000Y-90844000D02*
X99737000Y-90844000D01*
X98255000Y-90884000D02*
X99865000Y-90884000D01*
X98145000Y-90924000D02*
X99975000Y-90924000D01*
X98049000Y-90964000D02*
X100071000Y-90964000D01*
X97962000Y-91004000D02*
X100158000Y-91004000D01*
X97882000Y-91044000D02*
X100238000Y-91044000D01*
X100100000Y-91084000D02*
X100311000Y-91084000D01*
X97809000Y-91084000D02*
X98020000Y-91084000D01*
X100100000Y-91124000D02*
X100379000Y-91124000D01*
X97741000Y-91124000D02*
X98020000Y-91124000D01*
X100100000Y-91164000D02*
X100443000Y-91164000D01*
X97677000Y-91164000D02*
X98020000Y-91164000D01*
X100100000Y-91204000D02*
X100503000Y-91204000D01*
X97617000Y-91204000D02*
X98020000Y-91204000D01*
X100100000Y-91244000D02*
X100560000Y-91244000D01*
X97560000Y-91244000D02*
X98020000Y-91244000D01*
X100100000Y-91284000D02*
X100614000Y-91284000D01*
X97506000Y-91284000D02*
X98020000Y-91284000D01*
X100100000Y-91324000D02*
X100665000Y-91324000D01*
X97455000Y-91324000D02*
X98020000Y-91324000D01*
X100100000Y-91364000D02*
X100713000Y-91364000D01*
X97407000Y-91364000D02*
X98020000Y-91364000D01*
X100100000Y-91404000D02*
X100759000Y-91404000D01*
X97361000Y-91404000D02*
X98020000Y-91404000D01*
X100100000Y-91444000D02*
X100803000Y-91444000D01*
X97317000Y-91444000D02*
X98020000Y-91444000D01*
X100100000Y-91484000D02*
X100845000Y-91484000D01*
X97275000Y-91484000D02*
X98020000Y-91484000D01*
X100100000Y-91524000D02*
X100886000Y-91524000D01*
X97234000Y-91524000D02*
X98020000Y-91524000D01*
X100100000Y-91564000D02*
X100924000Y-91564000D01*
X97196000Y-91564000D02*
X98020000Y-91564000D01*
X100100000Y-91604000D02*
X100961000Y-91604000D01*
X97159000Y-91604000D02*
X98020000Y-91604000D01*
X100100000Y-91644000D02*
X100997000Y-91644000D01*
X97123000Y-91644000D02*
X98020000Y-91644000D01*
X100100000Y-91684000D02*
X101031000Y-91684000D01*
X97089000Y-91684000D02*
X98020000Y-91684000D01*
X100100000Y-91724000D02*
X101064000Y-91724000D01*
X97056000Y-91724000D02*
X98020000Y-91724000D01*
X100100000Y-91764000D02*
X101095000Y-91764000D01*
X97025000Y-91764000D02*
X98020000Y-91764000D01*
X100100000Y-91804000D02*
X101125000Y-91804000D01*
X96995000Y-91804000D02*
X98020000Y-91804000D01*
X100100000Y-91844000D02*
X101155000Y-91844000D01*
X96965000Y-91844000D02*
X98020000Y-91844000D01*
X100100000Y-91884000D02*
X101182000Y-91884000D01*
X96938000Y-91884000D02*
X98020000Y-91884000D01*
X100100000Y-91924000D02*
X101209000Y-91924000D01*
X96911000Y-91924000D02*
X98020000Y-91924000D01*
X100100000Y-91964000D02*
X101235000Y-91964000D01*
X96885000Y-91964000D02*
X98020000Y-91964000D01*
X100100000Y-92004000D02*
X101260000Y-92004000D01*
X96860000Y-92004000D02*
X98020000Y-92004000D01*
X100100000Y-92044000D02*
X101284000Y-92044000D01*
X96836000Y-92044000D02*
X98020000Y-92044000D01*
X100100000Y-92084000D02*
X101307000Y-92084000D01*
X96813000Y-92084000D02*
X98020000Y-92084000D01*
X100100000Y-92124000D02*
X101328000Y-92124000D01*
X96792000Y-92124000D02*
X98020000Y-92124000D01*
X100100000Y-92164000D02*
X101350000Y-92164000D01*
X96770000Y-92164000D02*
X98020000Y-92164000D01*
X100100000Y-92204000D02*
X101370000Y-92204000D01*
X96750000Y-92204000D02*
X98020000Y-92204000D01*
X100100000Y-92244000D02*
X101389000Y-92244000D01*
X96731000Y-92244000D02*
X98020000Y-92244000D01*
X100100000Y-92284000D02*
X101408000Y-92284000D01*
X96712000Y-92284000D02*
X98020000Y-92284000D01*
X100100000Y-92324000D02*
X101425000Y-92324000D01*
X96695000Y-92324000D02*
X98020000Y-92324000D01*
X100100000Y-92364000D02*
X101442000Y-92364000D01*
X96678000Y-92364000D02*
X98020000Y-92364000D01*
X100100000Y-92404000D02*
X101458000Y-92404000D01*
X96662000Y-92404000D02*
X98020000Y-92404000D01*
X100100000Y-92444000D02*
X101474000Y-92444000D01*
X96646000Y-92444000D02*
X98020000Y-92444000D01*
X100100000Y-92484000D02*
X101488000Y-92484000D01*
X96632000Y-92484000D02*
X98020000Y-92484000D01*
X100100000Y-92524000D02*
X101502000Y-92524000D01*
X96618000Y-92524000D02*
X98020000Y-92524000D01*
X100100000Y-92564000D02*
X101515000Y-92564000D01*
X96605000Y-92564000D02*
X98020000Y-92564000D01*
X100100000Y-92604000D02*
X101528000Y-92604000D01*
X96592000Y-92604000D02*
X98020000Y-92604000D01*
X100100000Y-92644000D02*
X101540000Y-92644000D01*
X96580000Y-92644000D02*
X98020000Y-92644000D01*
X100100000Y-92685000D02*
X101551000Y-92685000D01*
X96569000Y-92685000D02*
X98020000Y-92685000D01*
X100100000Y-92725000D02*
X101561000Y-92725000D01*
X96559000Y-92725000D02*
X98020000Y-92725000D01*
X100100000Y-92765000D02*
X101571000Y-92765000D01*
X96549000Y-92765000D02*
X98020000Y-92765000D01*
X100100000Y-92805000D02*
X101580000Y-92805000D01*
X96540000Y-92805000D02*
X98020000Y-92805000D01*
X100100000Y-92845000D02*
X101588000Y-92845000D01*
X96532000Y-92845000D02*
X98020000Y-92845000D01*
X100100000Y-92885000D02*
X101596000Y-92885000D01*
X96524000Y-92885000D02*
X98020000Y-92885000D01*
X100100000Y-92925000D02*
X101603000Y-92925000D01*
X96517000Y-92925000D02*
X98020000Y-92925000D01*
X100100000Y-92965000D02*
X101610000Y-92965000D01*
X96510000Y-92965000D02*
X98020000Y-92965000D01*
X100100000Y-93005000D02*
X101616000Y-93005000D01*
X96504000Y-93005000D02*
X98020000Y-93005000D01*
X100100000Y-93045000D02*
X101621000Y-93045000D01*
X96499000Y-93045000D02*
X98020000Y-93045000D01*
X100100000Y-93085000D02*
X101625000Y-93085000D01*
X96495000Y-93085000D02*
X98020000Y-93085000D01*
X100100000Y-93125000D02*
X101629000Y-93125000D01*
X96491000Y-93125000D02*
X98020000Y-93125000D01*
X96487000Y-93165000D02*
X101633000Y-93165000D01*
X96484000Y-93205000D02*
X101636000Y-93205000D01*
X96482000Y-93245000D02*
X101638000Y-93245000D01*
X96481000Y-93285000D02*
X101639000Y-93285000D01*
X96480000Y-93325000D02*
X101640000Y-93325000D01*
X96480000Y-93365000D02*
X101640000Y-93365000D01*
X101680000Y-93365000D02*
G75*
G03X101680000Y-93365000I-2620000J0D01*
G01*
X106010225Y-99875000D02*
X106010225Y-100375000D01*
X105760225Y-100125000D02*
X106260225Y-100125000D01*
X111166000Y-101316000D02*
X111166000Y-101884000D01*
X111126000Y-101082000D02*
X111126000Y-102118000D01*
X111086000Y-100923000D02*
X111086000Y-102277000D01*
X111046000Y-100795000D02*
X111046000Y-102405000D01*
X111006000Y-100685000D02*
X111006000Y-102515000D01*
X110966000Y-100589000D02*
X110966000Y-102611000D01*
X110926000Y-100502000D02*
X110926000Y-102698000D01*
X110886000Y-100422000D02*
X110886000Y-102778000D01*
X110846000Y-102640000D02*
X110846000Y-102851000D01*
X110846000Y-100349000D02*
X110846000Y-100560000D01*
X110806000Y-102640000D02*
X110806000Y-102919000D01*
X110806000Y-100281000D02*
X110806000Y-100560000D01*
X110766000Y-102640000D02*
X110766000Y-102983000D01*
X110766000Y-100217000D02*
X110766000Y-100560000D01*
X110726000Y-102640000D02*
X110726000Y-103043000D01*
X110726000Y-100157000D02*
X110726000Y-100560000D01*
X110686000Y-102640000D02*
X110686000Y-103100000D01*
X110686000Y-100100000D02*
X110686000Y-100560000D01*
X110646000Y-102640000D02*
X110646000Y-103154000D01*
X110646000Y-100046000D02*
X110646000Y-100560000D01*
X110606000Y-102640000D02*
X110606000Y-103205000D01*
X110606000Y-99995000D02*
X110606000Y-100560000D01*
X110566000Y-102640000D02*
X110566000Y-103253000D01*
X110566000Y-99947000D02*
X110566000Y-100560000D01*
X110526000Y-102640000D02*
X110526000Y-103299000D01*
X110526000Y-99901000D02*
X110526000Y-100560000D01*
X110486000Y-102640000D02*
X110486000Y-103343000D01*
X110486000Y-99857000D02*
X110486000Y-100560000D01*
X110446000Y-102640000D02*
X110446000Y-103385000D01*
X110446000Y-99815000D02*
X110446000Y-100560000D01*
X110406000Y-102640000D02*
X110406000Y-103426000D01*
X110406000Y-99774000D02*
X110406000Y-100560000D01*
X110366000Y-102640000D02*
X110366000Y-103464000D01*
X110366000Y-99736000D02*
X110366000Y-100560000D01*
X110326000Y-102640000D02*
X110326000Y-103501000D01*
X110326000Y-99699000D02*
X110326000Y-100560000D01*
X110286000Y-102640000D02*
X110286000Y-103537000D01*
X110286000Y-99663000D02*
X110286000Y-100560000D01*
X110246000Y-102640000D02*
X110246000Y-103571000D01*
X110246000Y-99629000D02*
X110246000Y-100560000D01*
X110206000Y-102640000D02*
X110206000Y-103604000D01*
X110206000Y-99596000D02*
X110206000Y-100560000D01*
X110166000Y-102640000D02*
X110166000Y-103635000D01*
X110166000Y-99565000D02*
X110166000Y-100560000D01*
X110126000Y-102640000D02*
X110126000Y-103665000D01*
X110126000Y-99535000D02*
X110126000Y-100560000D01*
X110086000Y-102640000D02*
X110086000Y-103695000D01*
X110086000Y-99505000D02*
X110086000Y-100560000D01*
X110046000Y-102640000D02*
X110046000Y-103722000D01*
X110046000Y-99478000D02*
X110046000Y-100560000D01*
X110006000Y-102640000D02*
X110006000Y-103749000D01*
X110006000Y-99451000D02*
X110006000Y-100560000D01*
X109966000Y-102640000D02*
X109966000Y-103775000D01*
X109966000Y-99425000D02*
X109966000Y-100560000D01*
X109926000Y-102640000D02*
X109926000Y-103800000D01*
X109926000Y-99400000D02*
X109926000Y-100560000D01*
X109886000Y-102640000D02*
X109886000Y-103824000D01*
X109886000Y-99376000D02*
X109886000Y-100560000D01*
X109846000Y-102640000D02*
X109846000Y-103847000D01*
X109846000Y-99353000D02*
X109846000Y-100560000D01*
X109806000Y-102640000D02*
X109806000Y-103868000D01*
X109806000Y-99332000D02*
X109806000Y-100560000D01*
X109766000Y-102640000D02*
X109766000Y-103890000D01*
X109766000Y-99310000D02*
X109766000Y-100560000D01*
X109726000Y-102640000D02*
X109726000Y-103910000D01*
X109726000Y-99290000D02*
X109726000Y-100560000D01*
X109686000Y-102640000D02*
X109686000Y-103929000D01*
X109686000Y-99271000D02*
X109686000Y-100560000D01*
X109646000Y-102640000D02*
X109646000Y-103948000D01*
X109646000Y-99252000D02*
X109646000Y-100560000D01*
X109606000Y-102640000D02*
X109606000Y-103965000D01*
X109606000Y-99235000D02*
X109606000Y-100560000D01*
X109566000Y-102640000D02*
X109566000Y-103982000D01*
X109566000Y-99218000D02*
X109566000Y-100560000D01*
X109526000Y-102640000D02*
X109526000Y-103998000D01*
X109526000Y-99202000D02*
X109526000Y-100560000D01*
X109486000Y-102640000D02*
X109486000Y-104014000D01*
X109486000Y-99186000D02*
X109486000Y-100560000D01*
X109446000Y-102640000D02*
X109446000Y-104028000D01*
X109446000Y-99172000D02*
X109446000Y-100560000D01*
X109406000Y-102640000D02*
X109406000Y-104042000D01*
X109406000Y-99158000D02*
X109406000Y-100560000D01*
X109366000Y-102640000D02*
X109366000Y-104055000D01*
X109366000Y-99145000D02*
X109366000Y-100560000D01*
X109326000Y-102640000D02*
X109326000Y-104068000D01*
X109326000Y-99132000D02*
X109326000Y-100560000D01*
X109286000Y-102640000D02*
X109286000Y-104080000D01*
X109286000Y-99120000D02*
X109286000Y-100560000D01*
X109245000Y-102640000D02*
X109245000Y-104091000D01*
X109245000Y-99109000D02*
X109245000Y-100560000D01*
X109205000Y-102640000D02*
X109205000Y-104101000D01*
X109205000Y-99099000D02*
X109205000Y-100560000D01*
X109165000Y-102640000D02*
X109165000Y-104111000D01*
X109165000Y-99089000D02*
X109165000Y-100560000D01*
X109125000Y-102640000D02*
X109125000Y-104120000D01*
X109125000Y-99080000D02*
X109125000Y-100560000D01*
X109085000Y-102640000D02*
X109085000Y-104128000D01*
X109085000Y-99072000D02*
X109085000Y-100560000D01*
X109045000Y-102640000D02*
X109045000Y-104136000D01*
X109045000Y-99064000D02*
X109045000Y-100560000D01*
X109005000Y-102640000D02*
X109005000Y-104143000D01*
X109005000Y-99057000D02*
X109005000Y-100560000D01*
X108965000Y-102640000D02*
X108965000Y-104150000D01*
X108965000Y-99050000D02*
X108965000Y-100560000D01*
X108925000Y-102640000D02*
X108925000Y-104156000D01*
X108925000Y-99044000D02*
X108925000Y-100560000D01*
X108885000Y-102640000D02*
X108885000Y-104161000D01*
X108885000Y-99039000D02*
X108885000Y-100560000D01*
X108845000Y-102640000D02*
X108845000Y-104165000D01*
X108845000Y-99035000D02*
X108845000Y-100560000D01*
X108805000Y-102640000D02*
X108805000Y-104169000D01*
X108805000Y-99031000D02*
X108805000Y-100560000D01*
X108765000Y-99027000D02*
X108765000Y-104173000D01*
X108725000Y-99024000D02*
X108725000Y-104176000D01*
X108685000Y-99022000D02*
X108685000Y-104178000D01*
X108645000Y-99021000D02*
X108645000Y-104179000D01*
X108605000Y-99020000D02*
X108605000Y-104180000D01*
X108565000Y-99020000D02*
X108565000Y-104180000D01*
X111185000Y-101600000D02*
G75*
G03X111185000Y-101600000I-2620000J0D01*
G01*
X108405000Y-90770225D02*
X107905000Y-90770225D01*
X108155000Y-90520225D02*
X108155000Y-91020225D01*
X106964000Y-95926000D02*
X106396000Y-95926000D01*
X107198000Y-95886000D02*
X106162000Y-95886000D01*
X107357000Y-95846000D02*
X106003000Y-95846000D01*
X107485000Y-95806000D02*
X105875000Y-95806000D01*
X107595000Y-95766000D02*
X105765000Y-95766000D01*
X107691000Y-95726000D02*
X105669000Y-95726000D01*
X107778000Y-95686000D02*
X105582000Y-95686000D01*
X107858000Y-95646000D02*
X105502000Y-95646000D01*
X105640000Y-95606000D02*
X105429000Y-95606000D01*
X107931000Y-95606000D02*
X107720000Y-95606000D01*
X105640000Y-95566000D02*
X105361000Y-95566000D01*
X107999000Y-95566000D02*
X107720000Y-95566000D01*
X105640000Y-95526000D02*
X105297000Y-95526000D01*
X108063000Y-95526000D02*
X107720000Y-95526000D01*
X105640000Y-95486000D02*
X105237000Y-95486000D01*
X108123000Y-95486000D02*
X107720000Y-95486000D01*
X105640000Y-95446000D02*
X105180000Y-95446000D01*
X108180000Y-95446000D02*
X107720000Y-95446000D01*
X105640000Y-95406000D02*
X105126000Y-95406000D01*
X108234000Y-95406000D02*
X107720000Y-95406000D01*
X105640000Y-95366000D02*
X105075000Y-95366000D01*
X108285000Y-95366000D02*
X107720000Y-95366000D01*
X105640000Y-95326000D02*
X105027000Y-95326000D01*
X108333000Y-95326000D02*
X107720000Y-95326000D01*
X105640000Y-95286000D02*
X104981000Y-95286000D01*
X108379000Y-95286000D02*
X107720000Y-95286000D01*
X105640000Y-95246000D02*
X104937000Y-95246000D01*
X108423000Y-95246000D02*
X107720000Y-95246000D01*
X105640000Y-95206000D02*
X104895000Y-95206000D01*
X108465000Y-95206000D02*
X107720000Y-95206000D01*
X105640000Y-95166000D02*
X104854000Y-95166000D01*
X108506000Y-95166000D02*
X107720000Y-95166000D01*
X105640000Y-95126000D02*
X104816000Y-95126000D01*
X108544000Y-95126000D02*
X107720000Y-95126000D01*
X105640000Y-95086000D02*
X104779000Y-95086000D01*
X108581000Y-95086000D02*
X107720000Y-95086000D01*
X105640000Y-95046000D02*
X104743000Y-95046000D01*
X108617000Y-95046000D02*
X107720000Y-95046000D01*
X105640000Y-95006000D02*
X104709000Y-95006000D01*
X108651000Y-95006000D02*
X107720000Y-95006000D01*
X105640000Y-94966000D02*
X104676000Y-94966000D01*
X108684000Y-94966000D02*
X107720000Y-94966000D01*
X105640000Y-94926000D02*
X104645000Y-94926000D01*
X108715000Y-94926000D02*
X107720000Y-94926000D01*
X105640000Y-94886000D02*
X104615000Y-94886000D01*
X108745000Y-94886000D02*
X107720000Y-94886000D01*
X105640000Y-94846000D02*
X104585000Y-94846000D01*
X108775000Y-94846000D02*
X107720000Y-94846000D01*
X105640000Y-94806000D02*
X104558000Y-94806000D01*
X108802000Y-94806000D02*
X107720000Y-94806000D01*
X105640000Y-94766000D02*
X104531000Y-94766000D01*
X108829000Y-94766000D02*
X107720000Y-94766000D01*
X105640000Y-94726000D02*
X104505000Y-94726000D01*
X108855000Y-94726000D02*
X107720000Y-94726000D01*
X105640000Y-94686000D02*
X104480000Y-94686000D01*
X108880000Y-94686000D02*
X107720000Y-94686000D01*
X105640000Y-94646000D02*
X104456000Y-94646000D01*
X108904000Y-94646000D02*
X107720000Y-94646000D01*
X105640000Y-94606000D02*
X104433000Y-94606000D01*
X108927000Y-94606000D02*
X107720000Y-94606000D01*
X105640000Y-94566000D02*
X104412000Y-94566000D01*
X108948000Y-94566000D02*
X107720000Y-94566000D01*
X105640000Y-94526000D02*
X104390000Y-94526000D01*
X108970000Y-94526000D02*
X107720000Y-94526000D01*
X105640000Y-94486000D02*
X104370000Y-94486000D01*
X108990000Y-94486000D02*
X107720000Y-94486000D01*
X105640000Y-94446000D02*
X104351000Y-94446000D01*
X109009000Y-94446000D02*
X107720000Y-94446000D01*
X105640000Y-94406000D02*
X104332000Y-94406000D01*
X109028000Y-94406000D02*
X107720000Y-94406000D01*
X105640000Y-94366000D02*
X104315000Y-94366000D01*
X109045000Y-94366000D02*
X107720000Y-94366000D01*
X105640000Y-94326000D02*
X104298000Y-94326000D01*
X109062000Y-94326000D02*
X107720000Y-94326000D01*
X105640000Y-94286000D02*
X104282000Y-94286000D01*
X109078000Y-94286000D02*
X107720000Y-94286000D01*
X105640000Y-94246000D02*
X104266000Y-94246000D01*
X109094000Y-94246000D02*
X107720000Y-94246000D01*
X105640000Y-94206000D02*
X104252000Y-94206000D01*
X109108000Y-94206000D02*
X107720000Y-94206000D01*
X105640000Y-94166000D02*
X104238000Y-94166000D01*
X109122000Y-94166000D02*
X107720000Y-94166000D01*
X105640000Y-94126000D02*
X104225000Y-94126000D01*
X109135000Y-94126000D02*
X107720000Y-94126000D01*
X105640000Y-94086000D02*
X104212000Y-94086000D01*
X109148000Y-94086000D02*
X107720000Y-94086000D01*
X105640000Y-94046000D02*
X104200000Y-94046000D01*
X109160000Y-94046000D02*
X107720000Y-94046000D01*
X105640000Y-94005000D02*
X104189000Y-94005000D01*
X109171000Y-94005000D02*
X107720000Y-94005000D01*
X105640000Y-93965000D02*
X104179000Y-93965000D01*
X109181000Y-93965000D02*
X107720000Y-93965000D01*
X105640000Y-93925000D02*
X104169000Y-93925000D01*
X109191000Y-93925000D02*
X107720000Y-93925000D01*
X105640000Y-93885000D02*
X104160000Y-93885000D01*
X109200000Y-93885000D02*
X107720000Y-93885000D01*
X105640000Y-93845000D02*
X104152000Y-93845000D01*
X109208000Y-93845000D02*
X107720000Y-93845000D01*
X105640000Y-93805000D02*
X104144000Y-93805000D01*
X109216000Y-93805000D02*
X107720000Y-93805000D01*
X105640000Y-93765000D02*
X104137000Y-93765000D01*
X109223000Y-93765000D02*
X107720000Y-93765000D01*
X105640000Y-93725000D02*
X104130000Y-93725000D01*
X109230000Y-93725000D02*
X107720000Y-93725000D01*
X105640000Y-93685000D02*
X104124000Y-93685000D01*
X109236000Y-93685000D02*
X107720000Y-93685000D01*
X105640000Y-93645000D02*
X104119000Y-93645000D01*
X109241000Y-93645000D02*
X107720000Y-93645000D01*
X105640000Y-93605000D02*
X104115000Y-93605000D01*
X109245000Y-93605000D02*
X107720000Y-93605000D01*
X105640000Y-93565000D02*
X104111000Y-93565000D01*
X109249000Y-93565000D02*
X107720000Y-93565000D01*
X109253000Y-93525000D02*
X104107000Y-93525000D01*
X109256000Y-93485000D02*
X104104000Y-93485000D01*
X109258000Y-93445000D02*
X104102000Y-93445000D01*
X109259000Y-93405000D02*
X104101000Y-93405000D01*
X109260000Y-93365000D02*
X104100000Y-93365000D01*
X109260000Y-93325000D02*
X104100000Y-93325000D01*
X109300000Y-93325000D02*
G75*
G03X109300000Y-93325000I-2620000J0D01*
G01*
X156879775Y-88720000D02*
X156879775Y-88220000D01*
X157129775Y-88470000D02*
X156629775Y-88470000D01*
X151724000Y-87279000D02*
X151724000Y-86711000D01*
X151764000Y-87513000D02*
X151764000Y-86477000D01*
X151804000Y-87672000D02*
X151804000Y-86318000D01*
X151844000Y-87800000D02*
X151844000Y-86190000D01*
X151884000Y-87910000D02*
X151884000Y-86080000D01*
X151924000Y-88006000D02*
X151924000Y-85984000D01*
X151964000Y-88093000D02*
X151964000Y-85897000D01*
X152004000Y-88173000D02*
X152004000Y-85817000D01*
X152044000Y-85955000D02*
X152044000Y-85744000D01*
X152044000Y-88246000D02*
X152044000Y-88035000D01*
X152084000Y-85955000D02*
X152084000Y-85676000D01*
X152084000Y-88314000D02*
X152084000Y-88035000D01*
X152124000Y-85955000D02*
X152124000Y-85612000D01*
X152124000Y-88378000D02*
X152124000Y-88035000D01*
X152164000Y-85955000D02*
X152164000Y-85552000D01*
X152164000Y-88438000D02*
X152164000Y-88035000D01*
X152204000Y-85955000D02*
X152204000Y-85495000D01*
X152204000Y-88495000D02*
X152204000Y-88035000D01*
X152244000Y-85955000D02*
X152244000Y-85441000D01*
X152244000Y-88549000D02*
X152244000Y-88035000D01*
X152284000Y-85955000D02*
X152284000Y-85390000D01*
X152284000Y-88600000D02*
X152284000Y-88035000D01*
X152324000Y-85955000D02*
X152324000Y-85342000D01*
X152324000Y-88648000D02*
X152324000Y-88035000D01*
X152364000Y-85955000D02*
X152364000Y-85296000D01*
X152364000Y-88694000D02*
X152364000Y-88035000D01*
X152404000Y-85955000D02*
X152404000Y-85252000D01*
X152404000Y-88738000D02*
X152404000Y-88035000D01*
X152444000Y-85955000D02*
X152444000Y-85210000D01*
X152444000Y-88780000D02*
X152444000Y-88035000D01*
X152484000Y-85955000D02*
X152484000Y-85169000D01*
X152484000Y-88821000D02*
X152484000Y-88035000D01*
X152524000Y-85955000D02*
X152524000Y-85131000D01*
X152524000Y-88859000D02*
X152524000Y-88035000D01*
X152564000Y-85955000D02*
X152564000Y-85094000D01*
X152564000Y-88896000D02*
X152564000Y-88035000D01*
X152604000Y-85955000D02*
X152604000Y-85058000D01*
X152604000Y-88932000D02*
X152604000Y-88035000D01*
X152644000Y-85955000D02*
X152644000Y-85024000D01*
X152644000Y-88966000D02*
X152644000Y-88035000D01*
X152684000Y-85955000D02*
X152684000Y-84991000D01*
X152684000Y-88999000D02*
X152684000Y-88035000D01*
X152724000Y-85955000D02*
X152724000Y-84960000D01*
X152724000Y-89030000D02*
X152724000Y-88035000D01*
X152764000Y-85955000D02*
X152764000Y-84930000D01*
X152764000Y-89060000D02*
X152764000Y-88035000D01*
X152804000Y-85955000D02*
X152804000Y-84900000D01*
X152804000Y-89090000D02*
X152804000Y-88035000D01*
X152844000Y-85955000D02*
X152844000Y-84873000D01*
X152844000Y-89117000D02*
X152844000Y-88035000D01*
X152884000Y-85955000D02*
X152884000Y-84846000D01*
X152884000Y-89144000D02*
X152884000Y-88035000D01*
X152924000Y-85955000D02*
X152924000Y-84820000D01*
X152924000Y-89170000D02*
X152924000Y-88035000D01*
X152964000Y-85955000D02*
X152964000Y-84795000D01*
X152964000Y-89195000D02*
X152964000Y-88035000D01*
X153004000Y-85955000D02*
X153004000Y-84771000D01*
X153004000Y-89219000D02*
X153004000Y-88035000D01*
X153044000Y-85955000D02*
X153044000Y-84748000D01*
X153044000Y-89242000D02*
X153044000Y-88035000D01*
X153084000Y-85955000D02*
X153084000Y-84727000D01*
X153084000Y-89263000D02*
X153084000Y-88035000D01*
X153124000Y-85955000D02*
X153124000Y-84705000D01*
X153124000Y-89285000D02*
X153124000Y-88035000D01*
X153164000Y-85955000D02*
X153164000Y-84685000D01*
X153164000Y-89305000D02*
X153164000Y-88035000D01*
X153204000Y-85955000D02*
X153204000Y-84666000D01*
X153204000Y-89324000D02*
X153204000Y-88035000D01*
X153244000Y-85955000D02*
X153244000Y-84647000D01*
X153244000Y-89343000D02*
X153244000Y-88035000D01*
X153284000Y-85955000D02*
X153284000Y-84630000D01*
X153284000Y-89360000D02*
X153284000Y-88035000D01*
X153324000Y-85955000D02*
X153324000Y-84613000D01*
X153324000Y-89377000D02*
X153324000Y-88035000D01*
X153364000Y-85955000D02*
X153364000Y-84597000D01*
X153364000Y-89393000D02*
X153364000Y-88035000D01*
X153404000Y-85955000D02*
X153404000Y-84581000D01*
X153404000Y-89409000D02*
X153404000Y-88035000D01*
X153444000Y-85955000D02*
X153444000Y-84567000D01*
X153444000Y-89423000D02*
X153444000Y-88035000D01*
X153484000Y-85955000D02*
X153484000Y-84553000D01*
X153484000Y-89437000D02*
X153484000Y-88035000D01*
X153524000Y-85955000D02*
X153524000Y-84540000D01*
X153524000Y-89450000D02*
X153524000Y-88035000D01*
X153564000Y-85955000D02*
X153564000Y-84527000D01*
X153564000Y-89463000D02*
X153564000Y-88035000D01*
X153604000Y-85955000D02*
X153604000Y-84515000D01*
X153604000Y-89475000D02*
X153604000Y-88035000D01*
X153645000Y-85955000D02*
X153645000Y-84504000D01*
X153645000Y-89486000D02*
X153645000Y-88035000D01*
X153685000Y-85955000D02*
X153685000Y-84494000D01*
X153685000Y-89496000D02*
X153685000Y-88035000D01*
X153725000Y-85955000D02*
X153725000Y-84484000D01*
X153725000Y-89506000D02*
X153725000Y-88035000D01*
X153765000Y-85955000D02*
X153765000Y-84475000D01*
X153765000Y-89515000D02*
X153765000Y-88035000D01*
X153805000Y-85955000D02*
X153805000Y-84467000D01*
X153805000Y-89523000D02*
X153805000Y-88035000D01*
X153845000Y-85955000D02*
X153845000Y-84459000D01*
X153845000Y-89531000D02*
X153845000Y-88035000D01*
X153885000Y-85955000D02*
X153885000Y-84452000D01*
X153885000Y-89538000D02*
X153885000Y-88035000D01*
X153925000Y-85955000D02*
X153925000Y-84445000D01*
X153925000Y-89545000D02*
X153925000Y-88035000D01*
X153965000Y-85955000D02*
X153965000Y-84439000D01*
X153965000Y-89551000D02*
X153965000Y-88035000D01*
X154005000Y-85955000D02*
X154005000Y-84434000D01*
X154005000Y-89556000D02*
X154005000Y-88035000D01*
X154045000Y-85955000D02*
X154045000Y-84430000D01*
X154045000Y-89560000D02*
X154045000Y-88035000D01*
X154085000Y-85955000D02*
X154085000Y-84426000D01*
X154085000Y-89564000D02*
X154085000Y-88035000D01*
X154125000Y-89568000D02*
X154125000Y-84422000D01*
X154165000Y-89571000D02*
X154165000Y-84419000D01*
X154205000Y-89573000D02*
X154205000Y-84417000D01*
X154245000Y-89574000D02*
X154245000Y-84416000D01*
X154285000Y-89575000D02*
X154285000Y-84415000D01*
X154325000Y-89575000D02*
X154325000Y-84415000D01*
X156945000Y-86995000D02*
G75*
G03X156945000Y-86995000I-2620000J0D01*
G01*
X117480225Y-99875000D02*
X117480225Y-100375000D01*
X117230225Y-100125000D02*
X117730225Y-100125000D01*
X122636000Y-101316000D02*
X122636000Y-101884000D01*
X122596000Y-101082000D02*
X122596000Y-102118000D01*
X122556000Y-100923000D02*
X122556000Y-102277000D01*
X122516000Y-100795000D02*
X122516000Y-102405000D01*
X122476000Y-100685000D02*
X122476000Y-102515000D01*
X122436000Y-100589000D02*
X122436000Y-102611000D01*
X122396000Y-100502000D02*
X122396000Y-102698000D01*
X122356000Y-100422000D02*
X122356000Y-102778000D01*
X122316000Y-102640000D02*
X122316000Y-102851000D01*
X122316000Y-100349000D02*
X122316000Y-100560000D01*
X122276000Y-102640000D02*
X122276000Y-102919000D01*
X122276000Y-100281000D02*
X122276000Y-100560000D01*
X122236000Y-102640000D02*
X122236000Y-102983000D01*
X122236000Y-100217000D02*
X122236000Y-100560000D01*
X122196000Y-102640000D02*
X122196000Y-103043000D01*
X122196000Y-100157000D02*
X122196000Y-100560000D01*
X122156000Y-102640000D02*
X122156000Y-103100000D01*
X122156000Y-100100000D02*
X122156000Y-100560000D01*
X122116000Y-102640000D02*
X122116000Y-103154000D01*
X122116000Y-100046000D02*
X122116000Y-100560000D01*
X122076000Y-102640000D02*
X122076000Y-103205000D01*
X122076000Y-99995000D02*
X122076000Y-100560000D01*
X122036000Y-102640000D02*
X122036000Y-103253000D01*
X122036000Y-99947000D02*
X122036000Y-100560000D01*
X121996000Y-102640000D02*
X121996000Y-103299000D01*
X121996000Y-99901000D02*
X121996000Y-100560000D01*
X121956000Y-102640000D02*
X121956000Y-103343000D01*
X121956000Y-99857000D02*
X121956000Y-100560000D01*
X121916000Y-102640000D02*
X121916000Y-103385000D01*
X121916000Y-99815000D02*
X121916000Y-100560000D01*
X121876000Y-102640000D02*
X121876000Y-103426000D01*
X121876000Y-99774000D02*
X121876000Y-100560000D01*
X121836000Y-102640000D02*
X121836000Y-103464000D01*
X121836000Y-99736000D02*
X121836000Y-100560000D01*
X121796000Y-102640000D02*
X121796000Y-103501000D01*
X121796000Y-99699000D02*
X121796000Y-100560000D01*
X121756000Y-102640000D02*
X121756000Y-103537000D01*
X121756000Y-99663000D02*
X121756000Y-100560000D01*
X121716000Y-102640000D02*
X121716000Y-103571000D01*
X121716000Y-99629000D02*
X121716000Y-100560000D01*
X121676000Y-102640000D02*
X121676000Y-103604000D01*
X121676000Y-99596000D02*
X121676000Y-100560000D01*
X121636000Y-102640000D02*
X121636000Y-103635000D01*
X121636000Y-99565000D02*
X121636000Y-100560000D01*
X121596000Y-102640000D02*
X121596000Y-103665000D01*
X121596000Y-99535000D02*
X121596000Y-100560000D01*
X121556000Y-102640000D02*
X121556000Y-103695000D01*
X121556000Y-99505000D02*
X121556000Y-100560000D01*
X121516000Y-102640000D02*
X121516000Y-103722000D01*
X121516000Y-99478000D02*
X121516000Y-100560000D01*
X121476000Y-102640000D02*
X121476000Y-103749000D01*
X121476000Y-99451000D02*
X121476000Y-100560000D01*
X121436000Y-102640000D02*
X121436000Y-103775000D01*
X121436000Y-99425000D02*
X121436000Y-100560000D01*
X121396000Y-102640000D02*
X121396000Y-103800000D01*
X121396000Y-99400000D02*
X121396000Y-100560000D01*
X121356000Y-102640000D02*
X121356000Y-103824000D01*
X121356000Y-99376000D02*
X121356000Y-100560000D01*
X121316000Y-102640000D02*
X121316000Y-103847000D01*
X121316000Y-99353000D02*
X121316000Y-100560000D01*
X121276000Y-102640000D02*
X121276000Y-103868000D01*
X121276000Y-99332000D02*
X121276000Y-100560000D01*
X121236000Y-102640000D02*
X121236000Y-103890000D01*
X121236000Y-99310000D02*
X121236000Y-100560000D01*
X121196000Y-102640000D02*
X121196000Y-103910000D01*
X121196000Y-99290000D02*
X121196000Y-100560000D01*
X121156000Y-102640000D02*
X121156000Y-103929000D01*
X121156000Y-99271000D02*
X121156000Y-100560000D01*
X121116000Y-102640000D02*
X121116000Y-103948000D01*
X121116000Y-99252000D02*
X121116000Y-100560000D01*
X121076000Y-102640000D02*
X121076000Y-103965000D01*
X121076000Y-99235000D02*
X121076000Y-100560000D01*
X121036000Y-102640000D02*
X121036000Y-103982000D01*
X121036000Y-99218000D02*
X121036000Y-100560000D01*
X120996000Y-102640000D02*
X120996000Y-103998000D01*
X120996000Y-99202000D02*
X120996000Y-100560000D01*
X120956000Y-102640000D02*
X120956000Y-104014000D01*
X120956000Y-99186000D02*
X120956000Y-100560000D01*
X120916000Y-102640000D02*
X120916000Y-104028000D01*
X120916000Y-99172000D02*
X120916000Y-100560000D01*
X120876000Y-102640000D02*
X120876000Y-104042000D01*
X120876000Y-99158000D02*
X120876000Y-100560000D01*
X120836000Y-102640000D02*
X120836000Y-104055000D01*
X120836000Y-99145000D02*
X120836000Y-100560000D01*
X120796000Y-102640000D02*
X120796000Y-104068000D01*
X120796000Y-99132000D02*
X120796000Y-100560000D01*
X120756000Y-102640000D02*
X120756000Y-104080000D01*
X120756000Y-99120000D02*
X120756000Y-100560000D01*
X120715000Y-102640000D02*
X120715000Y-104091000D01*
X120715000Y-99109000D02*
X120715000Y-100560000D01*
X120675000Y-102640000D02*
X120675000Y-104101000D01*
X120675000Y-99099000D02*
X120675000Y-100560000D01*
X120635000Y-102640000D02*
X120635000Y-104111000D01*
X120635000Y-99089000D02*
X120635000Y-100560000D01*
X120595000Y-102640000D02*
X120595000Y-104120000D01*
X120595000Y-99080000D02*
X120595000Y-100560000D01*
X120555000Y-102640000D02*
X120555000Y-104128000D01*
X120555000Y-99072000D02*
X120555000Y-100560000D01*
X120515000Y-102640000D02*
X120515000Y-104136000D01*
X120515000Y-99064000D02*
X120515000Y-100560000D01*
X120475000Y-102640000D02*
X120475000Y-104143000D01*
X120475000Y-99057000D02*
X120475000Y-100560000D01*
X120435000Y-102640000D02*
X120435000Y-104150000D01*
X120435000Y-99050000D02*
X120435000Y-100560000D01*
X120395000Y-102640000D02*
X120395000Y-104156000D01*
X120395000Y-99044000D02*
X120395000Y-100560000D01*
X120355000Y-102640000D02*
X120355000Y-104161000D01*
X120355000Y-99039000D02*
X120355000Y-100560000D01*
X120315000Y-102640000D02*
X120315000Y-104165000D01*
X120315000Y-99035000D02*
X120315000Y-100560000D01*
X120275000Y-102640000D02*
X120275000Y-104169000D01*
X120275000Y-99031000D02*
X120275000Y-100560000D01*
X120235000Y-99027000D02*
X120235000Y-104173000D01*
X120195000Y-99024000D02*
X120195000Y-104176000D01*
X120155000Y-99022000D02*
X120155000Y-104178000D01*
X120115000Y-99021000D02*
X120115000Y-104179000D01*
X120075000Y-99020000D02*
X120075000Y-104180000D01*
X120035000Y-99020000D02*
X120035000Y-104180000D01*
X122655000Y-101600000D02*
G75*
G03X122655000Y-101600000I-2620000J0D01*
G01*
X145595000Y-104174775D02*
X146095000Y-104174775D01*
X145845000Y-104424775D02*
X145845000Y-103924775D01*
X147036000Y-99019000D02*
X147604000Y-99019000D01*
X146802000Y-99059000D02*
X147838000Y-99059000D01*
X146643000Y-99099000D02*
X147997000Y-99099000D01*
X146515000Y-99139000D02*
X148125000Y-99139000D01*
X146405000Y-99179000D02*
X148235000Y-99179000D01*
X146309000Y-99219000D02*
X148331000Y-99219000D01*
X146222000Y-99259000D02*
X148418000Y-99259000D01*
X146142000Y-99299000D02*
X148498000Y-99299000D01*
X148360000Y-99339000D02*
X148571000Y-99339000D01*
X146069000Y-99339000D02*
X146280000Y-99339000D01*
X148360000Y-99379000D02*
X148639000Y-99379000D01*
X146001000Y-99379000D02*
X146280000Y-99379000D01*
X148360000Y-99419000D02*
X148703000Y-99419000D01*
X145937000Y-99419000D02*
X146280000Y-99419000D01*
X148360000Y-99459000D02*
X148763000Y-99459000D01*
X145877000Y-99459000D02*
X146280000Y-99459000D01*
X148360000Y-99499000D02*
X148820000Y-99499000D01*
X145820000Y-99499000D02*
X146280000Y-99499000D01*
X148360000Y-99539000D02*
X148874000Y-99539000D01*
X145766000Y-99539000D02*
X146280000Y-99539000D01*
X148360000Y-99579000D02*
X148925000Y-99579000D01*
X145715000Y-99579000D02*
X146280000Y-99579000D01*
X148360000Y-99619000D02*
X148973000Y-99619000D01*
X145667000Y-99619000D02*
X146280000Y-99619000D01*
X148360000Y-99659000D02*
X149019000Y-99659000D01*
X145621000Y-99659000D02*
X146280000Y-99659000D01*
X148360000Y-99699000D02*
X149063000Y-99699000D01*
X145577000Y-99699000D02*
X146280000Y-99699000D01*
X148360000Y-99739000D02*
X149105000Y-99739000D01*
X145535000Y-99739000D02*
X146280000Y-99739000D01*
X148360000Y-99779000D02*
X149146000Y-99779000D01*
X145494000Y-99779000D02*
X146280000Y-99779000D01*
X148360000Y-99819000D02*
X149184000Y-99819000D01*
X145456000Y-99819000D02*
X146280000Y-99819000D01*
X148360000Y-99859000D02*
X149221000Y-99859000D01*
X145419000Y-99859000D02*
X146280000Y-99859000D01*
X148360000Y-99899000D02*
X149257000Y-99899000D01*
X145383000Y-99899000D02*
X146280000Y-99899000D01*
X148360000Y-99939000D02*
X149291000Y-99939000D01*
X145349000Y-99939000D02*
X146280000Y-99939000D01*
X148360000Y-99979000D02*
X149324000Y-99979000D01*
X145316000Y-99979000D02*
X146280000Y-99979000D01*
X148360000Y-100019000D02*
X149355000Y-100019000D01*
X145285000Y-100019000D02*
X146280000Y-100019000D01*
X148360000Y-100059000D02*
X149385000Y-100059000D01*
X145255000Y-100059000D02*
X146280000Y-100059000D01*
X148360000Y-100099000D02*
X149415000Y-100099000D01*
X145225000Y-100099000D02*
X146280000Y-100099000D01*
X148360000Y-100139000D02*
X149442000Y-100139000D01*
X145198000Y-100139000D02*
X146280000Y-100139000D01*
X148360000Y-100179000D02*
X149469000Y-100179000D01*
X145171000Y-100179000D02*
X146280000Y-100179000D01*
X148360000Y-100219000D02*
X149495000Y-100219000D01*
X145145000Y-100219000D02*
X146280000Y-100219000D01*
X148360000Y-100259000D02*
X149520000Y-100259000D01*
X145120000Y-100259000D02*
X146280000Y-100259000D01*
X148360000Y-100299000D02*
X149544000Y-100299000D01*
X145096000Y-100299000D02*
X146280000Y-100299000D01*
X148360000Y-100339000D02*
X149567000Y-100339000D01*
X145073000Y-100339000D02*
X146280000Y-100339000D01*
X148360000Y-100379000D02*
X149588000Y-100379000D01*
X145052000Y-100379000D02*
X146280000Y-100379000D01*
X148360000Y-100419000D02*
X149610000Y-100419000D01*
X145030000Y-100419000D02*
X146280000Y-100419000D01*
X148360000Y-100459000D02*
X149630000Y-100459000D01*
X145010000Y-100459000D02*
X146280000Y-100459000D01*
X148360000Y-100499000D02*
X149649000Y-100499000D01*
X144991000Y-100499000D02*
X146280000Y-100499000D01*
X148360000Y-100539000D02*
X149668000Y-100539000D01*
X144972000Y-100539000D02*
X146280000Y-100539000D01*
X148360000Y-100579000D02*
X149685000Y-100579000D01*
X144955000Y-100579000D02*
X146280000Y-100579000D01*
X148360000Y-100619000D02*
X149702000Y-100619000D01*
X144938000Y-100619000D02*
X146280000Y-100619000D01*
X148360000Y-100659000D02*
X149718000Y-100659000D01*
X144922000Y-100659000D02*
X146280000Y-100659000D01*
X148360000Y-100699000D02*
X149734000Y-100699000D01*
X144906000Y-100699000D02*
X146280000Y-100699000D01*
X148360000Y-100739000D02*
X149748000Y-100739000D01*
X144892000Y-100739000D02*
X146280000Y-100739000D01*
X148360000Y-100779000D02*
X149762000Y-100779000D01*
X144878000Y-100779000D02*
X146280000Y-100779000D01*
X148360000Y-100819000D02*
X149775000Y-100819000D01*
X144865000Y-100819000D02*
X146280000Y-100819000D01*
X148360000Y-100859000D02*
X149788000Y-100859000D01*
X144852000Y-100859000D02*
X146280000Y-100859000D01*
X148360000Y-100899000D02*
X149800000Y-100899000D01*
X144840000Y-100899000D02*
X146280000Y-100899000D01*
X148360000Y-100940000D02*
X149811000Y-100940000D01*
X144829000Y-100940000D02*
X146280000Y-100940000D01*
X148360000Y-100980000D02*
X149821000Y-100980000D01*
X144819000Y-100980000D02*
X146280000Y-100980000D01*
X148360000Y-101020000D02*
X149831000Y-101020000D01*
X144809000Y-101020000D02*
X146280000Y-101020000D01*
X148360000Y-101060000D02*
X149840000Y-101060000D01*
X144800000Y-101060000D02*
X146280000Y-101060000D01*
X148360000Y-101100000D02*
X149848000Y-101100000D01*
X144792000Y-101100000D02*
X146280000Y-101100000D01*
X148360000Y-101140000D02*
X149856000Y-101140000D01*
X144784000Y-101140000D02*
X146280000Y-101140000D01*
X148360000Y-101180000D02*
X149863000Y-101180000D01*
X144777000Y-101180000D02*
X146280000Y-101180000D01*
X148360000Y-101220000D02*
X149870000Y-101220000D01*
X144770000Y-101220000D02*
X146280000Y-101220000D01*
X148360000Y-101260000D02*
X149876000Y-101260000D01*
X144764000Y-101260000D02*
X146280000Y-101260000D01*
X148360000Y-101300000D02*
X149881000Y-101300000D01*
X144759000Y-101300000D02*
X146280000Y-101300000D01*
X148360000Y-101340000D02*
X149885000Y-101340000D01*
X144755000Y-101340000D02*
X146280000Y-101340000D01*
X148360000Y-101380000D02*
X149889000Y-101380000D01*
X144751000Y-101380000D02*
X146280000Y-101380000D01*
X144747000Y-101420000D02*
X149893000Y-101420000D01*
X144744000Y-101460000D02*
X149896000Y-101460000D01*
X144742000Y-101500000D02*
X149898000Y-101500000D01*
X144741000Y-101540000D02*
X149899000Y-101540000D01*
X144740000Y-101580000D02*
X149900000Y-101580000D01*
X144740000Y-101620000D02*
X149900000Y-101620000D01*
X149940000Y-101620000D02*
G75*
G03X149940000Y-101620000I-2620000J0D01*
G01*
X134642789Y-89525000D02*
X134642789Y-90275000D01*
X134267789Y-89900000D02*
X135017789Y-89900000D01*
X142251000Y-91634000D02*
X142251000Y-92516000D01*
X142211000Y-91382000D02*
X142211000Y-92768000D01*
X142171000Y-91198000D02*
X142171000Y-92952000D01*
X142131000Y-91047000D02*
X142131000Y-93103000D01*
X142091000Y-90917000D02*
X142091000Y-93233000D01*
X142051000Y-90800000D02*
X142051000Y-93350000D01*
X142011000Y-90694000D02*
X142011000Y-93456000D01*
X141971000Y-90597000D02*
X141971000Y-93553000D01*
X141931000Y-90506000D02*
X141931000Y-93644000D01*
X141891000Y-90421000D02*
X141891000Y-93729000D01*
X141851000Y-90342000D02*
X141851000Y-93808000D01*
X141811000Y-90266000D02*
X141811000Y-93884000D01*
X141771000Y-90194000D02*
X141771000Y-93956000D01*
X141731000Y-90126000D02*
X141731000Y-94024000D01*
X141691000Y-90061000D02*
X141691000Y-94089000D01*
X141651000Y-89998000D02*
X141651000Y-94152000D01*
X141611000Y-89938000D02*
X141611000Y-94212000D01*
X141571000Y-89880000D02*
X141571000Y-94270000D01*
X141531000Y-89825000D02*
X141531000Y-94325000D01*
X141491000Y-89771000D02*
X141491000Y-94379000D01*
X141451000Y-89720000D02*
X141451000Y-94430000D01*
X141411000Y-89670000D02*
X141411000Y-94480000D01*
X141371000Y-89621000D02*
X141371000Y-94529000D01*
X141331000Y-89575000D02*
X141331000Y-94575000D01*
X141291000Y-89529000D02*
X141291000Y-94621000D01*
X141251000Y-89486000D02*
X141251000Y-94664000D01*
X141211000Y-89443000D02*
X141211000Y-94707000D01*
X141171000Y-89402000D02*
X141171000Y-94748000D01*
X141131000Y-89362000D02*
X141131000Y-94788000D01*
X141091000Y-89323000D02*
X141091000Y-94827000D01*
X141051000Y-89285000D02*
X141051000Y-94865000D01*
X141011000Y-89248000D02*
X141011000Y-94902000D01*
X140971000Y-89212000D02*
X140971000Y-94938000D01*
X140931000Y-89177000D02*
X140931000Y-94973000D01*
X140891000Y-89144000D02*
X140891000Y-95006000D01*
X140851000Y-89111000D02*
X140851000Y-95039000D01*
X140811000Y-89079000D02*
X140811000Y-95071000D01*
X140771000Y-89047000D02*
X140771000Y-95103000D01*
X140731000Y-89017000D02*
X140731000Y-95133000D01*
X140691000Y-93115000D02*
X140691000Y-95163000D01*
X140691000Y-88987000D02*
X140691000Y-91035000D01*
X140651000Y-93115000D02*
X140651000Y-95191000D01*
X140651000Y-88959000D02*
X140651000Y-91035000D01*
X140611000Y-93115000D02*
X140611000Y-95219000D01*
X140611000Y-88931000D02*
X140611000Y-91035000D01*
X140571000Y-93115000D02*
X140571000Y-95247000D01*
X140571000Y-88903000D02*
X140571000Y-91035000D01*
X140531000Y-93115000D02*
X140531000Y-95273000D01*
X140531000Y-88877000D02*
X140531000Y-91035000D01*
X140491000Y-93115000D02*
X140491000Y-95299000D01*
X140491000Y-88851000D02*
X140491000Y-91035000D01*
X140451000Y-93115000D02*
X140451000Y-95324000D01*
X140451000Y-88826000D02*
X140451000Y-91035000D01*
X140411000Y-93115000D02*
X140411000Y-95349000D01*
X140411000Y-88801000D02*
X140411000Y-91035000D01*
X140371000Y-93115000D02*
X140371000Y-95372000D01*
X140371000Y-88778000D02*
X140371000Y-91035000D01*
X140331000Y-93115000D02*
X140331000Y-95396000D01*
X140331000Y-88754000D02*
X140331000Y-91035000D01*
X140291000Y-93115000D02*
X140291000Y-95418000D01*
X140291000Y-88732000D02*
X140291000Y-91035000D01*
X140251000Y-93115000D02*
X140251000Y-95440000D01*
X140251000Y-88710000D02*
X140251000Y-91035000D01*
X140211000Y-93115000D02*
X140211000Y-95461000D01*
X140211000Y-88689000D02*
X140211000Y-91035000D01*
X140171000Y-93115000D02*
X140171000Y-95482000D01*
X140171000Y-88668000D02*
X140171000Y-91035000D01*
X140131000Y-93115000D02*
X140131000Y-95502000D01*
X140131000Y-88648000D02*
X140131000Y-91035000D01*
X140091000Y-93115000D02*
X140091000Y-95522000D01*
X140091000Y-88628000D02*
X140091000Y-91035000D01*
X140051000Y-93115000D02*
X140051000Y-95541000D01*
X140051000Y-88609000D02*
X140051000Y-91035000D01*
X140011000Y-93115000D02*
X140011000Y-95559000D01*
X140011000Y-88591000D02*
X140011000Y-91035000D01*
X139971000Y-93115000D02*
X139971000Y-95577000D01*
X139971000Y-88573000D02*
X139971000Y-91035000D01*
X139931000Y-93115000D02*
X139931000Y-95595000D01*
X139931000Y-88555000D02*
X139931000Y-91035000D01*
X139891000Y-93115000D02*
X139891000Y-95611000D01*
X139891000Y-88539000D02*
X139891000Y-91035000D01*
X139851000Y-93115000D02*
X139851000Y-95628000D01*
X139851000Y-88522000D02*
X139851000Y-91035000D01*
X139811000Y-93115000D02*
X139811000Y-95643000D01*
X139811000Y-88507000D02*
X139811000Y-91035000D01*
X139771000Y-93115000D02*
X139771000Y-95659000D01*
X139771000Y-88491000D02*
X139771000Y-91035000D01*
X139731000Y-93115000D02*
X139731000Y-95673000D01*
X139731000Y-88477000D02*
X139731000Y-91035000D01*
X139691000Y-93115000D02*
X139691000Y-95688000D01*
X139691000Y-88462000D02*
X139691000Y-91035000D01*
X139651000Y-93115000D02*
X139651000Y-95701000D01*
X139651000Y-88449000D02*
X139651000Y-91035000D01*
X139611000Y-93115000D02*
X139611000Y-95715000D01*
X139611000Y-88435000D02*
X139611000Y-91035000D01*
X139571000Y-93115000D02*
X139571000Y-95728000D01*
X139571000Y-88422000D02*
X139571000Y-91035000D01*
X139531000Y-93115000D02*
X139531000Y-95740000D01*
X139531000Y-88410000D02*
X139531000Y-91035000D01*
X139491000Y-93115000D02*
X139491000Y-95752000D01*
X139491000Y-88398000D02*
X139491000Y-91035000D01*
X139451000Y-93115000D02*
X139451000Y-95763000D01*
X139451000Y-88387000D02*
X139451000Y-91035000D01*
X139411000Y-93115000D02*
X139411000Y-95774000D01*
X139411000Y-88376000D02*
X139411000Y-91035000D01*
X139371000Y-93115000D02*
X139371000Y-95785000D01*
X139371000Y-88365000D02*
X139371000Y-91035000D01*
X139331000Y-93115000D02*
X139331000Y-95795000D01*
X139331000Y-88355000D02*
X139331000Y-91035000D01*
X139291000Y-93115000D02*
X139291000Y-95804000D01*
X139291000Y-88346000D02*
X139291000Y-91035000D01*
X139251000Y-93115000D02*
X139251000Y-95813000D01*
X139251000Y-88337000D02*
X139251000Y-91035000D01*
X139211000Y-93115000D02*
X139211000Y-95822000D01*
X139211000Y-88328000D02*
X139211000Y-91035000D01*
X139171000Y-93115000D02*
X139171000Y-95830000D01*
X139171000Y-88320000D02*
X139171000Y-91035000D01*
X139131000Y-93115000D02*
X139131000Y-95838000D01*
X139131000Y-88312000D02*
X139131000Y-91035000D01*
X139090000Y-93115000D02*
X139090000Y-95845000D01*
X139090000Y-88305000D02*
X139090000Y-91035000D01*
X139050000Y-93115000D02*
X139050000Y-95852000D01*
X139050000Y-88298000D02*
X139050000Y-91035000D01*
X139010000Y-93115000D02*
X139010000Y-95859000D01*
X139010000Y-88291000D02*
X139010000Y-91035000D01*
X138970000Y-93115000D02*
X138970000Y-95865000D01*
X138970000Y-88285000D02*
X138970000Y-91035000D01*
X138930000Y-93115000D02*
X138930000Y-95870000D01*
X138930000Y-88280000D02*
X138930000Y-91035000D01*
X138890000Y-93115000D02*
X138890000Y-95876000D01*
X138890000Y-88274000D02*
X138890000Y-91035000D01*
X138850000Y-93115000D02*
X138850000Y-95880000D01*
X138850000Y-88270000D02*
X138850000Y-91035000D01*
X138810000Y-93115000D02*
X138810000Y-95885000D01*
X138810000Y-88265000D02*
X138810000Y-91035000D01*
X138770000Y-93115000D02*
X138770000Y-95889000D01*
X138770000Y-88261000D02*
X138770000Y-91035000D01*
X138730000Y-93115000D02*
X138730000Y-95892000D01*
X138730000Y-88258000D02*
X138730000Y-91035000D01*
X138690000Y-93115000D02*
X138690000Y-95895000D01*
X138690000Y-88255000D02*
X138690000Y-91035000D01*
X138650000Y-93115000D02*
X138650000Y-95898000D01*
X138650000Y-88252000D02*
X138650000Y-91035000D01*
X138610000Y-88250000D02*
X138610000Y-95900000D01*
X138570000Y-88248000D02*
X138570000Y-95902000D01*
X138530000Y-88246000D02*
X138530000Y-95904000D01*
X138490000Y-88245000D02*
X138490000Y-95905000D01*
X138450000Y-88245000D02*
X138450000Y-95905000D01*
X138410000Y-88245000D02*
X138410000Y-95905000D01*
X142280000Y-92075000D02*
G75*
G03X142280000Y-92075000I-3870000J0D01*
G01*
X158295000Y-104134775D02*
X158795000Y-104134775D01*
X158545000Y-104384775D02*
X158545000Y-103884775D01*
X159736000Y-98979000D02*
X160304000Y-98979000D01*
X159502000Y-99019000D02*
X160538000Y-99019000D01*
X159343000Y-99059000D02*
X160697000Y-99059000D01*
X159215000Y-99099000D02*
X160825000Y-99099000D01*
X159105000Y-99139000D02*
X160935000Y-99139000D01*
X159009000Y-99179000D02*
X161031000Y-99179000D01*
X158922000Y-99219000D02*
X161118000Y-99219000D01*
X158842000Y-99259000D02*
X161198000Y-99259000D01*
X161060000Y-99299000D02*
X161271000Y-99299000D01*
X158769000Y-99299000D02*
X158980000Y-99299000D01*
X161060000Y-99339000D02*
X161339000Y-99339000D01*
X158701000Y-99339000D02*
X158980000Y-99339000D01*
X161060000Y-99379000D02*
X161403000Y-99379000D01*
X158637000Y-99379000D02*
X158980000Y-99379000D01*
X161060000Y-99419000D02*
X161463000Y-99419000D01*
X158577000Y-99419000D02*
X158980000Y-99419000D01*
X161060000Y-99459000D02*
X161520000Y-99459000D01*
X158520000Y-99459000D02*
X158980000Y-99459000D01*
X161060000Y-99499000D02*
X161574000Y-99499000D01*
X158466000Y-99499000D02*
X158980000Y-99499000D01*
X161060000Y-99539000D02*
X161625000Y-99539000D01*
X158415000Y-99539000D02*
X158980000Y-99539000D01*
X161060000Y-99579000D02*
X161673000Y-99579000D01*
X158367000Y-99579000D02*
X158980000Y-99579000D01*
X161060000Y-99619000D02*
X161719000Y-99619000D01*
X158321000Y-99619000D02*
X158980000Y-99619000D01*
X161060000Y-99659000D02*
X161763000Y-99659000D01*
X158277000Y-99659000D02*
X158980000Y-99659000D01*
X161060000Y-99699000D02*
X161805000Y-99699000D01*
X158235000Y-99699000D02*
X158980000Y-99699000D01*
X161060000Y-99739000D02*
X161846000Y-99739000D01*
X158194000Y-99739000D02*
X158980000Y-99739000D01*
X161060000Y-99779000D02*
X161884000Y-99779000D01*
X158156000Y-99779000D02*
X158980000Y-99779000D01*
X161060000Y-99819000D02*
X161921000Y-99819000D01*
X158119000Y-99819000D02*
X158980000Y-99819000D01*
X161060000Y-99859000D02*
X161957000Y-99859000D01*
X158083000Y-99859000D02*
X158980000Y-99859000D01*
X161060000Y-99899000D02*
X161991000Y-99899000D01*
X158049000Y-99899000D02*
X158980000Y-99899000D01*
X161060000Y-99939000D02*
X162024000Y-99939000D01*
X158016000Y-99939000D02*
X158980000Y-99939000D01*
X161060000Y-99979000D02*
X162055000Y-99979000D01*
X157985000Y-99979000D02*
X158980000Y-99979000D01*
X161060000Y-100019000D02*
X162085000Y-100019000D01*
X157955000Y-100019000D02*
X158980000Y-100019000D01*
X161060000Y-100059000D02*
X162115000Y-100059000D01*
X157925000Y-100059000D02*
X158980000Y-100059000D01*
X161060000Y-100099000D02*
X162142000Y-100099000D01*
X157898000Y-100099000D02*
X158980000Y-100099000D01*
X161060000Y-100139000D02*
X162169000Y-100139000D01*
X157871000Y-100139000D02*
X158980000Y-100139000D01*
X161060000Y-100179000D02*
X162195000Y-100179000D01*
X157845000Y-100179000D02*
X158980000Y-100179000D01*
X161060000Y-100219000D02*
X162220000Y-100219000D01*
X157820000Y-100219000D02*
X158980000Y-100219000D01*
X161060000Y-100259000D02*
X162244000Y-100259000D01*
X157796000Y-100259000D02*
X158980000Y-100259000D01*
X161060000Y-100299000D02*
X162267000Y-100299000D01*
X157773000Y-100299000D02*
X158980000Y-100299000D01*
X161060000Y-100339000D02*
X162288000Y-100339000D01*
X157752000Y-100339000D02*
X158980000Y-100339000D01*
X161060000Y-100379000D02*
X162310000Y-100379000D01*
X157730000Y-100379000D02*
X158980000Y-100379000D01*
X161060000Y-100419000D02*
X162330000Y-100419000D01*
X157710000Y-100419000D02*
X158980000Y-100419000D01*
X161060000Y-100459000D02*
X162349000Y-100459000D01*
X157691000Y-100459000D02*
X158980000Y-100459000D01*
X161060000Y-100499000D02*
X162368000Y-100499000D01*
X157672000Y-100499000D02*
X158980000Y-100499000D01*
X161060000Y-100539000D02*
X162385000Y-100539000D01*
X157655000Y-100539000D02*
X158980000Y-100539000D01*
X161060000Y-100579000D02*
X162402000Y-100579000D01*
X157638000Y-100579000D02*
X158980000Y-100579000D01*
X161060000Y-100619000D02*
X162418000Y-100619000D01*
X157622000Y-100619000D02*
X158980000Y-100619000D01*
X161060000Y-100659000D02*
X162434000Y-100659000D01*
X157606000Y-100659000D02*
X158980000Y-100659000D01*
X161060000Y-100699000D02*
X162448000Y-100699000D01*
X157592000Y-100699000D02*
X158980000Y-100699000D01*
X161060000Y-100739000D02*
X162462000Y-100739000D01*
X157578000Y-100739000D02*
X158980000Y-100739000D01*
X161060000Y-100779000D02*
X162475000Y-100779000D01*
X157565000Y-100779000D02*
X158980000Y-100779000D01*
X161060000Y-100819000D02*
X162488000Y-100819000D01*
X157552000Y-100819000D02*
X158980000Y-100819000D01*
X161060000Y-100859000D02*
X162500000Y-100859000D01*
X157540000Y-100859000D02*
X158980000Y-100859000D01*
X161060000Y-100900000D02*
X162511000Y-100900000D01*
X157529000Y-100900000D02*
X158980000Y-100900000D01*
X161060000Y-100940000D02*
X162521000Y-100940000D01*
X157519000Y-100940000D02*
X158980000Y-100940000D01*
X161060000Y-100980000D02*
X162531000Y-100980000D01*
X157509000Y-100980000D02*
X158980000Y-100980000D01*
X161060000Y-101020000D02*
X162540000Y-101020000D01*
X157500000Y-101020000D02*
X158980000Y-101020000D01*
X161060000Y-101060000D02*
X162548000Y-101060000D01*
X157492000Y-101060000D02*
X158980000Y-101060000D01*
X161060000Y-101100000D02*
X162556000Y-101100000D01*
X157484000Y-101100000D02*
X158980000Y-101100000D01*
X161060000Y-101140000D02*
X162563000Y-101140000D01*
X157477000Y-101140000D02*
X158980000Y-101140000D01*
X161060000Y-101180000D02*
X162570000Y-101180000D01*
X157470000Y-101180000D02*
X158980000Y-101180000D01*
X161060000Y-101220000D02*
X162576000Y-101220000D01*
X157464000Y-101220000D02*
X158980000Y-101220000D01*
X161060000Y-101260000D02*
X162581000Y-101260000D01*
X157459000Y-101260000D02*
X158980000Y-101260000D01*
X161060000Y-101300000D02*
X162585000Y-101300000D01*
X157455000Y-101300000D02*
X158980000Y-101300000D01*
X161060000Y-101340000D02*
X162589000Y-101340000D01*
X157451000Y-101340000D02*
X158980000Y-101340000D01*
X157447000Y-101380000D02*
X162593000Y-101380000D01*
X157444000Y-101420000D02*
X162596000Y-101420000D01*
X157442000Y-101460000D02*
X162598000Y-101460000D01*
X157441000Y-101500000D02*
X162599000Y-101500000D01*
X157440000Y-101540000D02*
X162600000Y-101540000D01*
X157440000Y-101580000D02*
X162600000Y-101580000D01*
X162640000Y-101580000D02*
G75*
G03X162640000Y-101580000I-2620000J0D01*
G01*
X151945000Y-104174775D02*
X152445000Y-104174775D01*
X152195000Y-104424775D02*
X152195000Y-103924775D01*
X153386000Y-99019000D02*
X153954000Y-99019000D01*
X153152000Y-99059000D02*
X154188000Y-99059000D01*
X152993000Y-99099000D02*
X154347000Y-99099000D01*
X152865000Y-99139000D02*
X154475000Y-99139000D01*
X152755000Y-99179000D02*
X154585000Y-99179000D01*
X152659000Y-99219000D02*
X154681000Y-99219000D01*
X152572000Y-99259000D02*
X154768000Y-99259000D01*
X152492000Y-99299000D02*
X154848000Y-99299000D01*
X154710000Y-99339000D02*
X154921000Y-99339000D01*
X152419000Y-99339000D02*
X152630000Y-99339000D01*
X154710000Y-99379000D02*
X154989000Y-99379000D01*
X152351000Y-99379000D02*
X152630000Y-99379000D01*
X154710000Y-99419000D02*
X155053000Y-99419000D01*
X152287000Y-99419000D02*
X152630000Y-99419000D01*
X154710000Y-99459000D02*
X155113000Y-99459000D01*
X152227000Y-99459000D02*
X152630000Y-99459000D01*
X154710000Y-99499000D02*
X155170000Y-99499000D01*
X152170000Y-99499000D02*
X152630000Y-99499000D01*
X154710000Y-99539000D02*
X155224000Y-99539000D01*
X152116000Y-99539000D02*
X152630000Y-99539000D01*
X154710000Y-99579000D02*
X155275000Y-99579000D01*
X152065000Y-99579000D02*
X152630000Y-99579000D01*
X154710000Y-99619000D02*
X155323000Y-99619000D01*
X152017000Y-99619000D02*
X152630000Y-99619000D01*
X154710000Y-99659000D02*
X155369000Y-99659000D01*
X151971000Y-99659000D02*
X152630000Y-99659000D01*
X154710000Y-99699000D02*
X155413000Y-99699000D01*
X151927000Y-99699000D02*
X152630000Y-99699000D01*
X154710000Y-99739000D02*
X155455000Y-99739000D01*
X151885000Y-99739000D02*
X152630000Y-99739000D01*
X154710000Y-99779000D02*
X155496000Y-99779000D01*
X151844000Y-99779000D02*
X152630000Y-99779000D01*
X154710000Y-99819000D02*
X155534000Y-99819000D01*
X151806000Y-99819000D02*
X152630000Y-99819000D01*
X154710000Y-99859000D02*
X155571000Y-99859000D01*
X151769000Y-99859000D02*
X152630000Y-99859000D01*
X154710000Y-99899000D02*
X155607000Y-99899000D01*
X151733000Y-99899000D02*
X152630000Y-99899000D01*
X154710000Y-99939000D02*
X155641000Y-99939000D01*
X151699000Y-99939000D02*
X152630000Y-99939000D01*
X154710000Y-99979000D02*
X155674000Y-99979000D01*
X151666000Y-99979000D02*
X152630000Y-99979000D01*
X154710000Y-100019000D02*
X155705000Y-100019000D01*
X151635000Y-100019000D02*
X152630000Y-100019000D01*
X154710000Y-100059000D02*
X155735000Y-100059000D01*
X151605000Y-100059000D02*
X152630000Y-100059000D01*
X154710000Y-100099000D02*
X155765000Y-100099000D01*
X151575000Y-100099000D02*
X152630000Y-100099000D01*
X154710000Y-100139000D02*
X155792000Y-100139000D01*
X151548000Y-100139000D02*
X152630000Y-100139000D01*
X154710000Y-100179000D02*
X155819000Y-100179000D01*
X151521000Y-100179000D02*
X152630000Y-100179000D01*
X154710000Y-100219000D02*
X155845000Y-100219000D01*
X151495000Y-100219000D02*
X152630000Y-100219000D01*
X154710000Y-100259000D02*
X155870000Y-100259000D01*
X151470000Y-100259000D02*
X152630000Y-100259000D01*
X154710000Y-100299000D02*
X155894000Y-100299000D01*
X151446000Y-100299000D02*
X152630000Y-100299000D01*
X154710000Y-100339000D02*
X155917000Y-100339000D01*
X151423000Y-100339000D02*
X152630000Y-100339000D01*
X154710000Y-100379000D02*
X155938000Y-100379000D01*
X151402000Y-100379000D02*
X152630000Y-100379000D01*
X154710000Y-100419000D02*
X155960000Y-100419000D01*
X151380000Y-100419000D02*
X152630000Y-100419000D01*
X154710000Y-100459000D02*
X155980000Y-100459000D01*
X151360000Y-100459000D02*
X152630000Y-100459000D01*
X154710000Y-100499000D02*
X155999000Y-100499000D01*
X151341000Y-100499000D02*
X152630000Y-100499000D01*
X154710000Y-100539000D02*
X156018000Y-100539000D01*
X151322000Y-100539000D02*
X152630000Y-100539000D01*
X154710000Y-100579000D02*
X156035000Y-100579000D01*
X151305000Y-100579000D02*
X152630000Y-100579000D01*
X154710000Y-100619000D02*
X156052000Y-100619000D01*
X151288000Y-100619000D02*
X152630000Y-100619000D01*
X154710000Y-100659000D02*
X156068000Y-100659000D01*
X151272000Y-100659000D02*
X152630000Y-100659000D01*
X154710000Y-100699000D02*
X156084000Y-100699000D01*
X151256000Y-100699000D02*
X152630000Y-100699000D01*
X154710000Y-100739000D02*
X156098000Y-100739000D01*
X151242000Y-100739000D02*
X152630000Y-100739000D01*
X154710000Y-100779000D02*
X156112000Y-100779000D01*
X151228000Y-100779000D02*
X152630000Y-100779000D01*
X154710000Y-100819000D02*
X156125000Y-100819000D01*
X151215000Y-100819000D02*
X152630000Y-100819000D01*
X154710000Y-100859000D02*
X156138000Y-100859000D01*
X151202000Y-100859000D02*
X152630000Y-100859000D01*
X154710000Y-100899000D02*
X156150000Y-100899000D01*
X151190000Y-100899000D02*
X152630000Y-100899000D01*
X154710000Y-100940000D02*
X156161000Y-100940000D01*
X151179000Y-100940000D02*
X152630000Y-100940000D01*
X154710000Y-100980000D02*
X156171000Y-100980000D01*
X151169000Y-100980000D02*
X152630000Y-100980000D01*
X154710000Y-101020000D02*
X156181000Y-101020000D01*
X151159000Y-101020000D02*
X152630000Y-101020000D01*
X154710000Y-101060000D02*
X156190000Y-101060000D01*
X151150000Y-101060000D02*
X152630000Y-101060000D01*
X154710000Y-101100000D02*
X156198000Y-101100000D01*
X151142000Y-101100000D02*
X152630000Y-101100000D01*
X154710000Y-101140000D02*
X156206000Y-101140000D01*
X151134000Y-101140000D02*
X152630000Y-101140000D01*
X154710000Y-101180000D02*
X156213000Y-101180000D01*
X151127000Y-101180000D02*
X152630000Y-101180000D01*
X154710000Y-101220000D02*
X156220000Y-101220000D01*
X151120000Y-101220000D02*
X152630000Y-101220000D01*
X154710000Y-101260000D02*
X156226000Y-101260000D01*
X151114000Y-101260000D02*
X152630000Y-101260000D01*
X154710000Y-101300000D02*
X156231000Y-101300000D01*
X151109000Y-101300000D02*
X152630000Y-101300000D01*
X154710000Y-101340000D02*
X156235000Y-101340000D01*
X151105000Y-101340000D02*
X152630000Y-101340000D01*
X154710000Y-101380000D02*
X156239000Y-101380000D01*
X151101000Y-101380000D02*
X152630000Y-101380000D01*
X151097000Y-101420000D02*
X156243000Y-101420000D01*
X151094000Y-101460000D02*
X156246000Y-101460000D01*
X151092000Y-101500000D02*
X156248000Y-101500000D01*
X151091000Y-101540000D02*
X156249000Y-101540000D01*
X151090000Y-101580000D02*
X156250000Y-101580000D01*
X151090000Y-101620000D02*
X156250000Y-101620000D01*
X156290000Y-101620000D02*
G75*
G03X156290000Y-101620000I-2620000J0D01*
G01*
X127230000Y-92925000D02*
X127230000Y-92910000D01*
X127230000Y-95050000D02*
X127230000Y-95035000D01*
X131770000Y-92925000D02*
X131770000Y-92910000D01*
X131770000Y-95050000D02*
X131770000Y-95035000D01*
X131770000Y-92910000D02*
X127230000Y-92910000D01*
X131770000Y-95050000D02*
X127230000Y-95050000D01*
X164775000Y-94322000D02*
X164775000Y-94307000D01*
X164775000Y-96447000D02*
X164775000Y-96432000D01*
X169315000Y-94322000D02*
X169315000Y-94307000D01*
X169315000Y-96447000D02*
X169315000Y-96432000D01*
X169315000Y-94307000D02*
X164775000Y-94307000D01*
X169315000Y-96447000D02*
X164775000Y-96447000D01*
D10*
X179411380Y-90884333D02*
X180125666Y-90884333D01*
X180268523Y-90931952D01*
X180363761Y-91027190D01*
X180411380Y-91170047D01*
X180411380Y-91265285D01*
X179411380Y-90503380D02*
X179411380Y-89884333D01*
X179792333Y-90217666D01*
X179792333Y-90074809D01*
X179839952Y-89979571D01*
X179887571Y-89931952D01*
X179982809Y-89884333D01*
X180220904Y-89884333D01*
X180316142Y-89931952D01*
X180363761Y-89979571D01*
X180411380Y-90074809D01*
X180411380Y-90360523D01*
X180363761Y-90455761D01*
X180316142Y-90503380D01*
X164167619Y-109315238D02*
X164120000Y-109410476D01*
X164024761Y-109505714D01*
X163881904Y-109648571D01*
X163834285Y-109743809D01*
X163834285Y-109839047D01*
X164072380Y-109791428D02*
X164024761Y-109886666D01*
X163929523Y-109981904D01*
X163739047Y-110029523D01*
X163405714Y-110029523D01*
X163215238Y-109981904D01*
X163120000Y-109886666D01*
X163072380Y-109791428D01*
X163072380Y-109600952D01*
X163120000Y-109505714D01*
X163215238Y-109410476D01*
X163405714Y-109362857D01*
X163739047Y-109362857D01*
X163929523Y-109410476D01*
X164024761Y-109505714D01*
X164072380Y-109600952D01*
X164072380Y-109791428D01*
X163072380Y-109029523D02*
X163072380Y-108410476D01*
X163453333Y-108743809D01*
X163453333Y-108600952D01*
X163500952Y-108505714D01*
X163548571Y-108458095D01*
X163643809Y-108410476D01*
X163881904Y-108410476D01*
X163977142Y-108458095D01*
X164024761Y-108505714D01*
X164072380Y-108600952D01*
X164072380Y-108886666D01*
X164024761Y-108981904D01*
X163977142Y-109029523D01*
X120673761Y-87693333D02*
X120721380Y-87550476D01*
X120721380Y-87312380D01*
X120673761Y-87217142D01*
X120626142Y-87169523D01*
X120530904Y-87121904D01*
X120435666Y-87121904D01*
X120340428Y-87169523D01*
X120292809Y-87217142D01*
X120245190Y-87312380D01*
X120197571Y-87502857D01*
X120149952Y-87598095D01*
X120102333Y-87645714D01*
X120007095Y-87693333D01*
X119911857Y-87693333D01*
X119816619Y-87645714D01*
X119769000Y-87598095D01*
X119721380Y-87502857D01*
X119721380Y-87264761D01*
X119769000Y-87121904D01*
X119721380Y-86788571D02*
X120721380Y-86550476D01*
X120007095Y-86360000D01*
X120721380Y-86169523D01*
X119721380Y-85931428D01*
X120721380Y-85026666D02*
X120721380Y-85598095D01*
X120721380Y-85312380D02*
X119721380Y-85312380D01*
X119864238Y-85407619D01*
X119959476Y-85502857D01*
X120007095Y-85598095D01*
X123261380Y-110593095D02*
X122261380Y-110593095D01*
X122261380Y-110355000D01*
X122309000Y-110212142D01*
X122404238Y-110116904D01*
X122499476Y-110069285D01*
X122689952Y-110021666D01*
X122832809Y-110021666D01*
X123023285Y-110069285D01*
X123118523Y-110116904D01*
X123213761Y-110212142D01*
X123261380Y-110355000D01*
X123261380Y-110593095D01*
X122261380Y-109688333D02*
X122261380Y-109069285D01*
X122642333Y-109402619D01*
X122642333Y-109259761D01*
X122689952Y-109164523D01*
X122737571Y-109116904D01*
X122832809Y-109069285D01*
X123070904Y-109069285D01*
X123166142Y-109116904D01*
X123213761Y-109164523D01*
X123261380Y-109259761D01*
X123261380Y-109545476D01*
X123213761Y-109640714D01*
X123166142Y-109688333D01*
X125976095Y-110180380D02*
X125976095Y-109180380D01*
X126547523Y-110180380D02*
X126118952Y-109608952D01*
X126547523Y-109180380D02*
X125976095Y-109751809D01*
X154249380Y-120022857D02*
X153773190Y-120356190D01*
X154249380Y-120594285D02*
X153249380Y-120594285D01*
X153249380Y-120213333D01*
X153297000Y-120118095D01*
X153344619Y-120070476D01*
X153439857Y-120022857D01*
X153582714Y-120022857D01*
X153677952Y-120070476D01*
X153725571Y-120118095D01*
X153773190Y-120213333D01*
X153773190Y-120594285D01*
X154249380Y-119070476D02*
X154249380Y-119641904D01*
X154249380Y-119356190D02*
X153249380Y-119356190D01*
X153392238Y-119451428D01*
X153487476Y-119546666D01*
X153535095Y-119641904D01*
X153249380Y-118737142D02*
X153249380Y-118118095D01*
X153630333Y-118451428D01*
X153630333Y-118308571D01*
X153677952Y-118213333D01*
X153725571Y-118165714D01*
X153820809Y-118118095D01*
X154058904Y-118118095D01*
X154154142Y-118165714D01*
X154201761Y-118213333D01*
X154249380Y-118308571D01*
X154249380Y-118594285D01*
X154201761Y-118689523D01*
X154154142Y-118737142D01*
X111633095Y-105243380D02*
X111633095Y-106052904D01*
X111680714Y-106148142D01*
X111728333Y-106195761D01*
X111823571Y-106243380D01*
X112014047Y-106243380D01*
X112109285Y-106195761D01*
X112156904Y-106148142D01*
X112204523Y-106052904D01*
X112204523Y-105243380D01*
X113204523Y-106243380D02*
X112633095Y-106243380D01*
X112918809Y-106243380D02*
X112918809Y-105243380D01*
X112823571Y-105386238D01*
X112728333Y-105481476D01*
X112633095Y-105529095D01*
X144613333Y-98115380D02*
X144280000Y-97639190D01*
X144041904Y-98115380D02*
X144041904Y-97115380D01*
X144422857Y-97115380D01*
X144518095Y-97163000D01*
X144565714Y-97210619D01*
X144613333Y-97305857D01*
X144613333Y-97448714D01*
X144565714Y-97543952D01*
X144518095Y-97591571D01*
X144422857Y-97639190D01*
X144041904Y-97639190D01*
X145565714Y-98115380D02*
X144994285Y-98115380D01*
X145280000Y-98115380D02*
X145280000Y-97115380D01*
X145184761Y-97258238D01*
X145089523Y-97353476D01*
X144994285Y-97401095D01*
X175748333Y-93782142D02*
X175700714Y-93829761D01*
X175557857Y-93877380D01*
X175462619Y-93877380D01*
X175319761Y-93829761D01*
X175224523Y-93734523D01*
X175176904Y-93639285D01*
X175129285Y-93448809D01*
X175129285Y-93305952D01*
X175176904Y-93115476D01*
X175224523Y-93020238D01*
X175319761Y-92925000D01*
X175462619Y-92877380D01*
X175557857Y-92877380D01*
X175700714Y-92925000D01*
X175748333Y-92972619D01*
X176700714Y-93877380D02*
X176129285Y-93877380D01*
X176415000Y-93877380D02*
X176415000Y-92877380D01*
X176319761Y-93020238D01*
X176224523Y-93115476D01*
X176129285Y-93163095D01*
X116403380Y-86828238D02*
X115927190Y-87161571D01*
X116403380Y-87399666D02*
X115403380Y-87399666D01*
X115403380Y-87018714D01*
X115451000Y-86923476D01*
X115498619Y-86875857D01*
X115593857Y-86828238D01*
X115736714Y-86828238D01*
X115831952Y-86875857D01*
X115879571Y-86923476D01*
X115927190Y-87018714D01*
X115927190Y-87399666D01*
X115403380Y-86542523D02*
X116403380Y-86209190D01*
X115403380Y-85875857D01*
X115736714Y-85113952D02*
X116403380Y-85113952D01*
X115355761Y-85352047D02*
X116070047Y-85590142D01*
X116070047Y-84971095D01*
X144343380Y-102322238D02*
X143867190Y-102655571D01*
X144343380Y-102893666D02*
X143343380Y-102893666D01*
X143343380Y-102512714D01*
X143391000Y-102417476D01*
X143438619Y-102369857D01*
X143533857Y-102322238D01*
X143676714Y-102322238D01*
X143771952Y-102369857D01*
X143819571Y-102417476D01*
X143867190Y-102512714D01*
X143867190Y-102893666D01*
X143343380Y-102036523D02*
X144343380Y-101703190D01*
X143343380Y-101369857D01*
X143343380Y-101131761D02*
X143343380Y-100512714D01*
X143724333Y-100846047D01*
X143724333Y-100703190D01*
X143771952Y-100607952D01*
X143819571Y-100560333D01*
X143914809Y-100512714D01*
X144152904Y-100512714D01*
X144248142Y-100560333D01*
X144295761Y-100607952D01*
X144343380Y-100703190D01*
X144343380Y-100988904D01*
X144295761Y-101084142D01*
X144248142Y-101131761D01*
X140362380Y-86955238D02*
X139886190Y-87288571D01*
X140362380Y-87526666D02*
X139362380Y-87526666D01*
X139362380Y-87145714D01*
X139410000Y-87050476D01*
X139457619Y-87002857D01*
X139552857Y-86955238D01*
X139695714Y-86955238D01*
X139790952Y-87002857D01*
X139838571Y-87050476D01*
X139886190Y-87145714D01*
X139886190Y-87526666D01*
X139362380Y-86669523D02*
X140362380Y-86336190D01*
X139362380Y-86002857D01*
X139457619Y-85717142D02*
X139410000Y-85669523D01*
X139362380Y-85574285D01*
X139362380Y-85336190D01*
X139410000Y-85240952D01*
X139457619Y-85193333D01*
X139552857Y-85145714D01*
X139648095Y-85145714D01*
X139790952Y-85193333D01*
X140362380Y-85764761D01*
X140362380Y-85145714D01*
X144343380Y-112736238D02*
X143867190Y-113069571D01*
X144343380Y-113307666D02*
X143343380Y-113307666D01*
X143343380Y-112926714D01*
X143391000Y-112831476D01*
X143438619Y-112783857D01*
X143533857Y-112736238D01*
X143676714Y-112736238D01*
X143771952Y-112783857D01*
X143819571Y-112831476D01*
X143867190Y-112926714D01*
X143867190Y-113307666D01*
X143343380Y-112450523D02*
X144343380Y-112117190D01*
X143343380Y-111783857D01*
X144343380Y-110926714D02*
X144343380Y-111498142D01*
X144343380Y-111212428D02*
X143343380Y-111212428D01*
X143486238Y-111307666D01*
X143581476Y-111402904D01*
X143629095Y-111498142D01*
X97142380Y-116847857D02*
X96666190Y-117181190D01*
X97142380Y-117419285D02*
X96142380Y-117419285D01*
X96142380Y-117038333D01*
X96190000Y-116943095D01*
X96237619Y-116895476D01*
X96332857Y-116847857D01*
X96475714Y-116847857D01*
X96570952Y-116895476D01*
X96618571Y-116943095D01*
X96666190Y-117038333D01*
X96666190Y-117419285D01*
X97142380Y-115895476D02*
X97142380Y-116466904D01*
X97142380Y-116181190D02*
X96142380Y-116181190D01*
X96285238Y-116276428D01*
X96380476Y-116371666D01*
X96428095Y-116466904D01*
X96570952Y-115324047D02*
X96523333Y-115419285D01*
X96475714Y-115466904D01*
X96380476Y-115514523D01*
X96332857Y-115514523D01*
X96237619Y-115466904D01*
X96190000Y-115419285D01*
X96142380Y-115324047D01*
X96142380Y-115133571D01*
X96190000Y-115038333D01*
X96237619Y-114990714D01*
X96332857Y-114943095D01*
X96380476Y-114943095D01*
X96475714Y-114990714D01*
X96523333Y-115038333D01*
X96570952Y-115133571D01*
X96570952Y-115324047D01*
X96618571Y-115419285D01*
X96666190Y-115466904D01*
X96761428Y-115514523D01*
X96951904Y-115514523D01*
X97047142Y-115466904D01*
X97094761Y-115419285D01*
X97142380Y-115324047D01*
X97142380Y-115133571D01*
X97094761Y-115038333D01*
X97047142Y-114990714D01*
X96951904Y-114943095D01*
X96761428Y-114943095D01*
X96666190Y-114990714D01*
X96618571Y-115038333D01*
X96570952Y-115133571D01*
X103957380Y-107195857D02*
X103481190Y-107529190D01*
X103957380Y-107767285D02*
X102957380Y-107767285D01*
X102957380Y-107386333D01*
X103005000Y-107291095D01*
X103052619Y-107243476D01*
X103147857Y-107195857D01*
X103290714Y-107195857D01*
X103385952Y-107243476D01*
X103433571Y-107291095D01*
X103481190Y-107386333D01*
X103481190Y-107767285D01*
X103957380Y-106243476D02*
X103957380Y-106814904D01*
X103957380Y-106529190D02*
X102957380Y-106529190D01*
X103100238Y-106624428D01*
X103195476Y-106719666D01*
X103243095Y-106814904D01*
X102957380Y-105910142D02*
X102957380Y-105243476D01*
X103957380Y-105672047D01*
X151074380Y-120022857D02*
X150598190Y-120356190D01*
X151074380Y-120594285D02*
X150074380Y-120594285D01*
X150074380Y-120213333D01*
X150122000Y-120118095D01*
X150169619Y-120070476D01*
X150264857Y-120022857D01*
X150407714Y-120022857D01*
X150502952Y-120070476D01*
X150550571Y-120118095D01*
X150598190Y-120213333D01*
X150598190Y-120594285D01*
X151074380Y-119070476D02*
X151074380Y-119641904D01*
X151074380Y-119356190D02*
X150074380Y-119356190D01*
X150217238Y-119451428D01*
X150312476Y-119546666D01*
X150360095Y-119641904D01*
X150074380Y-118213333D02*
X150074380Y-118403809D01*
X150122000Y-118499047D01*
X150169619Y-118546666D01*
X150312476Y-118641904D01*
X150502952Y-118689523D01*
X150883904Y-118689523D01*
X150979142Y-118641904D01*
X151026761Y-118594285D01*
X151074380Y-118499047D01*
X151074380Y-118308571D01*
X151026761Y-118213333D01*
X150979142Y-118165714D01*
X150883904Y-118118095D01*
X150645809Y-118118095D01*
X150550571Y-118165714D01*
X150502952Y-118213333D01*
X150455333Y-118308571D01*
X150455333Y-118499047D01*
X150502952Y-118594285D01*
X150550571Y-118641904D01*
X150645809Y-118689523D01*
X112133142Y-122880380D02*
X111799809Y-122404190D01*
X111561714Y-122880380D02*
X111561714Y-121880380D01*
X111942666Y-121880380D01*
X112037904Y-121928000D01*
X112085523Y-121975619D01*
X112133142Y-122070857D01*
X112133142Y-122213714D01*
X112085523Y-122308952D01*
X112037904Y-122356571D01*
X111942666Y-122404190D01*
X111561714Y-122404190D01*
X113085523Y-122880380D02*
X112514095Y-122880380D01*
X112799809Y-122880380D02*
X112799809Y-121880380D01*
X112704571Y-122023238D01*
X112609333Y-122118476D01*
X112514095Y-122166095D01*
X113990285Y-121880380D02*
X113514095Y-121880380D01*
X113466476Y-122356571D01*
X113514095Y-122308952D01*
X113609333Y-122261333D01*
X113847428Y-122261333D01*
X113942666Y-122308952D01*
X113990285Y-122356571D01*
X114037904Y-122451809D01*
X114037904Y-122689904D01*
X113990285Y-122785142D01*
X113942666Y-122832761D01*
X113847428Y-122880380D01*
X113609333Y-122880380D01*
X113514095Y-122832761D01*
X113466476Y-122785142D01*
X157424380Y-120022857D02*
X156948190Y-120356190D01*
X157424380Y-120594285D02*
X156424380Y-120594285D01*
X156424380Y-120213333D01*
X156472000Y-120118095D01*
X156519619Y-120070476D01*
X156614857Y-120022857D01*
X156757714Y-120022857D01*
X156852952Y-120070476D01*
X156900571Y-120118095D01*
X156948190Y-120213333D01*
X156948190Y-120594285D01*
X157424380Y-119070476D02*
X157424380Y-119641904D01*
X157424380Y-119356190D02*
X156424380Y-119356190D01*
X156567238Y-119451428D01*
X156662476Y-119546666D01*
X156710095Y-119641904D01*
X156757714Y-118213333D02*
X157424380Y-118213333D01*
X156376761Y-118451428D02*
X157091047Y-118689523D01*
X157091047Y-118070476D01*
X160472380Y-120022857D02*
X159996190Y-120356190D01*
X160472380Y-120594285D02*
X159472380Y-120594285D01*
X159472380Y-120213333D01*
X159520000Y-120118095D01*
X159567619Y-120070476D01*
X159662857Y-120022857D01*
X159805714Y-120022857D01*
X159900952Y-120070476D01*
X159948571Y-120118095D01*
X159996190Y-120213333D01*
X159996190Y-120594285D01*
X160472380Y-119070476D02*
X160472380Y-119641904D01*
X160472380Y-119356190D02*
X159472380Y-119356190D01*
X159615238Y-119451428D01*
X159710476Y-119546666D01*
X159758095Y-119641904D01*
X159567619Y-118689523D02*
X159520000Y-118641904D01*
X159472380Y-118546666D01*
X159472380Y-118308571D01*
X159520000Y-118213333D01*
X159567619Y-118165714D01*
X159662857Y-118118095D01*
X159758095Y-118118095D01*
X159900952Y-118165714D01*
X160472380Y-118737142D01*
X160472380Y-118118095D01*
X158615142Y-95956380D02*
X158281809Y-95480190D01*
X158043714Y-95956380D02*
X158043714Y-94956380D01*
X158424666Y-94956380D01*
X158519904Y-95004000D01*
X158567523Y-95051619D01*
X158615142Y-95146857D01*
X158615142Y-95289714D01*
X158567523Y-95384952D01*
X158519904Y-95432571D01*
X158424666Y-95480190D01*
X158043714Y-95480190D01*
X159567523Y-95956380D02*
X158996095Y-95956380D01*
X159281809Y-95956380D02*
X159281809Y-94956380D01*
X159186571Y-95099238D01*
X159091333Y-95194476D01*
X158996095Y-95242095D01*
X160519904Y-95956380D02*
X159948476Y-95956380D01*
X160234190Y-95956380D02*
X160234190Y-94956380D01*
X160138952Y-95099238D01*
X160043714Y-95194476D01*
X159948476Y-95242095D01*
X97142380Y-104147857D02*
X96666190Y-104481190D01*
X97142380Y-104719285D02*
X96142380Y-104719285D01*
X96142380Y-104338333D01*
X96190000Y-104243095D01*
X96237619Y-104195476D01*
X96332857Y-104147857D01*
X96475714Y-104147857D01*
X96570952Y-104195476D01*
X96618571Y-104243095D01*
X96666190Y-104338333D01*
X96666190Y-104719285D01*
X97142380Y-103195476D02*
X97142380Y-103766904D01*
X97142380Y-103481190D02*
X96142380Y-103481190D01*
X96285238Y-103576428D01*
X96380476Y-103671666D01*
X96428095Y-103766904D01*
X96142380Y-102576428D02*
X96142380Y-102481190D01*
X96190000Y-102385952D01*
X96237619Y-102338333D01*
X96332857Y-102290714D01*
X96523333Y-102243095D01*
X96761428Y-102243095D01*
X96951904Y-102290714D01*
X97047142Y-102338333D01*
X97094761Y-102385952D01*
X97142380Y-102481190D01*
X97142380Y-102576428D01*
X97094761Y-102671666D01*
X97047142Y-102719285D01*
X96951904Y-102766904D01*
X96761428Y-102814523D01*
X96523333Y-102814523D01*
X96332857Y-102766904D01*
X96237619Y-102719285D01*
X96190000Y-102671666D01*
X96142380Y-102576428D01*
X116673333Y-97480380D02*
X116340000Y-97004190D01*
X116101904Y-97480380D02*
X116101904Y-96480380D01*
X116482857Y-96480380D01*
X116578095Y-96528000D01*
X116625714Y-96575619D01*
X116673333Y-96670857D01*
X116673333Y-96813714D01*
X116625714Y-96908952D01*
X116578095Y-96956571D01*
X116482857Y-97004190D01*
X116101904Y-97004190D01*
X117149523Y-97480380D02*
X117340000Y-97480380D01*
X117435238Y-97432761D01*
X117482857Y-97385142D01*
X117578095Y-97242285D01*
X117625714Y-97051809D01*
X117625714Y-96670857D01*
X117578095Y-96575619D01*
X117530476Y-96528000D01*
X117435238Y-96480380D01*
X117244761Y-96480380D01*
X117149523Y-96528000D01*
X117101904Y-96575619D01*
X117054285Y-96670857D01*
X117054285Y-96908952D01*
X117101904Y-97004190D01*
X117149523Y-97051809D01*
X117244761Y-97099428D01*
X117435238Y-97099428D01*
X117530476Y-97051809D01*
X117578095Y-97004190D01*
X117625714Y-96908952D01*
X118943380Y-106084666D02*
X118467190Y-106418000D01*
X118943380Y-106656095D02*
X117943380Y-106656095D01*
X117943380Y-106275142D01*
X117991000Y-106179904D01*
X118038619Y-106132285D01*
X118133857Y-106084666D01*
X118276714Y-106084666D01*
X118371952Y-106132285D01*
X118419571Y-106179904D01*
X118467190Y-106275142D01*
X118467190Y-106656095D01*
X118371952Y-105513238D02*
X118324333Y-105608476D01*
X118276714Y-105656095D01*
X118181476Y-105703714D01*
X118133857Y-105703714D01*
X118038619Y-105656095D01*
X117991000Y-105608476D01*
X117943380Y-105513238D01*
X117943380Y-105322761D01*
X117991000Y-105227523D01*
X118038619Y-105179904D01*
X118133857Y-105132285D01*
X118181476Y-105132285D01*
X118276714Y-105179904D01*
X118324333Y-105227523D01*
X118371952Y-105322761D01*
X118371952Y-105513238D01*
X118419571Y-105608476D01*
X118467190Y-105656095D01*
X118562428Y-105703714D01*
X118752904Y-105703714D01*
X118848142Y-105656095D01*
X118895761Y-105608476D01*
X118943380Y-105513238D01*
X118943380Y-105322761D01*
X118895761Y-105227523D01*
X118848142Y-105179904D01*
X118752904Y-105132285D01*
X118562428Y-105132285D01*
X118467190Y-105179904D01*
X118419571Y-105227523D01*
X118371952Y-105322761D01*
X116673333Y-89522380D02*
X116340000Y-89046190D01*
X116101904Y-89522380D02*
X116101904Y-88522380D01*
X116482857Y-88522380D01*
X116578095Y-88570000D01*
X116625714Y-88617619D01*
X116673333Y-88712857D01*
X116673333Y-88855714D01*
X116625714Y-88950952D01*
X116578095Y-88998571D01*
X116482857Y-89046190D01*
X116101904Y-89046190D01*
X117006666Y-88522380D02*
X117673333Y-88522380D01*
X117244761Y-89522380D01*
X123261380Y-106719666D02*
X122785190Y-107053000D01*
X123261380Y-107291095D02*
X122261380Y-107291095D01*
X122261380Y-106910142D01*
X122309000Y-106814904D01*
X122356619Y-106767285D01*
X122451857Y-106719666D01*
X122594714Y-106719666D01*
X122689952Y-106767285D01*
X122737571Y-106814904D01*
X122785190Y-106910142D01*
X122785190Y-107291095D01*
X122261380Y-105862523D02*
X122261380Y-106053000D01*
X122309000Y-106148238D01*
X122356619Y-106195857D01*
X122499476Y-106291095D01*
X122689952Y-106338714D01*
X123070904Y-106338714D01*
X123166142Y-106291095D01*
X123213761Y-106243476D01*
X123261380Y-106148238D01*
X123261380Y-105957761D01*
X123213761Y-105862523D01*
X123166142Y-105814904D01*
X123070904Y-105767285D01*
X122832809Y-105767285D01*
X122737571Y-105814904D01*
X122689952Y-105862523D01*
X122642333Y-105957761D01*
X122642333Y-106148238D01*
X122689952Y-106243476D01*
X122737571Y-106291095D01*
X122832809Y-106338714D01*
X122261333Y-104973380D02*
X121928000Y-104497190D01*
X121689904Y-104973380D02*
X121689904Y-103973380D01*
X122070857Y-103973380D01*
X122166095Y-104021000D01*
X122213714Y-104068619D01*
X122261333Y-104163857D01*
X122261333Y-104306714D01*
X122213714Y-104401952D01*
X122166095Y-104449571D01*
X122070857Y-104497190D01*
X121689904Y-104497190D01*
X123166095Y-103973380D02*
X122689904Y-103973380D01*
X122642285Y-104449571D01*
X122689904Y-104401952D01*
X122785142Y-104354333D01*
X123023238Y-104354333D01*
X123118476Y-104401952D01*
X123166095Y-104449571D01*
X123213714Y-104544809D01*
X123213714Y-104782904D01*
X123166095Y-104878142D01*
X123118476Y-104925761D01*
X123023238Y-104973380D01*
X122785142Y-104973380D01*
X122689904Y-104925761D01*
X122642285Y-104878142D01*
X122134333Y-97480380D02*
X121801000Y-97004190D01*
X121562904Y-97480380D02*
X121562904Y-96480380D01*
X121943857Y-96480380D01*
X122039095Y-96528000D01*
X122086714Y-96575619D01*
X122134333Y-96670857D01*
X122134333Y-96813714D01*
X122086714Y-96908952D01*
X122039095Y-96956571D01*
X121943857Y-97004190D01*
X121562904Y-97004190D01*
X122991476Y-96813714D02*
X122991476Y-97480380D01*
X122753380Y-96432761D02*
X122515285Y-97147047D01*
X123134333Y-97147047D01*
X123261380Y-99099666D02*
X122785190Y-99433000D01*
X123261380Y-99671095D02*
X122261380Y-99671095D01*
X122261380Y-99290142D01*
X122309000Y-99194904D01*
X122356619Y-99147285D01*
X122451857Y-99099666D01*
X122594714Y-99099666D01*
X122689952Y-99147285D01*
X122737571Y-99194904D01*
X122785190Y-99290142D01*
X122785190Y-99671095D01*
X122261380Y-98766333D02*
X122261380Y-98147285D01*
X122642333Y-98480619D01*
X122642333Y-98337761D01*
X122689952Y-98242523D01*
X122737571Y-98194904D01*
X122832809Y-98147285D01*
X123070904Y-98147285D01*
X123166142Y-98194904D01*
X123213761Y-98242523D01*
X123261380Y-98337761D01*
X123261380Y-98623476D01*
X123213761Y-98718714D01*
X123166142Y-98766333D01*
X149693333Y-90157380D02*
X149360000Y-89681190D01*
X149121904Y-90157380D02*
X149121904Y-89157380D01*
X149502857Y-89157380D01*
X149598095Y-89205000D01*
X149645714Y-89252619D01*
X149693333Y-89347857D01*
X149693333Y-89490714D01*
X149645714Y-89585952D01*
X149598095Y-89633571D01*
X149502857Y-89681190D01*
X149121904Y-89681190D01*
X150074285Y-89252619D02*
X150121904Y-89205000D01*
X150217142Y-89157380D01*
X150455238Y-89157380D01*
X150550476Y-89205000D01*
X150598095Y-89252619D01*
X150645714Y-89347857D01*
X150645714Y-89443095D01*
X150598095Y-89585952D01*
X150026666Y-90157380D01*
X150645714Y-90157380D01*
X164167619Y-116935238D02*
X164120000Y-117030476D01*
X164024761Y-117125714D01*
X163881904Y-117268571D01*
X163834285Y-117363809D01*
X163834285Y-117459047D01*
X164072380Y-117411428D02*
X164024761Y-117506666D01*
X163929523Y-117601904D01*
X163739047Y-117649523D01*
X163405714Y-117649523D01*
X163215238Y-117601904D01*
X163120000Y-117506666D01*
X163072380Y-117411428D01*
X163072380Y-117220952D01*
X163120000Y-117125714D01*
X163215238Y-117030476D01*
X163405714Y-116982857D01*
X163739047Y-116982857D01*
X163929523Y-117030476D01*
X164024761Y-117125714D01*
X164072380Y-117220952D01*
X164072380Y-117411428D01*
X163167619Y-116601904D02*
X163120000Y-116554285D01*
X163072380Y-116459047D01*
X163072380Y-116220952D01*
X163120000Y-116125714D01*
X163167619Y-116078095D01*
X163262857Y-116030476D01*
X163358095Y-116030476D01*
X163500952Y-116078095D01*
X164072380Y-116649523D01*
X164072380Y-116030476D01*
X171481761Y-103036619D02*
X171386523Y-102989000D01*
X171291285Y-102893761D01*
X171148428Y-102750904D01*
X171053190Y-102703285D01*
X170957952Y-102703285D01*
X171005571Y-102941380D02*
X170910333Y-102893761D01*
X170815095Y-102798523D01*
X170767476Y-102608047D01*
X170767476Y-102274714D01*
X170815095Y-102084238D01*
X170910333Y-101989000D01*
X171005571Y-101941380D01*
X171196047Y-101941380D01*
X171291285Y-101989000D01*
X171386523Y-102084238D01*
X171434142Y-102274714D01*
X171434142Y-102608047D01*
X171386523Y-102798523D01*
X171291285Y-102893761D01*
X171196047Y-102941380D01*
X171005571Y-102941380D01*
X172386523Y-102941380D02*
X171815095Y-102941380D01*
X172100809Y-102941380D02*
X172100809Y-101941380D01*
X172005571Y-102084238D01*
X171910333Y-102179476D01*
X171815095Y-102227095D01*
X102957380Y-86566333D02*
X103671666Y-86566333D01*
X103814523Y-86613952D01*
X103909761Y-86709190D01*
X103957380Y-86852047D01*
X103957380Y-86947285D01*
X103052619Y-86137761D02*
X103005000Y-86090142D01*
X102957380Y-85994904D01*
X102957380Y-85756809D01*
X103005000Y-85661571D01*
X103052619Y-85613952D01*
X103147857Y-85566333D01*
X103243095Y-85566333D01*
X103385952Y-85613952D01*
X103957380Y-86185380D01*
X103957380Y-85566333D01*
X167600380Y-88852333D02*
X168314666Y-88852333D01*
X168457523Y-88899952D01*
X168552761Y-88995190D01*
X168600380Y-89138047D01*
X168600380Y-89233285D01*
X168600380Y-87852333D02*
X168600380Y-88423761D01*
X168600380Y-88138047D02*
X167600380Y-88138047D01*
X167743238Y-88233285D01*
X167838476Y-88328523D01*
X167886095Y-88423761D01*
X123134380Y-113895095D02*
X122134380Y-113895095D01*
X122134380Y-113657000D01*
X122182000Y-113514142D01*
X122277238Y-113418904D01*
X122372476Y-113371285D01*
X122562952Y-113323666D01*
X122705809Y-113323666D01*
X122896285Y-113371285D01*
X122991523Y-113418904D01*
X123086761Y-113514142D01*
X123134380Y-113657000D01*
X123134380Y-113895095D01*
X122229619Y-112942714D02*
X122182000Y-112895095D01*
X122134380Y-112799857D01*
X122134380Y-112561761D01*
X122182000Y-112466523D01*
X122229619Y-112418904D01*
X122324857Y-112371285D01*
X122420095Y-112371285D01*
X122562952Y-112418904D01*
X123134380Y-112990333D01*
X123134380Y-112371285D01*
X126103095Y-113609380D02*
X126103095Y-112609380D01*
X126674523Y-113609380D02*
X126245952Y-113037952D01*
X126674523Y-112609380D02*
X126103095Y-113180809D01*
X123261380Y-116943095D02*
X122261380Y-116943095D01*
X122261380Y-116705000D01*
X122309000Y-116562142D01*
X122404238Y-116466904D01*
X122499476Y-116419285D01*
X122689952Y-116371666D01*
X122832809Y-116371666D01*
X123023285Y-116419285D01*
X123118523Y-116466904D01*
X123213761Y-116562142D01*
X123261380Y-116705000D01*
X123261380Y-116943095D01*
X123261380Y-115419285D02*
X123261380Y-115990714D01*
X123261380Y-115705000D02*
X122261380Y-115705000D01*
X122404238Y-115800238D01*
X122499476Y-115895476D01*
X122547095Y-115990714D01*
X126103095Y-116657380D02*
X126103095Y-115657380D01*
X126674523Y-116657380D02*
X126245952Y-116085952D01*
X126674523Y-115657380D02*
X126103095Y-116228809D01*
X123817142Y-91797142D02*
X123769523Y-91844761D01*
X123626666Y-91892380D01*
X123531428Y-91892380D01*
X123388571Y-91844761D01*
X123293333Y-91749523D01*
X123245714Y-91654285D01*
X123198095Y-91463809D01*
X123198095Y-91320952D01*
X123245714Y-91130476D01*
X123293333Y-91035238D01*
X123388571Y-90940000D01*
X123531428Y-90892380D01*
X123626666Y-90892380D01*
X123769523Y-90940000D01*
X123817142Y-90987619D01*
X124769523Y-91892380D02*
X124198095Y-91892380D01*
X124483809Y-91892380D02*
X124483809Y-90892380D01*
X124388571Y-91035238D01*
X124293333Y-91130476D01*
X124198095Y-91178095D01*
X125102857Y-90892380D02*
X125721904Y-90892380D01*
X125388571Y-91273333D01*
X125531428Y-91273333D01*
X125626666Y-91320952D01*
X125674285Y-91368571D01*
X125721904Y-91463809D01*
X125721904Y-91701904D01*
X125674285Y-91797142D01*
X125626666Y-91844761D01*
X125531428Y-91892380D01*
X125245714Y-91892380D01*
X125150476Y-91844761D01*
X125102857Y-91797142D01*
X95667142Y-94007857D02*
X95714761Y-94055476D01*
X95762380Y-94198333D01*
X95762380Y-94293571D01*
X95714761Y-94436428D01*
X95619523Y-94531666D01*
X95524285Y-94579285D01*
X95333809Y-94626904D01*
X95190952Y-94626904D01*
X95000476Y-94579285D01*
X94905238Y-94531666D01*
X94810000Y-94436428D01*
X94762380Y-94293571D01*
X94762380Y-94198333D01*
X94810000Y-94055476D01*
X94857619Y-94007857D01*
X95762380Y-93055476D02*
X95762380Y-93626904D01*
X95762380Y-93341190D02*
X94762380Y-93341190D01*
X94905238Y-93436428D01*
X95000476Y-93531666D01*
X95048095Y-93626904D01*
X94857619Y-92674523D02*
X94810000Y-92626904D01*
X94762380Y-92531666D01*
X94762380Y-92293571D01*
X94810000Y-92198333D01*
X94857619Y-92150714D01*
X94952857Y-92103095D01*
X95048095Y-92103095D01*
X95190952Y-92150714D01*
X95762380Y-92722142D01*
X95762380Y-92103095D01*
X103370142Y-101957142D02*
X103322523Y-102004761D01*
X103179666Y-102052380D01*
X103084428Y-102052380D01*
X102941571Y-102004761D01*
X102846333Y-101909523D01*
X102798714Y-101814285D01*
X102751095Y-101623809D01*
X102751095Y-101480952D01*
X102798714Y-101290476D01*
X102846333Y-101195238D01*
X102941571Y-101100000D01*
X103084428Y-101052380D01*
X103179666Y-101052380D01*
X103322523Y-101100000D01*
X103370142Y-101147619D01*
X104322523Y-102052380D02*
X103751095Y-102052380D01*
X104036809Y-102052380D02*
X104036809Y-101052380D01*
X103941571Y-101195238D01*
X103846333Y-101290476D01*
X103751095Y-101338095D01*
X105274904Y-102052380D02*
X104703476Y-102052380D01*
X104989190Y-102052380D02*
X104989190Y-101052380D01*
X104893952Y-101195238D01*
X104798714Y-101290476D01*
X104703476Y-101338095D01*
X103481142Y-93967857D02*
X103528761Y-94015476D01*
X103576380Y-94158333D01*
X103576380Y-94253571D01*
X103528761Y-94396428D01*
X103433523Y-94491666D01*
X103338285Y-94539285D01*
X103147809Y-94586904D01*
X103004952Y-94586904D01*
X102814476Y-94539285D01*
X102719238Y-94491666D01*
X102624000Y-94396428D01*
X102576380Y-94253571D01*
X102576380Y-94158333D01*
X102624000Y-94015476D01*
X102671619Y-93967857D01*
X103576380Y-93015476D02*
X103576380Y-93586904D01*
X103576380Y-93301190D02*
X102576380Y-93301190D01*
X102719238Y-93396428D01*
X102814476Y-93491666D01*
X102862095Y-93586904D01*
X102576380Y-92396428D02*
X102576380Y-92301190D01*
X102624000Y-92205952D01*
X102671619Y-92158333D01*
X102766857Y-92110714D01*
X102957333Y-92063095D01*
X103195428Y-92063095D01*
X103385904Y-92110714D01*
X103481142Y-92158333D01*
X103528761Y-92205952D01*
X103576380Y-92301190D01*
X103576380Y-92396428D01*
X103528761Y-92491666D01*
X103481142Y-92539285D01*
X103385904Y-92586904D01*
X103195428Y-92634523D01*
X102957333Y-92634523D01*
X102766857Y-92586904D01*
X102671619Y-92539285D01*
X102624000Y-92491666D01*
X102576380Y-92396428D01*
X158202333Y-87352142D02*
X158154714Y-87399761D01*
X158011857Y-87447380D01*
X157916619Y-87447380D01*
X157773761Y-87399761D01*
X157678523Y-87304523D01*
X157630904Y-87209285D01*
X157583285Y-87018809D01*
X157583285Y-86875952D01*
X157630904Y-86685476D01*
X157678523Y-86590238D01*
X157773761Y-86495000D01*
X157916619Y-86447380D01*
X158011857Y-86447380D01*
X158154714Y-86495000D01*
X158202333Y-86542619D01*
X158678523Y-87447380D02*
X158869000Y-87447380D01*
X158964238Y-87399761D01*
X159011857Y-87352142D01*
X159107095Y-87209285D01*
X159154714Y-87018809D01*
X159154714Y-86637857D01*
X159107095Y-86542619D01*
X159059476Y-86495000D01*
X158964238Y-86447380D01*
X158773761Y-86447380D01*
X158678523Y-86495000D01*
X158630904Y-86542619D01*
X158583285Y-86637857D01*
X158583285Y-86875952D01*
X158630904Y-86971190D01*
X158678523Y-87018809D01*
X158773761Y-87066428D01*
X158964238Y-87066428D01*
X159059476Y-87018809D01*
X159107095Y-86971190D01*
X159154714Y-86875952D01*
X115784333Y-102084142D02*
X115736714Y-102131761D01*
X115593857Y-102179380D01*
X115498619Y-102179380D01*
X115355761Y-102131761D01*
X115260523Y-102036523D01*
X115212904Y-101941285D01*
X115165285Y-101750809D01*
X115165285Y-101607952D01*
X115212904Y-101417476D01*
X115260523Y-101322238D01*
X115355761Y-101227000D01*
X115498619Y-101179380D01*
X115593857Y-101179380D01*
X115736714Y-101227000D01*
X115784333Y-101274619D01*
X116355761Y-101607952D02*
X116260523Y-101560333D01*
X116212904Y-101512714D01*
X116165285Y-101417476D01*
X116165285Y-101369857D01*
X116212904Y-101274619D01*
X116260523Y-101227000D01*
X116355761Y-101179380D01*
X116546238Y-101179380D01*
X116641476Y-101227000D01*
X116689095Y-101274619D01*
X116736714Y-101369857D01*
X116736714Y-101417476D01*
X116689095Y-101512714D01*
X116641476Y-101560333D01*
X116546238Y-101607952D01*
X116355761Y-101607952D01*
X116260523Y-101655571D01*
X116212904Y-101703190D01*
X116165285Y-101798428D01*
X116165285Y-101988904D01*
X116212904Y-102084142D01*
X116260523Y-102131761D01*
X116355761Y-102179380D01*
X116546238Y-102179380D01*
X116641476Y-102131761D01*
X116689095Y-102084142D01*
X116736714Y-101988904D01*
X116736714Y-101798428D01*
X116689095Y-101703190D01*
X116641476Y-101655571D01*
X116546238Y-101607952D01*
X147677142Y-97829666D02*
X147724761Y-97877285D01*
X147772380Y-98020142D01*
X147772380Y-98115380D01*
X147724761Y-98258238D01*
X147629523Y-98353476D01*
X147534285Y-98401095D01*
X147343809Y-98448714D01*
X147200952Y-98448714D01*
X147010476Y-98401095D01*
X146915238Y-98353476D01*
X146820000Y-98258238D01*
X146772380Y-98115380D01*
X146772380Y-98020142D01*
X146820000Y-97877285D01*
X146867619Y-97829666D01*
X146772380Y-97496333D02*
X146772380Y-96829666D01*
X147772380Y-97258238D01*
X142073333Y-95861142D02*
X142025714Y-95908761D01*
X141882857Y-95956380D01*
X141787619Y-95956380D01*
X141644761Y-95908761D01*
X141549523Y-95813523D01*
X141501904Y-95718285D01*
X141454285Y-95527809D01*
X141454285Y-95384952D01*
X141501904Y-95194476D01*
X141549523Y-95099238D01*
X141644761Y-95004000D01*
X141787619Y-94956380D01*
X141882857Y-94956380D01*
X142025714Y-95004000D01*
X142073333Y-95051619D01*
X142930476Y-94956380D02*
X142740000Y-94956380D01*
X142644761Y-95004000D01*
X142597142Y-95051619D01*
X142501904Y-95194476D01*
X142454285Y-95384952D01*
X142454285Y-95765904D01*
X142501904Y-95861142D01*
X142549523Y-95908761D01*
X142644761Y-95956380D01*
X142835238Y-95956380D01*
X142930476Y-95908761D01*
X142978095Y-95861142D01*
X143025714Y-95765904D01*
X143025714Y-95527809D01*
X142978095Y-95432571D01*
X142930476Y-95384952D01*
X142835238Y-95337333D01*
X142644761Y-95337333D01*
X142549523Y-95384952D01*
X142501904Y-95432571D01*
X142454285Y-95527809D01*
X160377142Y-97702666D02*
X160424761Y-97750285D01*
X160472380Y-97893142D01*
X160472380Y-97988380D01*
X160424761Y-98131238D01*
X160329523Y-98226476D01*
X160234285Y-98274095D01*
X160043809Y-98321714D01*
X159900952Y-98321714D01*
X159710476Y-98274095D01*
X159615238Y-98226476D01*
X159520000Y-98131238D01*
X159472380Y-97988380D01*
X159472380Y-97893142D01*
X159520000Y-97750285D01*
X159567619Y-97702666D01*
X159472380Y-96797904D02*
X159472380Y-97274095D01*
X159948571Y-97321714D01*
X159900952Y-97274095D01*
X159853333Y-97178857D01*
X159853333Y-96940761D01*
X159900952Y-96845523D01*
X159948571Y-96797904D01*
X160043809Y-96750285D01*
X160281904Y-96750285D01*
X160377142Y-96797904D01*
X160424761Y-96845523D01*
X160472380Y-96940761D01*
X160472380Y-97178857D01*
X160424761Y-97274095D01*
X160377142Y-97321714D01*
X153900142Y-97829666D02*
X153947761Y-97877285D01*
X153995380Y-98020142D01*
X153995380Y-98115380D01*
X153947761Y-98258238D01*
X153852523Y-98353476D01*
X153757285Y-98401095D01*
X153566809Y-98448714D01*
X153423952Y-98448714D01*
X153233476Y-98401095D01*
X153138238Y-98353476D01*
X153043000Y-98258238D01*
X152995380Y-98115380D01*
X152995380Y-98020142D01*
X153043000Y-97877285D01*
X153090619Y-97829666D01*
X153328714Y-96972523D02*
X153995380Y-96972523D01*
X152947761Y-97210619D02*
X153662047Y-97448714D01*
X153662047Y-96829666D01*
X124293333Y-94337142D02*
X124245714Y-94384761D01*
X124102857Y-94432380D01*
X124007619Y-94432380D01*
X123864761Y-94384761D01*
X123769523Y-94289523D01*
X123721904Y-94194285D01*
X123674285Y-94003809D01*
X123674285Y-93860952D01*
X123721904Y-93670476D01*
X123769523Y-93575238D01*
X123864761Y-93480000D01*
X124007619Y-93432380D01*
X124102857Y-93432380D01*
X124245714Y-93480000D01*
X124293333Y-93527619D01*
X124626666Y-93432380D02*
X125245714Y-93432380D01*
X124912380Y-93813333D01*
X125055238Y-93813333D01*
X125150476Y-93860952D01*
X125198095Y-93908571D01*
X125245714Y-94003809D01*
X125245714Y-94241904D01*
X125198095Y-94337142D01*
X125150476Y-94384761D01*
X125055238Y-94432380D01*
X124769523Y-94432380D01*
X124674285Y-94384761D01*
X124626666Y-94337142D01*
X166878333Y-97934142D02*
X166830714Y-97981761D01*
X166687857Y-98029380D01*
X166592619Y-98029380D01*
X166449761Y-97981761D01*
X166354523Y-97886523D01*
X166306904Y-97791285D01*
X166259285Y-97600809D01*
X166259285Y-97457952D01*
X166306904Y-97267476D01*
X166354523Y-97172238D01*
X166449761Y-97077000D01*
X166592619Y-97029380D01*
X166687857Y-97029380D01*
X166830714Y-97077000D01*
X166878333Y-97124619D01*
X167259285Y-97124619D02*
X167306904Y-97077000D01*
X167402142Y-97029380D01*
X167640238Y-97029380D01*
X167735476Y-97077000D01*
X167783095Y-97124619D01*
X167830714Y-97219857D01*
X167830714Y-97315095D01*
X167783095Y-97457952D01*
X167211666Y-98029380D01*
X167830714Y-98029380D01*
M02*
