G04 #@! TF.GenerationSoftware,KiCad,Pcbnew,(5.1.4)-1*
G04 #@! TF.CreationDate,2020-01-14T12:24:16+00:00*
G04 #@! TF.ProjectId,GFuzz,4746757a-7a2e-46b6-9963-61645f706362,rev?*
G04 #@! TF.SameCoordinates,Original*
G04 #@! TF.FileFunction,Copper,L2,Bot*
G04 #@! TF.FilePolarity,Positive*
%FSLAX46Y46*%
G04 Gerber Fmt 4.6, Leading zero omitted, Abs format (unit mm)*
G04 Created by KiCad (PCBNEW (5.1.4)-1) date 2020-01-14 12:24:16*
%MOMM*%
%LPD*%
G04 APERTURE LIST*
%ADD10C,0.300000*%
%ADD11O,1.700000X2.000000*%
%ADD12C,0.100000*%
%ADD13C,1.700000*%
%ADD14O,1.200000X1.200000*%
%ADD15O,1.200000X1.600000*%
%ADD16O,1.700000X1.700000*%
%ADD17R,1.700000X1.700000*%
%ADD18O,1.800000X1.800000*%
%ADD19R,1.800000X1.800000*%
%ADD20O,1.600000X1.600000*%
%ADD21C,1.600000*%
%ADD22O,2.400000X1.600000*%
%ADD23R,2.400000X1.600000*%
%ADD24R,1.600000X1.600000*%
%ADD25C,1.440000*%
%ADD26O,1.600000X1.200000*%
%ADD27C,0.800000*%
%ADD28C,1.000000*%
%ADD29C,0.304800*%
G04 APERTURE END LIST*
D10*
X177050000Y-104966142D02*
X176978571Y-104823285D01*
X176978571Y-104609000D01*
X177050000Y-104394714D01*
X177192857Y-104251857D01*
X177335714Y-104180428D01*
X177621428Y-104109000D01*
X177835714Y-104109000D01*
X178121428Y-104180428D01*
X178264285Y-104251857D01*
X178407142Y-104394714D01*
X178478571Y-104609000D01*
X178478571Y-104751857D01*
X178407142Y-104966142D01*
X178335714Y-105037571D01*
X177835714Y-105037571D01*
X177835714Y-104751857D01*
X177692857Y-106180428D02*
X177692857Y-105680428D01*
X178478571Y-105680428D02*
X176978571Y-105680428D01*
X176978571Y-106394714D01*
X177478571Y-107609000D02*
X178478571Y-107609000D01*
X177478571Y-106966142D02*
X178264285Y-106966142D01*
X178407142Y-107037571D01*
X178478571Y-107180428D01*
X178478571Y-107394714D01*
X178407142Y-107537571D01*
X178335714Y-107609000D01*
X177478571Y-108180428D02*
X177478571Y-108966142D01*
X178478571Y-108180428D01*
X178478571Y-108966142D01*
X177478571Y-109394714D02*
X177478571Y-110180428D01*
X178478571Y-109394714D01*
X178478571Y-110180428D01*
X176978571Y-111680428D02*
X178478571Y-112180428D01*
X176978571Y-112680428D01*
X178478571Y-113966142D02*
X178478571Y-113109000D01*
X178478571Y-113537571D02*
X176978571Y-113537571D01*
X177192857Y-113394714D01*
X177335714Y-113251857D01*
X177407142Y-113109000D01*
X178335714Y-114609000D02*
X178407142Y-114680428D01*
X178478571Y-114609000D01*
X178407142Y-114537571D01*
X178335714Y-114609000D01*
X178478571Y-114609000D01*
X176978571Y-115609000D02*
X176978571Y-115751857D01*
X177050000Y-115894714D01*
X177121428Y-115966142D01*
X177264285Y-116037571D01*
X177550000Y-116109000D01*
X177907142Y-116109000D01*
X178192857Y-116037571D01*
X178335714Y-115966142D01*
X178407142Y-115894714D01*
X178478571Y-115751857D01*
X178478571Y-115609000D01*
X178407142Y-115466142D01*
X178335714Y-115394714D01*
X178192857Y-115323285D01*
X177907142Y-115251857D01*
X177550000Y-115251857D01*
X177264285Y-115323285D01*
X177121428Y-115394714D01*
X177050000Y-115466142D01*
X176978571Y-115609000D01*
D11*
X174625000Y-87249000D03*
D12*
G36*
X177749504Y-86250204D02*
G01*
X177773773Y-86253804D01*
X177797571Y-86259765D01*
X177820671Y-86268030D01*
X177842849Y-86278520D01*
X177863893Y-86291133D01*
X177883598Y-86305747D01*
X177901777Y-86322223D01*
X177918253Y-86340402D01*
X177932867Y-86360107D01*
X177945480Y-86381151D01*
X177955970Y-86403329D01*
X177964235Y-86426429D01*
X177970196Y-86450227D01*
X177973796Y-86474496D01*
X177975000Y-86499000D01*
X177975000Y-87999000D01*
X177973796Y-88023504D01*
X177970196Y-88047773D01*
X177964235Y-88071571D01*
X177955970Y-88094671D01*
X177945480Y-88116849D01*
X177932867Y-88137893D01*
X177918253Y-88157598D01*
X177901777Y-88175777D01*
X177883598Y-88192253D01*
X177863893Y-88206867D01*
X177842849Y-88219480D01*
X177820671Y-88229970D01*
X177797571Y-88238235D01*
X177773773Y-88244196D01*
X177749504Y-88247796D01*
X177725000Y-88249000D01*
X176525000Y-88249000D01*
X176500496Y-88247796D01*
X176476227Y-88244196D01*
X176452429Y-88238235D01*
X176429329Y-88229970D01*
X176407151Y-88219480D01*
X176386107Y-88206867D01*
X176366402Y-88192253D01*
X176348223Y-88175777D01*
X176331747Y-88157598D01*
X176317133Y-88137893D01*
X176304520Y-88116849D01*
X176294030Y-88094671D01*
X176285765Y-88071571D01*
X176279804Y-88047773D01*
X176276204Y-88023504D01*
X176275000Y-87999000D01*
X176275000Y-86499000D01*
X176276204Y-86474496D01*
X176279804Y-86450227D01*
X176285765Y-86426429D01*
X176294030Y-86403329D01*
X176304520Y-86381151D01*
X176317133Y-86360107D01*
X176331747Y-86340402D01*
X176348223Y-86322223D01*
X176366402Y-86305747D01*
X176386107Y-86291133D01*
X176407151Y-86278520D01*
X176429329Y-86268030D01*
X176452429Y-86259765D01*
X176476227Y-86253804D01*
X176500496Y-86250204D01*
X176525000Y-86249000D01*
X177725000Y-86249000D01*
X177749504Y-86250204D01*
X177749504Y-86250204D01*
G37*
D13*
X177125000Y-87249000D03*
D14*
X167640000Y-107950000D03*
X168910000Y-109220000D03*
D15*
X167640000Y-110490000D03*
D16*
X135890000Y-86360000D03*
X133350000Y-86360000D03*
X130810000Y-86360000D03*
X128270000Y-86360000D03*
X125730000Y-86360000D03*
D17*
X123190000Y-86360000D03*
D18*
X134620000Y-109855000D03*
D19*
X124460000Y-109855000D03*
D20*
X153670000Y-116205000D03*
D21*
X153670000Y-106045000D03*
D22*
X108585000Y-116205000D03*
X116205000Y-108585000D03*
X108585000Y-113665000D03*
X116205000Y-111125000D03*
X108585000Y-111125000D03*
X116205000Y-113665000D03*
X108585000Y-108585000D03*
D23*
X116205000Y-116205000D03*
D20*
X154940000Y-95250000D03*
D21*
X144780000Y-95250000D03*
X177165000Y-98425000D03*
D24*
X174665000Y-98425000D03*
D16*
X107950000Y-86360000D03*
X110490000Y-86360000D03*
D17*
X113030000Y-86360000D03*
D25*
X138430000Y-104140000D03*
X138430000Y-101600000D03*
X138430000Y-99060000D03*
D16*
X147320000Y-86360000D03*
X144780000Y-86360000D03*
D17*
X142240000Y-86360000D03*
D25*
X138430000Y-114935000D03*
X138430000Y-112395000D03*
X138430000Y-109855000D03*
D20*
X99060000Y-111125000D03*
D21*
X99060000Y-121285000D03*
D20*
X103505000Y-120015000D03*
D21*
X103505000Y-109855000D03*
D20*
X150495000Y-106045000D03*
D21*
X150495000Y-116205000D03*
D20*
X117475000Y-120015000D03*
D21*
X107315000Y-120015000D03*
D20*
X156845000Y-116205000D03*
D21*
X156845000Y-106045000D03*
D20*
X160020000Y-116205000D03*
D21*
X160020000Y-106045000D03*
D20*
X169545000Y-92456000D03*
D21*
X159385000Y-92456000D03*
D20*
X99060000Y-98425000D03*
D21*
X99060000Y-108585000D03*
D20*
X121920000Y-94615000D03*
D21*
X111760000Y-94615000D03*
D20*
X120650000Y-116205000D03*
D21*
X120650000Y-106045000D03*
D20*
X121920000Y-91440000D03*
D21*
X111760000Y-91440000D03*
D20*
X134620000Y-106680000D03*
D21*
X124460000Y-106680000D03*
D20*
X134620000Y-103505000D03*
D21*
X124460000Y-103505000D03*
D20*
X124460000Y-97155000D03*
D21*
X134620000Y-97155000D03*
D20*
X134620000Y-100330000D03*
D21*
X124460000Y-100330000D03*
D20*
X154940000Y-92075000D03*
D21*
X144780000Y-92075000D03*
D14*
X167640000Y-115570000D03*
X168910000Y-116840000D03*
D15*
X167640000Y-118110000D03*
D14*
X165735000Y-101600000D03*
X167005000Y-100330000D03*
D26*
X168275000Y-101600000D03*
D16*
X97790000Y-86360000D03*
D17*
X100330000Y-86360000D03*
D16*
X162941000Y-88392000D03*
D17*
X165481000Y-88392000D03*
D18*
X134620000Y-113157000D03*
D19*
X124460000Y-113157000D03*
D18*
X134620000Y-116205000D03*
D19*
X124460000Y-116205000D03*
D21*
X132000000Y-91440000D03*
X127000000Y-91440000D03*
X99060000Y-92115000D03*
D24*
X99060000Y-94615000D03*
D21*
X109815000Y-101600000D03*
D24*
X107315000Y-101600000D03*
D21*
X106680000Y-94575000D03*
D24*
X106680000Y-92075000D03*
D21*
X153075000Y-86995000D03*
D24*
X155575000Y-86995000D03*
D21*
X121285000Y-101600000D03*
D24*
X118785000Y-101600000D03*
D21*
X147320000Y-100370000D03*
D24*
X147320000Y-102870000D03*
D21*
X139660000Y-92075000D03*
D24*
X137160000Y-92075000D03*
D21*
X160020000Y-100330000D03*
D24*
X160020000Y-102830000D03*
D21*
X153670000Y-100370000D03*
D24*
X153670000Y-102870000D03*
D21*
X127000000Y-93980000D03*
X132000000Y-93980000D03*
X164545000Y-95377000D03*
X169545000Y-95377000D03*
D27*
X156845000Y-99695000D03*
X156845000Y-103378000D03*
X144145000Y-104140000D03*
X144145000Y-110998000D03*
D28*
X171450000Y-98425000D02*
X168275000Y-101600000D01*
X174665000Y-98425000D02*
X171450000Y-98425000D01*
X148169999Y-85510001D02*
X147320000Y-86360000D01*
X148185001Y-85494999D02*
X148169999Y-85510001D01*
X154074999Y-85494999D02*
X148185001Y-85494999D01*
X155575000Y-86995000D02*
X154074999Y-85494999D01*
X172165000Y-113665000D02*
X174665000Y-111165000D01*
X169545000Y-113665000D02*
X172165000Y-113665000D01*
X167640000Y-115570000D02*
X169545000Y-113665000D01*
X174665000Y-111165000D02*
X174665000Y-98425000D01*
X108985000Y-116205000D02*
X108585000Y-116205000D01*
X114700000Y-121920000D02*
X108985000Y-116205000D01*
X174665000Y-120610000D02*
X173355000Y-121920000D01*
X174665000Y-111165000D02*
X174665000Y-120610000D01*
X124460000Y-120015000D02*
X126365000Y-121920000D01*
X124460000Y-116205000D02*
X124460000Y-120015000D01*
X126365000Y-121920000D02*
X114700000Y-121920000D01*
X134620000Y-113157000D02*
X131699000Y-113157000D01*
X131699000Y-113157000D02*
X130810000Y-114046000D01*
X130810000Y-120142000D02*
X132588000Y-121920000D01*
X130810000Y-114046000D02*
X130810000Y-120142000D01*
X173355000Y-121920000D02*
X132588000Y-121920000D01*
X132588000Y-121920000D02*
X126365000Y-121920000D01*
X156071370Y-95250000D02*
X157353000Y-93968370D01*
X154940000Y-95250000D02*
X156071370Y-95250000D01*
X155575000Y-88795000D02*
X155575000Y-86995000D01*
X157353000Y-90573000D02*
X155575000Y-88795000D01*
X157353000Y-93968370D02*
X157353000Y-90573000D01*
X155575000Y-86995000D02*
X156972000Y-85598000D01*
X156972000Y-85598000D02*
X170053000Y-85598000D01*
X171704000Y-87249000D02*
X174625000Y-87249000D01*
X170053000Y-85598000D02*
X171704000Y-87249000D01*
X174625000Y-98385000D02*
X174665000Y-98425000D01*
X174625000Y-87249000D02*
X174625000Y-98385000D01*
D29*
X167005000Y-104902000D02*
X167005000Y-100330000D01*
X160020000Y-106045000D02*
X165862000Y-106045000D01*
X165862000Y-106045000D02*
X167005000Y-104902000D01*
X169545000Y-97790000D02*
X169545000Y-95377000D01*
X167005000Y-100330000D02*
X169545000Y-97790000D01*
X166624000Y-92456000D02*
X169545000Y-95377000D01*
X159385000Y-92456000D02*
X166624000Y-92456000D01*
X124460000Y-100330000D02*
X124460000Y-97155000D01*
X117757410Y-109972590D02*
X116605000Y-111125000D01*
X117757410Y-108107657D02*
X117757410Y-109972590D01*
X117475000Y-107825247D02*
X117757410Y-108107657D01*
X116605000Y-111125000D02*
X116205000Y-111125000D01*
X118620677Y-99530001D02*
X117475000Y-100675678D01*
X117475000Y-100675678D02*
X117475000Y-107825247D01*
X123660001Y-99530001D02*
X118620677Y-99530001D01*
X124460000Y-100330000D02*
X123660001Y-99530001D01*
X125868630Y-93980000D02*
X124979630Y-93091000D01*
X127000000Y-93980000D02*
X125868630Y-93980000D01*
X124979630Y-93091000D02*
X120650000Y-93091000D01*
X120650000Y-93091000D02*
X120142000Y-93599000D01*
X120142000Y-93599000D02*
X120142000Y-96393000D01*
X120904000Y-97155000D02*
X124460000Y-97155000D01*
X120142000Y-96393000D02*
X120904000Y-97155000D01*
D28*
X144780000Y-92075000D02*
X144780000Y-95250000D01*
X144780000Y-95250000D02*
X138535000Y-95250000D01*
X135419999Y-96355001D02*
X137530000Y-94245000D01*
X134620000Y-97155000D02*
X135419999Y-96355001D01*
X138535000Y-95250000D02*
X137530000Y-94245000D01*
X137530000Y-94245000D02*
X137160000Y-93875000D01*
X135255000Y-93980000D02*
X137160000Y-92075000D01*
X132000000Y-93980000D02*
X135255000Y-93980000D01*
X122785001Y-95480001D02*
X134897999Y-95480001D01*
X121920000Y-94615000D02*
X122785001Y-95480001D01*
X137160000Y-93875000D02*
X137160000Y-92075000D01*
X135554999Y-95480001D02*
X137160000Y-93875000D01*
X134897999Y-95480001D02*
X135554999Y-95480001D01*
D29*
X134620000Y-100330000D02*
X142367000Y-100330000D01*
X142367000Y-100330000D02*
X145796000Y-96901000D01*
X150201000Y-96901000D02*
X153670000Y-100370000D01*
X145796000Y-96901000D02*
X150201000Y-96901000D01*
X153670000Y-106045000D02*
X153670000Y-102870000D01*
X164465000Y-100330000D02*
X165735000Y-101600000D01*
X160020000Y-100330000D02*
X164465000Y-100330000D01*
X158788200Y-101561800D02*
X160020000Y-100330000D01*
X156083000Y-101561800D02*
X158788200Y-101561800D01*
X153670000Y-102870000D02*
X154774800Y-102870000D01*
X154774800Y-102870000D02*
X156083000Y-101561800D01*
X165735000Y-113030000D02*
X164211000Y-114554000D01*
X170688000Y-110617000D02*
X168275000Y-113030000D01*
X169164000Y-106172000D02*
X170688000Y-107696000D01*
X164211000Y-115189000D02*
X165862000Y-116840000D01*
X165735000Y-107315000D02*
X166878000Y-106172000D01*
X159004000Y-107315000D02*
X165735000Y-107315000D01*
X166878000Y-106172000D02*
X169164000Y-106172000D01*
X168910000Y-116840000D02*
X165862000Y-116840000D01*
X160020000Y-102830000D02*
X158915200Y-102830000D01*
X170688000Y-107696000D02*
X170688000Y-110617000D01*
X158915200Y-102830000D02*
X158369000Y-103376200D01*
X168275000Y-113030000D02*
X165735000Y-113030000D01*
X158369000Y-103376200D02*
X158369000Y-106680000D01*
X158369000Y-106680000D02*
X159004000Y-107315000D01*
X158369000Y-114681000D02*
X164211000Y-114681000D01*
X156845000Y-116205000D02*
X158369000Y-114681000D01*
X164211000Y-114554000D02*
X164211000Y-114681000D01*
X164211000Y-114681000D02*
X164211000Y-115189000D01*
X150114000Y-102870000D02*
X147320000Y-102870000D01*
X152019000Y-104775000D02*
X150114000Y-102870000D01*
X152019000Y-107442000D02*
X152019000Y-104775000D01*
X151257000Y-108204000D02*
X152019000Y-107442000D01*
X134620000Y-103505000D02*
X139319000Y-108204000D01*
X139319000Y-108204000D02*
X151257000Y-108204000D01*
X120650000Y-106045000D02*
X120650000Y-104140000D01*
X120650000Y-104140000D02*
X121285000Y-103505000D01*
X121285000Y-103505000D02*
X121285000Y-101600000D01*
X121285000Y-120015000D02*
X117475000Y-120015000D01*
X122555000Y-118745000D02*
X121285000Y-120015000D01*
X124460000Y-109855000D02*
X122555000Y-111760000D01*
X122555000Y-111760000D02*
X122555000Y-118745000D01*
X125664800Y-109855000D02*
X124460000Y-109855000D01*
X126917201Y-108602599D02*
X125664800Y-109855000D01*
X134729401Y-108602599D02*
X126917201Y-108602599D01*
X135772401Y-107559599D02*
X134729401Y-108602599D01*
X135173153Y-105527599D02*
X135772401Y-106126847D01*
X130927599Y-102352599D02*
X134102599Y-105527599D01*
X134102599Y-105527599D02*
X135173153Y-105527599D01*
X122872045Y-100447599D02*
X124777045Y-102352599D01*
X118832601Y-100447599D02*
X122872045Y-100447599D01*
X118785000Y-100495200D02*
X118832601Y-100447599D01*
X124777045Y-102352599D02*
X130927599Y-102352599D01*
X118785000Y-101600000D02*
X118785000Y-100495200D01*
X135872401Y-106789401D02*
X135772401Y-106689401D01*
X135872401Y-114952599D02*
X135872401Y-106789401D01*
X134620000Y-116205000D02*
X135872401Y-114952599D01*
X135772401Y-106126847D02*
X135772401Y-106689401D01*
X135772401Y-106689401D02*
X135772401Y-107559599D01*
X152275001Y-87794999D02*
X153075000Y-86995000D01*
X146214999Y-87794999D02*
X152275001Y-87794999D01*
X144780000Y-86360000D02*
X146214999Y-87794999D01*
X111720000Y-94575000D02*
X111760000Y-94615000D01*
X106680000Y-94575000D02*
X111720000Y-94575000D01*
X111760000Y-99655000D02*
X109815000Y-101600000D01*
X111760000Y-94615000D02*
X111760000Y-99655000D01*
X109815000Y-107355000D02*
X108585000Y-108585000D01*
X109815000Y-101600000D02*
X109815000Y-107355000D01*
X107784800Y-92075000D02*
X108419800Y-91440000D01*
X106680000Y-92075000D02*
X107784800Y-92075000D01*
X108419800Y-91440000D02*
X111760000Y-91440000D01*
X116840000Y-86360000D02*
X123190000Y-86360000D01*
X111760000Y-91440000D02*
X116840000Y-86360000D01*
X107315000Y-106045000D02*
X103505000Y-109855000D01*
X107315000Y-101600000D02*
X107315000Y-106045000D01*
X128270000Y-87710000D02*
X132000000Y-91440000D01*
X128270000Y-86360000D02*
X128270000Y-87710000D01*
X127000000Y-90308630D02*
X127000000Y-91440000D01*
X127000000Y-85725000D02*
X127000000Y-90308630D01*
X126432599Y-85157599D02*
X127000000Y-85725000D01*
X115387201Y-85157599D02*
X126432599Y-85157599D01*
X114184800Y-86360000D02*
X115387201Y-85157599D01*
X113030000Y-86360000D02*
X114184800Y-86360000D01*
X127762000Y-109855000D02*
X124460000Y-113157000D01*
X134620000Y-109855000D02*
X127762000Y-109855000D01*
X165481000Y-88392000D02*
X169545000Y-92456000D01*
X109640001Y-85510001D02*
X110490000Y-86360000D01*
X109287599Y-85157599D02*
X109640001Y-85510001D01*
X102687201Y-85157599D02*
X109287599Y-85157599D01*
X101484800Y-86360000D02*
X102687201Y-85157599D01*
X100330000Y-86360000D02*
X101484800Y-86360000D01*
X138430000Y-112395000D02*
X138430000Y-114935000D01*
X141605000Y-118110000D02*
X138430000Y-114935000D01*
X167640000Y-118110000D02*
X141605000Y-118110000D01*
X141605000Y-109220000D02*
X138430000Y-112395000D01*
X168910000Y-109220000D02*
X141605000Y-109220000D01*
X134199999Y-87209999D02*
X134326999Y-87209999D01*
X133350000Y-86360000D02*
X134199999Y-87209999D01*
X134326999Y-87209999D02*
X136144000Y-89027000D01*
X136144000Y-89027000D02*
X146177000Y-89027000D01*
X146177000Y-89027000D02*
X156845000Y-99695000D01*
X156845000Y-99695000D02*
X156809990Y-99730010D01*
X156845000Y-103378000D02*
X156845000Y-106045000D01*
X156845000Y-107176370D02*
X157618630Y-107950000D01*
X156845000Y-106045000D02*
X156845000Y-107176370D01*
X157618630Y-107950000D02*
X167640000Y-107950000D01*
X138430000Y-104140000D02*
X138430000Y-101600000D01*
X144145000Y-104140000D02*
X138430000Y-104140000D01*
X166735200Y-110490000D02*
X167640000Y-110490000D01*
X144145000Y-110998000D02*
X165862000Y-110998000D01*
X165862000Y-110998000D02*
X166735200Y-110490000D01*
X116205000Y-113665000D02*
X116605000Y-113665000D01*
X127635000Y-106680000D02*
X134620000Y-106680000D01*
X124460000Y-103505000D02*
X127635000Y-106680000D01*
X118110000Y-113665000D02*
X116205000Y-113665000D01*
X118745000Y-113030000D02*
X118110000Y-113665000D01*
X118745000Y-109220000D02*
X118745000Y-113030000D01*
X124460000Y-103505000D02*
X123328630Y-103505000D01*
X122555000Y-104278630D02*
X122555000Y-106680000D01*
X122555000Y-106680000D02*
X121285000Y-107950000D01*
X121285000Y-107950000D02*
X120015000Y-107950000D01*
X123328630Y-103505000D02*
X122555000Y-104278630D01*
X120015000Y-107950000D02*
X118745000Y-109220000D01*
X116205000Y-116205000D02*
X120650000Y-116205000D01*
X120650000Y-116205000D02*
X120650000Y-109220000D01*
X120650000Y-109220000D02*
X121285000Y-108585000D01*
X121285000Y-108585000D02*
X122555000Y-108585000D01*
X122555000Y-108585000D02*
X124460000Y-106680000D01*
X120788630Y-91440000D02*
X121920000Y-91440000D01*
X114046000Y-98182630D02*
X120788630Y-91440000D01*
X114046000Y-115550800D02*
X114046000Y-98182630D01*
X114700200Y-116205000D02*
X114046000Y-115550800D01*
X116205000Y-116205000D02*
X114700200Y-116205000D01*
X99060000Y-108585000D02*
X99060000Y-111125000D01*
X100587590Y-111502410D02*
X108585000Y-111502410D01*
X100165001Y-111924999D02*
X100587590Y-111502410D01*
X99060000Y-111125000D02*
X99859999Y-111924999D01*
X99859999Y-111924999D02*
X100165001Y-111924999D01*
X133477000Y-99060000D02*
X138430000Y-99060000D01*
X132842000Y-99695000D02*
X133477000Y-99060000D01*
X132842000Y-100838000D02*
X132842000Y-99695000D01*
X136525000Y-104267000D02*
X136525000Y-102870000D01*
X150495000Y-106045000D02*
X138303000Y-106045000D01*
X136525000Y-102870000D02*
X135636000Y-101981000D01*
X135636000Y-101981000D02*
X133985000Y-101981000D01*
X138303000Y-106045000D02*
X136525000Y-104267000D01*
X133985000Y-101981000D02*
X132842000Y-100838000D01*
X134366000Y-89916000D02*
X130810000Y-86360000D01*
X144326554Y-89916000D02*
X134366000Y-89916000D01*
X142923092Y-99060000D02*
X145717092Y-96266000D01*
X138430000Y-99060000D02*
X142923092Y-99060000D01*
X145717092Y-96266000D02*
X146431000Y-96266000D01*
X146939000Y-95758000D02*
X146939000Y-92528446D01*
X146431000Y-96266000D02*
X146939000Y-95758000D01*
X146939000Y-92528446D02*
X144326554Y-89916000D01*
X106680000Y-113665000D02*
X108585000Y-113665000D01*
X99060000Y-121285000D02*
X106680000Y-113665000D01*
X122936000Y-89154000D02*
X125730000Y-86360000D01*
X120904000Y-89154000D02*
X122936000Y-89154000D01*
X112912401Y-97145599D02*
X120904000Y-89154000D01*
X112912401Y-110842399D02*
X112912401Y-97145599D01*
X108585000Y-113665000D02*
X110089800Y-113665000D01*
X110089800Y-113665000D02*
X112912401Y-110842399D01*
X137092081Y-86360000D02*
X142240000Y-86360000D01*
X135890000Y-86360000D02*
X137092081Y-86360000D01*
M02*
