M48
; DRILL file {KiCad (5.1.4)-1} date 14/01/2020 12:24:22
; FORMAT={-:-/ absolute / inch / decimal}
; #@! TF.CreationDate,2020-01-14T12:24:22+00:00
; #@! TF.GenerationSoftware,Kicad,Pcbnew,(5.1.4)-1
; #@! TF.FileFunction,Plated,1,2,PTH
FMAT,2
INCH
T1C0.0157
T2C0.0276
T3C0.0315
T4C0.0354
T5C0.0394
%
G90
G05
T1
X5.675Y-4.1
X5.675Y-4.37
X6.175Y-3.925
X6.175Y-4.07
T2
X6.6Y-4.25
X6.6Y-4.35
X6.65Y-4.3
X6.525Y-4.0
X6.575Y-3.95
X6.625Y-4.0
X6.6Y-4.55
X6.6Y-4.65
X6.65Y-4.6
T3
X3.9Y-4.375
X3.9Y-4.775
X6.0266Y-3.425
X6.125Y-3.425
X5.8Y-3.9516
X5.8Y-4.05
X4.275Y-4.275
X4.275Y-4.375
X4.275Y-4.475
X4.275Y-4.575
X4.575Y-4.275
X4.575Y-4.375
X4.575Y-4.475
X4.575Y-4.575
X4.9Y-3.95
X5.3Y-3.95
X6.3Y-3.95
X6.3Y-4.0484
X5.925Y-4.175
X5.925Y-4.575
X3.9Y-3.6266
X3.9Y-3.725
X5.7Y-3.625
X6.1Y-3.625
X4.4Y-3.6
X4.8Y-3.6
X6.05Y-4.175
X6.05Y-4.575
X4.225Y-4.725
X4.625Y-4.725
X5.0Y-3.7
X5.1969Y-3.7
X5.45Y-4.325
X5.45Y-4.425
X5.45Y-4.525
X6.05Y-3.9516
X6.05Y-4.05
X6.8766Y-3.875
X6.975Y-3.875
X6.4781Y-3.755
X6.675Y-3.755
X4.9Y-3.825
X5.3Y-3.825
X4.4Y-3.725
X4.8Y-3.725
X4.75Y-4.175
X4.75Y-4.575
X3.9Y-3.875
X3.9Y-4.275
X5.4Y-3.625
X5.4984Y-3.625
X5.45Y-3.9
X5.45Y-4.0
X5.45Y-4.1
X6.3Y-4.175
X6.3Y-4.575
X5.7Y-3.75
X6.1Y-3.75
X4.6766Y-4.0
X4.775Y-4.0
X4.225Y-4.0
X4.3234Y-4.0
X4.9Y-4.2
X5.3Y-4.2
X4.2Y-3.625
X4.2Y-3.7234
X4.075Y-4.325
X4.075Y-4.725
X4.9Y-4.075
X5.3Y-4.075
X5.0Y-3.6
X5.1969Y-3.6
X6.275Y-3.64
X6.675Y-3.64
X6.175Y-4.175
X6.175Y-4.575
T4
X4.9Y-4.455
X5.3Y-4.455
X4.9Y-4.575
X5.3Y-4.575
X4.9Y-4.325
X5.3Y-4.325
T5
X4.85Y-3.4
X4.95Y-3.4
X5.05Y-3.4
X5.15Y-3.4
X5.25Y-3.4
X5.35Y-3.4
X4.25Y-3.4
X4.35Y-3.4
X4.45Y-3.4
X3.85Y-3.4
X3.95Y-3.4
X6.415Y-3.48
X6.515Y-3.48
X6.875Y-3.435
X6.9734Y-3.435
X5.6Y-3.4
X5.7Y-3.4
X5.8Y-3.4
T0
M30
