M48
; DRILL file {KiCad (5.1.4)-1} date 26/01/2020 18:27:14
; FORMAT={-:-/ absolute / inch / decimal}
; #@! TF.CreationDate,2020-01-26T18:27:14+00:00
; #@! TF.GenerationSoftware,Kicad,Pcbnew,(5.1.4)-1
; #@! TF.FileFunction,Plated,1,2,PTH
FMAT,2
INCH
T1C0.0157
T2C0.0197
T3C0.0276
T4C0.0295
T5C0.0315
T6C0.0354
T7C0.0394
T8C0.0866
%
G90
G05
T1
X4.475Y-4.075
X4.675Y-3.5476
X4.675Y-3.9
X4.725Y-3.525
X4.725Y-3.8
X4.9Y-3.7
X5.5Y-4.075
X5.65Y-4.65
X5.825Y-4.15
X6.05Y-4.65
X6.15Y-4.35
T2
X5.775Y-4.3
X5.775Y-4.2
T3
X5.64Y-4.475
X5.64Y-4.575
X5.69Y-4.525
X5.025Y-3.5
X5.225Y-3.5
X5.425Y-3.75
X5.425Y-3.95
X4.625Y-3.95
X4.825Y-3.95
X5.425Y-4.425
X5.425Y-4.625
X5.325Y-4.425
X5.325Y-4.625
X5.12Y-4.475
X5.12Y-4.575
X5.17Y-4.525
X4.925Y-4.075
X5.125Y-4.075
X4.625Y-3.65
X4.825Y-3.65
X4.325Y-4.4
X4.525Y-4.4
X5.225Y-4.075
X5.425Y-4.075
X5.65Y-3.7
X5.85Y-3.7
X4.625Y-4.05
X4.825Y-4.05
X4.225Y-3.65
X4.225Y-3.85
X4.325Y-3.75
X4.525Y-3.75
X4.325Y-3.65
X4.525Y-3.65
X4.9Y-4.425
X4.9Y-4.625
X5.025Y-3.4
X5.225Y-3.4
X4.225Y-4.4
X4.225Y-4.6
X4.625Y-3.75
X4.825Y-3.75
T4
X4.375Y-3.875
X4.4246Y-3.925
X4.475Y-3.875
X4.675Y-4.5
X4.725Y-4.4504
X4.725Y-4.5504
T5
X5.9Y-4.1281
X5.9Y-4.325
X5.45Y-3.4
X5.45Y-3.4984
X5.9Y-4.475
X5.9Y-4.5734
X4.6281Y-3.85
X4.825Y-3.85
X4.375Y-4.225
X4.4734Y-4.225
X5.425Y-4.25
X5.525Y-4.25
X5.625Y-4.25
X4.85Y-3.4016
X4.85Y-3.5
X4.6Y-3.4016
X4.6Y-3.5
X4.3281Y-4.5
X4.525Y-4.5
X4.6766Y-4.225
X4.775Y-4.225
X5.85Y-3.85
X5.85Y-3.9484
X4.975Y-3.65
X4.975Y-3.75
X4.975Y-3.85
X4.975Y-3.95
X5.275Y-3.65
X5.275Y-3.75
X5.275Y-3.85
X5.275Y-3.95
X5.6Y-3.85
X5.6Y-3.9484
X4.1Y-3.4016
X4.1Y-3.5
X4.35Y-3.4016
X4.35Y-3.5
X5.0Y-4.25
X5.1Y-4.25
X5.2Y-4.25
T6
X5.625Y-3.425
X5.925Y-3.425
X5.625Y-3.575
X5.925Y-3.575
X6.05Y-3.425
X6.05Y-3.725
X4.05Y-3.7
X4.05Y-3.8
T7
X3.825Y-3.675
X3.825Y-3.7734
X4.025Y-4.775
X4.125Y-4.775
X4.225Y-4.775
X4.325Y-4.775
X4.425Y-4.775
X4.525Y-4.775
X4.625Y-4.775
X4.725Y-4.775
X4.825Y-4.775
X6.05Y-3.85
X6.05Y-3.95
X6.05Y-4.05
X6.05Y-4.15
X6.05Y-4.25
X6.05Y-4.35
X5.025Y-4.775
X5.125Y-4.775
X5.425Y-4.775
X5.525Y-4.775
X5.625Y-4.775
X4.375Y-4.625
X4.475Y-4.625
X5.85Y-4.775
X5.95Y-4.775
X6.05Y-4.775
T8
X3.825Y-3.425
X3.825Y-4.75
X7.0Y-3.425
X7.0Y-4.75
T7
G00X3.8888Y-4.0606
M15
G01X3.8888Y-4.1394
M16
G05
G00X3.9675Y-4.285
M15
G01X4.0463Y-4.285
M16
G05
G00X4.125Y-4.0606
M15
G01X4.125Y-4.1394
M16
G05
T0
M30
