G04 #@! TF.GenerationSoftware,KiCad,Pcbnew,(5.1.4)-1*
G04 #@! TF.CreationDate,2020-01-26T18:27:04+00:00*
G04 #@! TF.ProjectId,GFuzz,4746757a-7a2e-46b6-9963-61645f706362,rev?*
G04 #@! TF.SameCoordinates,Original*
G04 #@! TF.FileFunction,Soldermask,Bot*
G04 #@! TF.FilePolarity,Negative*
%FSLAX46Y46*%
G04 Gerber Fmt 4.6, Leading zero omitted, Abs format (unit mm)*
G04 Created by KiCad (PCBNEW (5.1.4)-1) date 2020-01-26 18:27:04*
%MOMM*%
%LPD*%
G04 APERTURE LIST*
%ADD10C,0.100000*%
G04 APERTURE END LIST*
D10*
G36*
X178075880Y-118409776D02*
G01*
X178456593Y-118485504D01*
X178866249Y-118655189D01*
X179234929Y-118901534D01*
X179548466Y-119215071D01*
X179794811Y-119583751D01*
X179964496Y-119993407D01*
X180051000Y-120428296D01*
X180051000Y-120871704D01*
X179964496Y-121306593D01*
X179794811Y-121716249D01*
X179548466Y-122084929D01*
X179234929Y-122398466D01*
X178866249Y-122644811D01*
X178456593Y-122814496D01*
X178075880Y-122890224D01*
X178021705Y-122901000D01*
X177578295Y-122901000D01*
X177524120Y-122890224D01*
X177143407Y-122814496D01*
X176733751Y-122644811D01*
X176365071Y-122398466D01*
X176051534Y-122084929D01*
X175805189Y-121716249D01*
X175635504Y-121306593D01*
X175549000Y-120871704D01*
X175549000Y-120428296D01*
X175635504Y-119993407D01*
X175805189Y-119583751D01*
X176051534Y-119215071D01*
X176365071Y-118901534D01*
X176733751Y-118655189D01*
X177143407Y-118485504D01*
X177524120Y-118409776D01*
X177578295Y-118399000D01*
X178021705Y-118399000D01*
X178075880Y-118409776D01*
X178075880Y-118409776D01*
G37*
G36*
X97430880Y-118409776D02*
G01*
X97811593Y-118485504D01*
X98221249Y-118655189D01*
X98589929Y-118901534D01*
X98903466Y-119215071D01*
X99149811Y-119583751D01*
X99319496Y-119993407D01*
X99406000Y-120428296D01*
X99406000Y-120871704D01*
X99319496Y-121306593D01*
X99149811Y-121716249D01*
X98903466Y-122084929D01*
X98589929Y-122398466D01*
X98221249Y-122644811D01*
X97811593Y-122814496D01*
X97430880Y-122890224D01*
X97376705Y-122901000D01*
X96933295Y-122901000D01*
X96879120Y-122890224D01*
X96498407Y-122814496D01*
X96088751Y-122644811D01*
X95720071Y-122398466D01*
X95406534Y-122084929D01*
X95160189Y-121716249D01*
X94990504Y-121306593D01*
X94904000Y-120871704D01*
X94904000Y-120428296D01*
X94990504Y-119993407D01*
X95160189Y-119583751D01*
X95406534Y-119215071D01*
X95720071Y-118901534D01*
X96088751Y-118655189D01*
X96498407Y-118485504D01*
X96879120Y-118409776D01*
X96933295Y-118399000D01*
X97376705Y-118399000D01*
X97430880Y-118409776D01*
X97430880Y-118409776D01*
G37*
G36*
X115045443Y-120390519D02*
G01*
X115111627Y-120397037D01*
X115281466Y-120448557D01*
X115437991Y-120532222D01*
X115473729Y-120561552D01*
X115575186Y-120644814D01*
X115658448Y-120746271D01*
X115687778Y-120782009D01*
X115771443Y-120938534D01*
X115822963Y-121108373D01*
X115840359Y-121285000D01*
X115822963Y-121461627D01*
X115771443Y-121631466D01*
X115687778Y-121787991D01*
X115658448Y-121823729D01*
X115575186Y-121925186D01*
X115473729Y-122008448D01*
X115437991Y-122037778D01*
X115281466Y-122121443D01*
X115111627Y-122172963D01*
X115045442Y-122179482D01*
X114979260Y-122186000D01*
X114890740Y-122186000D01*
X114824558Y-122179482D01*
X114758373Y-122172963D01*
X114588534Y-122121443D01*
X114432009Y-122037778D01*
X114396271Y-122008448D01*
X114294814Y-121925186D01*
X114211552Y-121823729D01*
X114182222Y-121787991D01*
X114098557Y-121631466D01*
X114047037Y-121461627D01*
X114029641Y-121285000D01*
X114047037Y-121108373D01*
X114098557Y-120938534D01*
X114182222Y-120782009D01*
X114211552Y-120746271D01*
X114294814Y-120644814D01*
X114396271Y-120561552D01*
X114432009Y-120532222D01*
X114588534Y-120448557D01*
X114758373Y-120397037D01*
X114824557Y-120390519D01*
X114890740Y-120384000D01*
X114979260Y-120384000D01*
X115045443Y-120390519D01*
X115045443Y-120390519D01*
G37*
G36*
X149491000Y-122186000D02*
G01*
X147689000Y-122186000D01*
X147689000Y-120384000D01*
X149491000Y-120384000D01*
X149491000Y-122186000D01*
X149491000Y-122186000D01*
G37*
G36*
X112505443Y-120390519D02*
G01*
X112571627Y-120397037D01*
X112741466Y-120448557D01*
X112897991Y-120532222D01*
X112933729Y-120561552D01*
X113035186Y-120644814D01*
X113118448Y-120746271D01*
X113147778Y-120782009D01*
X113231443Y-120938534D01*
X113282963Y-121108373D01*
X113300359Y-121285000D01*
X113282963Y-121461627D01*
X113231443Y-121631466D01*
X113147778Y-121787991D01*
X113118448Y-121823729D01*
X113035186Y-121925186D01*
X112933729Y-122008448D01*
X112897991Y-122037778D01*
X112741466Y-122121443D01*
X112571627Y-122172963D01*
X112505442Y-122179482D01*
X112439260Y-122186000D01*
X112350740Y-122186000D01*
X112284558Y-122179482D01*
X112218373Y-122172963D01*
X112048534Y-122121443D01*
X111892009Y-122037778D01*
X111856271Y-122008448D01*
X111754814Y-121925186D01*
X111671552Y-121823729D01*
X111642222Y-121787991D01*
X111558557Y-121631466D01*
X111507037Y-121461627D01*
X111489641Y-121285000D01*
X111507037Y-121108373D01*
X111558557Y-120938534D01*
X111642222Y-120782009D01*
X111671552Y-120746271D01*
X111754814Y-120644814D01*
X111856271Y-120561552D01*
X111892009Y-120532222D01*
X112048534Y-120448557D01*
X112218373Y-120397037D01*
X112284557Y-120390519D01*
X112350740Y-120384000D01*
X112439260Y-120384000D01*
X112505443Y-120390519D01*
X112505443Y-120390519D01*
G37*
G36*
X109965443Y-120390519D02*
G01*
X110031627Y-120397037D01*
X110201466Y-120448557D01*
X110357991Y-120532222D01*
X110393729Y-120561552D01*
X110495186Y-120644814D01*
X110578448Y-120746271D01*
X110607778Y-120782009D01*
X110691443Y-120938534D01*
X110742963Y-121108373D01*
X110760359Y-121285000D01*
X110742963Y-121461627D01*
X110691443Y-121631466D01*
X110607778Y-121787991D01*
X110578448Y-121823729D01*
X110495186Y-121925186D01*
X110393729Y-122008448D01*
X110357991Y-122037778D01*
X110201466Y-122121443D01*
X110031627Y-122172963D01*
X109965442Y-122179482D01*
X109899260Y-122186000D01*
X109810740Y-122186000D01*
X109744558Y-122179482D01*
X109678373Y-122172963D01*
X109508534Y-122121443D01*
X109352009Y-122037778D01*
X109316271Y-122008448D01*
X109214814Y-121925186D01*
X109131552Y-121823729D01*
X109102222Y-121787991D01*
X109018557Y-121631466D01*
X108967037Y-121461627D01*
X108949641Y-121285000D01*
X108967037Y-121108373D01*
X109018557Y-120938534D01*
X109102222Y-120782009D01*
X109131552Y-120746271D01*
X109214814Y-120644814D01*
X109316271Y-120561552D01*
X109352009Y-120532222D01*
X109508534Y-120448557D01*
X109678373Y-120397037D01*
X109744557Y-120390519D01*
X109810740Y-120384000D01*
X109899260Y-120384000D01*
X109965443Y-120390519D01*
X109965443Y-120390519D01*
G37*
G36*
X107425443Y-120390519D02*
G01*
X107491627Y-120397037D01*
X107661466Y-120448557D01*
X107817991Y-120532222D01*
X107853729Y-120561552D01*
X107955186Y-120644814D01*
X108038448Y-120746271D01*
X108067778Y-120782009D01*
X108151443Y-120938534D01*
X108202963Y-121108373D01*
X108220359Y-121285000D01*
X108202963Y-121461627D01*
X108151443Y-121631466D01*
X108067778Y-121787991D01*
X108038448Y-121823729D01*
X107955186Y-121925186D01*
X107853729Y-122008448D01*
X107817991Y-122037778D01*
X107661466Y-122121443D01*
X107491627Y-122172963D01*
X107425442Y-122179482D01*
X107359260Y-122186000D01*
X107270740Y-122186000D01*
X107204558Y-122179482D01*
X107138373Y-122172963D01*
X106968534Y-122121443D01*
X106812009Y-122037778D01*
X106776271Y-122008448D01*
X106674814Y-121925186D01*
X106591552Y-121823729D01*
X106562222Y-121787991D01*
X106478557Y-121631466D01*
X106427037Y-121461627D01*
X106409641Y-121285000D01*
X106427037Y-121108373D01*
X106478557Y-120938534D01*
X106562222Y-120782009D01*
X106591552Y-120746271D01*
X106674814Y-120644814D01*
X106776271Y-120561552D01*
X106812009Y-120532222D01*
X106968534Y-120448557D01*
X107138373Y-120397037D01*
X107204557Y-120390519D01*
X107270740Y-120384000D01*
X107359260Y-120384000D01*
X107425443Y-120390519D01*
X107425443Y-120390519D01*
G37*
G36*
X104885443Y-120390519D02*
G01*
X104951627Y-120397037D01*
X105121466Y-120448557D01*
X105277991Y-120532222D01*
X105313729Y-120561552D01*
X105415186Y-120644814D01*
X105498448Y-120746271D01*
X105527778Y-120782009D01*
X105611443Y-120938534D01*
X105662963Y-121108373D01*
X105680359Y-121285000D01*
X105662963Y-121461627D01*
X105611443Y-121631466D01*
X105527778Y-121787991D01*
X105498448Y-121823729D01*
X105415186Y-121925186D01*
X105313729Y-122008448D01*
X105277991Y-122037778D01*
X105121466Y-122121443D01*
X104951627Y-122172963D01*
X104885442Y-122179482D01*
X104819260Y-122186000D01*
X104730740Y-122186000D01*
X104664558Y-122179482D01*
X104598373Y-122172963D01*
X104428534Y-122121443D01*
X104272009Y-122037778D01*
X104236271Y-122008448D01*
X104134814Y-121925186D01*
X104051552Y-121823729D01*
X104022222Y-121787991D01*
X103938557Y-121631466D01*
X103887037Y-121461627D01*
X103869641Y-121285000D01*
X103887037Y-121108373D01*
X103938557Y-120938534D01*
X104022222Y-120782009D01*
X104051552Y-120746271D01*
X104134814Y-120644814D01*
X104236271Y-120561552D01*
X104272009Y-120532222D01*
X104428534Y-120448557D01*
X104598373Y-120397037D01*
X104664557Y-120390519D01*
X104730740Y-120384000D01*
X104819260Y-120384000D01*
X104885443Y-120390519D01*
X104885443Y-120390519D01*
G37*
G36*
X103136000Y-122186000D02*
G01*
X101334000Y-122186000D01*
X101334000Y-120384000D01*
X103136000Y-120384000D01*
X103136000Y-122186000D01*
X103136000Y-122186000D01*
G37*
G36*
X153780443Y-120390519D02*
G01*
X153846627Y-120397037D01*
X154016466Y-120448557D01*
X154172991Y-120532222D01*
X154208729Y-120561552D01*
X154310186Y-120644814D01*
X154393448Y-120746271D01*
X154422778Y-120782009D01*
X154506443Y-120938534D01*
X154557963Y-121108373D01*
X154575359Y-121285000D01*
X154557963Y-121461627D01*
X154506443Y-121631466D01*
X154422778Y-121787991D01*
X154393448Y-121823729D01*
X154310186Y-121925186D01*
X154208729Y-122008448D01*
X154172991Y-122037778D01*
X154016466Y-122121443D01*
X153846627Y-122172963D01*
X153780442Y-122179482D01*
X153714260Y-122186000D01*
X153625740Y-122186000D01*
X153559558Y-122179482D01*
X153493373Y-122172963D01*
X153323534Y-122121443D01*
X153167009Y-122037778D01*
X153131271Y-122008448D01*
X153029814Y-121925186D01*
X152946552Y-121823729D01*
X152917222Y-121787991D01*
X152833557Y-121631466D01*
X152782037Y-121461627D01*
X152764641Y-121285000D01*
X152782037Y-121108373D01*
X152833557Y-120938534D01*
X152917222Y-120782009D01*
X152946552Y-120746271D01*
X153029814Y-120644814D01*
X153131271Y-120561552D01*
X153167009Y-120532222D01*
X153323534Y-120448557D01*
X153493373Y-120397037D01*
X153559557Y-120390519D01*
X153625740Y-120384000D01*
X153714260Y-120384000D01*
X153780443Y-120390519D01*
X153780443Y-120390519D01*
G37*
G36*
X122665443Y-120390519D02*
G01*
X122731627Y-120397037D01*
X122901466Y-120448557D01*
X123057991Y-120532222D01*
X123093729Y-120561552D01*
X123195186Y-120644814D01*
X123278448Y-120746271D01*
X123307778Y-120782009D01*
X123391443Y-120938534D01*
X123442963Y-121108373D01*
X123460359Y-121285000D01*
X123442963Y-121461627D01*
X123391443Y-121631466D01*
X123307778Y-121787991D01*
X123278448Y-121823729D01*
X123195186Y-121925186D01*
X123093729Y-122008448D01*
X123057991Y-122037778D01*
X122901466Y-122121443D01*
X122731627Y-122172963D01*
X122665442Y-122179482D01*
X122599260Y-122186000D01*
X122510740Y-122186000D01*
X122444558Y-122179482D01*
X122378373Y-122172963D01*
X122208534Y-122121443D01*
X122052009Y-122037778D01*
X122016271Y-122008448D01*
X121914814Y-121925186D01*
X121831552Y-121823729D01*
X121802222Y-121787991D01*
X121718557Y-121631466D01*
X121667037Y-121461627D01*
X121649641Y-121285000D01*
X121667037Y-121108373D01*
X121718557Y-120938534D01*
X121802222Y-120782009D01*
X121831552Y-120746271D01*
X121914814Y-120644814D01*
X122016271Y-120561552D01*
X122052009Y-120532222D01*
X122208534Y-120448557D01*
X122378373Y-120397037D01*
X122444557Y-120390519D01*
X122510740Y-120384000D01*
X122599260Y-120384000D01*
X122665443Y-120390519D01*
X122665443Y-120390519D01*
G37*
G36*
X140445443Y-120390519D02*
G01*
X140511627Y-120397037D01*
X140681466Y-120448557D01*
X140837991Y-120532222D01*
X140873729Y-120561552D01*
X140975186Y-120644814D01*
X141058448Y-120746271D01*
X141087778Y-120782009D01*
X141171443Y-120938534D01*
X141222963Y-121108373D01*
X141240359Y-121285000D01*
X141222963Y-121461627D01*
X141171443Y-121631466D01*
X141087778Y-121787991D01*
X141058448Y-121823729D01*
X140975186Y-121925186D01*
X140873729Y-122008448D01*
X140837991Y-122037778D01*
X140681466Y-122121443D01*
X140511627Y-122172963D01*
X140445442Y-122179482D01*
X140379260Y-122186000D01*
X140290740Y-122186000D01*
X140224558Y-122179482D01*
X140158373Y-122172963D01*
X139988534Y-122121443D01*
X139832009Y-122037778D01*
X139796271Y-122008448D01*
X139694814Y-121925186D01*
X139611552Y-121823729D01*
X139582222Y-121787991D01*
X139498557Y-121631466D01*
X139447037Y-121461627D01*
X139429641Y-121285000D01*
X139447037Y-121108373D01*
X139498557Y-120938534D01*
X139582222Y-120782009D01*
X139611552Y-120746271D01*
X139694814Y-120644814D01*
X139796271Y-120561552D01*
X139832009Y-120532222D01*
X139988534Y-120448557D01*
X140158373Y-120397037D01*
X140224557Y-120390519D01*
X140290740Y-120384000D01*
X140379260Y-120384000D01*
X140445443Y-120390519D01*
X140445443Y-120390519D01*
G37*
G36*
X151240443Y-120390519D02*
G01*
X151306627Y-120397037D01*
X151476466Y-120448557D01*
X151632991Y-120532222D01*
X151668729Y-120561552D01*
X151770186Y-120644814D01*
X151853448Y-120746271D01*
X151882778Y-120782009D01*
X151966443Y-120938534D01*
X152017963Y-121108373D01*
X152035359Y-121285000D01*
X152017963Y-121461627D01*
X151966443Y-121631466D01*
X151882778Y-121787991D01*
X151853448Y-121823729D01*
X151770186Y-121925186D01*
X151668729Y-122008448D01*
X151632991Y-122037778D01*
X151476466Y-122121443D01*
X151306627Y-122172963D01*
X151240442Y-122179482D01*
X151174260Y-122186000D01*
X151085740Y-122186000D01*
X151019558Y-122179482D01*
X150953373Y-122172963D01*
X150783534Y-122121443D01*
X150627009Y-122037778D01*
X150591271Y-122008448D01*
X150489814Y-121925186D01*
X150406552Y-121823729D01*
X150377222Y-121787991D01*
X150293557Y-121631466D01*
X150242037Y-121461627D01*
X150224641Y-121285000D01*
X150242037Y-121108373D01*
X150293557Y-120938534D01*
X150377222Y-120782009D01*
X150406552Y-120746271D01*
X150489814Y-120644814D01*
X150591271Y-120561552D01*
X150627009Y-120532222D01*
X150783534Y-120448557D01*
X150953373Y-120397037D01*
X151019557Y-120390519D01*
X151085740Y-120384000D01*
X151174260Y-120384000D01*
X151240443Y-120390519D01*
X151240443Y-120390519D01*
G37*
G36*
X120125443Y-120390519D02*
G01*
X120191627Y-120397037D01*
X120361466Y-120448557D01*
X120517991Y-120532222D01*
X120553729Y-120561552D01*
X120655186Y-120644814D01*
X120738448Y-120746271D01*
X120767778Y-120782009D01*
X120851443Y-120938534D01*
X120902963Y-121108373D01*
X120920359Y-121285000D01*
X120902963Y-121461627D01*
X120851443Y-121631466D01*
X120767778Y-121787991D01*
X120738448Y-121823729D01*
X120655186Y-121925186D01*
X120553729Y-122008448D01*
X120517991Y-122037778D01*
X120361466Y-122121443D01*
X120191627Y-122172963D01*
X120125442Y-122179482D01*
X120059260Y-122186000D01*
X119970740Y-122186000D01*
X119904558Y-122179482D01*
X119838373Y-122172963D01*
X119668534Y-122121443D01*
X119512009Y-122037778D01*
X119476271Y-122008448D01*
X119374814Y-121925186D01*
X119291552Y-121823729D01*
X119262222Y-121787991D01*
X119178557Y-121631466D01*
X119127037Y-121461627D01*
X119109641Y-121285000D01*
X119127037Y-121108373D01*
X119178557Y-120938534D01*
X119262222Y-120782009D01*
X119291552Y-120746271D01*
X119374814Y-120644814D01*
X119476271Y-120561552D01*
X119512009Y-120532222D01*
X119668534Y-120448557D01*
X119838373Y-120397037D01*
X119904557Y-120390519D01*
X119970740Y-120384000D01*
X120059260Y-120384000D01*
X120125443Y-120390519D01*
X120125443Y-120390519D01*
G37*
G36*
X128536000Y-122186000D02*
G01*
X126734000Y-122186000D01*
X126734000Y-120384000D01*
X128536000Y-120384000D01*
X128536000Y-122186000D01*
X128536000Y-122186000D01*
G37*
G36*
X117585443Y-120390519D02*
G01*
X117651627Y-120397037D01*
X117821466Y-120448557D01*
X117977991Y-120532222D01*
X118013729Y-120561552D01*
X118115186Y-120644814D01*
X118198448Y-120746271D01*
X118227778Y-120782009D01*
X118311443Y-120938534D01*
X118362963Y-121108373D01*
X118380359Y-121285000D01*
X118362963Y-121461627D01*
X118311443Y-121631466D01*
X118227778Y-121787991D01*
X118198448Y-121823729D01*
X118115186Y-121925186D01*
X118013729Y-122008448D01*
X117977991Y-122037778D01*
X117821466Y-122121443D01*
X117651627Y-122172963D01*
X117585442Y-122179482D01*
X117519260Y-122186000D01*
X117430740Y-122186000D01*
X117364558Y-122179482D01*
X117298373Y-122172963D01*
X117128534Y-122121443D01*
X116972009Y-122037778D01*
X116936271Y-122008448D01*
X116834814Y-121925186D01*
X116751552Y-121823729D01*
X116722222Y-121787991D01*
X116638557Y-121631466D01*
X116587037Y-121461627D01*
X116569641Y-121285000D01*
X116587037Y-121108373D01*
X116638557Y-120938534D01*
X116722222Y-120782009D01*
X116751552Y-120746271D01*
X116834814Y-120644814D01*
X116936271Y-120561552D01*
X116972009Y-120532222D01*
X117128534Y-120448557D01*
X117298373Y-120397037D01*
X117364557Y-120390519D01*
X117430740Y-120384000D01*
X117519260Y-120384000D01*
X117585443Y-120390519D01*
X117585443Y-120390519D01*
G37*
G36*
X142985443Y-120390519D02*
G01*
X143051627Y-120397037D01*
X143221466Y-120448557D01*
X143377991Y-120532222D01*
X143413729Y-120561552D01*
X143515186Y-120644814D01*
X143598448Y-120746271D01*
X143627778Y-120782009D01*
X143711443Y-120938534D01*
X143762963Y-121108373D01*
X143780359Y-121285000D01*
X143762963Y-121461627D01*
X143711443Y-121631466D01*
X143627778Y-121787991D01*
X143598448Y-121823729D01*
X143515186Y-121925186D01*
X143413729Y-122008448D01*
X143377991Y-122037778D01*
X143221466Y-122121443D01*
X143051627Y-122172963D01*
X142985442Y-122179482D01*
X142919260Y-122186000D01*
X142830740Y-122186000D01*
X142764558Y-122179482D01*
X142698373Y-122172963D01*
X142528534Y-122121443D01*
X142372009Y-122037778D01*
X142336271Y-122008448D01*
X142234814Y-121925186D01*
X142151552Y-121823729D01*
X142122222Y-121787991D01*
X142038557Y-121631466D01*
X141987037Y-121461627D01*
X141969641Y-121285000D01*
X141987037Y-121108373D01*
X142038557Y-120938534D01*
X142122222Y-120782009D01*
X142151552Y-120746271D01*
X142234814Y-120644814D01*
X142336271Y-120561552D01*
X142372009Y-120532222D01*
X142528534Y-120448557D01*
X142698373Y-120397037D01*
X142764557Y-120390519D01*
X142830740Y-120384000D01*
X142919260Y-120384000D01*
X142985443Y-120390519D01*
X142985443Y-120390519D01*
G37*
G36*
X130285443Y-120390519D02*
G01*
X130351627Y-120397037D01*
X130521466Y-120448557D01*
X130677991Y-120532222D01*
X130713729Y-120561552D01*
X130815186Y-120644814D01*
X130898448Y-120746271D01*
X130927778Y-120782009D01*
X131011443Y-120938534D01*
X131062963Y-121108373D01*
X131080359Y-121285000D01*
X131062963Y-121461627D01*
X131011443Y-121631466D01*
X130927778Y-121787991D01*
X130898448Y-121823729D01*
X130815186Y-121925186D01*
X130713729Y-122008448D01*
X130677991Y-122037778D01*
X130521466Y-122121443D01*
X130351627Y-122172963D01*
X130285442Y-122179482D01*
X130219260Y-122186000D01*
X130130740Y-122186000D01*
X130064558Y-122179482D01*
X129998373Y-122172963D01*
X129828534Y-122121443D01*
X129672009Y-122037778D01*
X129636271Y-122008448D01*
X129534814Y-121925186D01*
X129451552Y-121823729D01*
X129422222Y-121787991D01*
X129338557Y-121631466D01*
X129287037Y-121461627D01*
X129269641Y-121285000D01*
X129287037Y-121108373D01*
X129338557Y-120938534D01*
X129422222Y-120782009D01*
X129451552Y-120746271D01*
X129534814Y-120644814D01*
X129636271Y-120561552D01*
X129672009Y-120532222D01*
X129828534Y-120448557D01*
X129998373Y-120397037D01*
X130064557Y-120390519D01*
X130130740Y-120384000D01*
X130219260Y-120384000D01*
X130285443Y-120390519D01*
X130285443Y-120390519D01*
G37*
G36*
X138696000Y-122186000D02*
G01*
X136894000Y-122186000D01*
X136894000Y-120384000D01*
X138696000Y-120384000D01*
X138696000Y-122186000D01*
X138696000Y-122186000D01*
G37*
G36*
X114566000Y-118376000D02*
G01*
X112764000Y-118376000D01*
X112764000Y-116574000D01*
X114566000Y-116574000D01*
X114566000Y-118376000D01*
X114566000Y-118376000D01*
G37*
G36*
X111235443Y-116580519D02*
G01*
X111301627Y-116587037D01*
X111471466Y-116638557D01*
X111627991Y-116722222D01*
X111630157Y-116724000D01*
X111765186Y-116834814D01*
X111848448Y-116936271D01*
X111877778Y-116972009D01*
X111961443Y-117128534D01*
X112012963Y-117298373D01*
X112030359Y-117475000D01*
X112012963Y-117651627D01*
X111961443Y-117821466D01*
X111877778Y-117977991D01*
X111848448Y-118013729D01*
X111765186Y-118115186D01*
X111665323Y-118197140D01*
X111627991Y-118227778D01*
X111471466Y-118311443D01*
X111301627Y-118362963D01*
X111235442Y-118369482D01*
X111169260Y-118376000D01*
X111080740Y-118376000D01*
X111014558Y-118369482D01*
X110948373Y-118362963D01*
X110778534Y-118311443D01*
X110622009Y-118227778D01*
X110584677Y-118197140D01*
X110484814Y-118115186D01*
X110401552Y-118013729D01*
X110372222Y-117977991D01*
X110288557Y-117821466D01*
X110237037Y-117651627D01*
X110219641Y-117475000D01*
X110237037Y-117298373D01*
X110288557Y-117128534D01*
X110372222Y-116972009D01*
X110401552Y-116936271D01*
X110484814Y-116834814D01*
X110619843Y-116724000D01*
X110622009Y-116722222D01*
X110778534Y-116638557D01*
X110948373Y-116587037D01*
X111014557Y-116580519D01*
X111080740Y-116574000D01*
X111169260Y-116574000D01*
X111235443Y-116580519D01*
X111235443Y-116580519D01*
G37*
G36*
X124679059Y-116752860D02*
G01*
X124815732Y-116809472D01*
X124938735Y-116891660D01*
X125043340Y-116996265D01*
X125125528Y-117119268D01*
X125125529Y-117119270D01*
X125182140Y-117255941D01*
X125211000Y-117401032D01*
X125211000Y-117548968D01*
X125190580Y-117651627D01*
X125182140Y-117694059D01*
X125125528Y-117830732D01*
X125043340Y-117953735D01*
X124938735Y-118058340D01*
X124815732Y-118140528D01*
X124815731Y-118140529D01*
X124815730Y-118140529D01*
X124679059Y-118197140D01*
X124533968Y-118226000D01*
X124386032Y-118226000D01*
X124240941Y-118197140D01*
X124104270Y-118140529D01*
X124104269Y-118140529D01*
X124104268Y-118140528D01*
X123981265Y-118058340D01*
X123876660Y-117953735D01*
X123794472Y-117830732D01*
X123737860Y-117694059D01*
X123729420Y-117651627D01*
X123709000Y-117548968D01*
X123709000Y-117401032D01*
X123737860Y-117255941D01*
X123794471Y-117119270D01*
X123794472Y-117119268D01*
X123876660Y-116996265D01*
X123981265Y-116891660D01*
X124104268Y-116809472D01*
X124240941Y-116752860D01*
X124386032Y-116724000D01*
X124533968Y-116724000D01*
X124679059Y-116752860D01*
X124679059Y-116752860D01*
G37*
G36*
X135474059Y-116752860D02*
G01*
X135610732Y-116809472D01*
X135733735Y-116891660D01*
X135838340Y-116996265D01*
X135920528Y-117119268D01*
X135920529Y-117119270D01*
X135977140Y-117255941D01*
X136006000Y-117401032D01*
X136006000Y-117548968D01*
X135985580Y-117651627D01*
X135977140Y-117694059D01*
X135920528Y-117830732D01*
X135838340Y-117953735D01*
X135733735Y-118058340D01*
X135610732Y-118140528D01*
X135610731Y-118140529D01*
X135610730Y-118140529D01*
X135474059Y-118197140D01*
X135328968Y-118226000D01*
X135181032Y-118226000D01*
X135035941Y-118197140D01*
X134899270Y-118140529D01*
X134899269Y-118140529D01*
X134899268Y-118140528D01*
X134776265Y-118058340D01*
X134671660Y-117953735D01*
X134589472Y-117830732D01*
X134532860Y-117694059D01*
X134524420Y-117651627D01*
X134504000Y-117548968D01*
X134504000Y-117401032D01*
X134532860Y-117255941D01*
X134589471Y-117119270D01*
X134589472Y-117119268D01*
X134671660Y-116996265D01*
X134776265Y-116891660D01*
X134899268Y-116809472D01*
X135035941Y-116752860D01*
X135181032Y-116724000D01*
X135328968Y-116724000D01*
X135474059Y-116752860D01*
X135474059Y-116752860D01*
G37*
G36*
X138014059Y-116752860D02*
G01*
X138150732Y-116809472D01*
X138273735Y-116891660D01*
X138378340Y-116996265D01*
X138460528Y-117119268D01*
X138460529Y-117119270D01*
X138517140Y-117255941D01*
X138546000Y-117401032D01*
X138546000Y-117548968D01*
X138525580Y-117651627D01*
X138517140Y-117694059D01*
X138460528Y-117830732D01*
X138378340Y-117953735D01*
X138273735Y-118058340D01*
X138150732Y-118140528D01*
X138150731Y-118140529D01*
X138150730Y-118140529D01*
X138014059Y-118197140D01*
X137868968Y-118226000D01*
X137721032Y-118226000D01*
X137575941Y-118197140D01*
X137439270Y-118140529D01*
X137439269Y-118140529D01*
X137439268Y-118140528D01*
X137316265Y-118058340D01*
X137211660Y-117953735D01*
X137129472Y-117830732D01*
X137072860Y-117694059D01*
X137064420Y-117651627D01*
X137044000Y-117548968D01*
X137044000Y-117401032D01*
X137072860Y-117255941D01*
X137129471Y-117119270D01*
X137129472Y-117119268D01*
X137211660Y-116996265D01*
X137316265Y-116891660D01*
X137439268Y-116809472D01*
X137575941Y-116752860D01*
X137721032Y-116724000D01*
X137868968Y-116724000D01*
X138014059Y-116752860D01*
X138014059Y-116752860D01*
G37*
G36*
X107388665Y-116092622D02*
G01*
X107462222Y-116099867D01*
X107603786Y-116142810D01*
X107734252Y-116212546D01*
X107764040Y-116236992D01*
X107848607Y-116306393D01*
X107918008Y-116390960D01*
X107942454Y-116420748D01*
X108012190Y-116551214D01*
X108055133Y-116692778D01*
X108069633Y-116840000D01*
X108055133Y-116987222D01*
X108012190Y-117128786D01*
X107942454Y-117259252D01*
X107918008Y-117289040D01*
X107848607Y-117373607D01*
X107764040Y-117443008D01*
X107734252Y-117467454D01*
X107603786Y-117537190D01*
X107462222Y-117580133D01*
X107388665Y-117587378D01*
X107351888Y-117591000D01*
X107278112Y-117591000D01*
X107241335Y-117587378D01*
X107167778Y-117580133D01*
X107026214Y-117537190D01*
X106895748Y-117467454D01*
X106865960Y-117443008D01*
X106781393Y-117373607D01*
X106711992Y-117289040D01*
X106687546Y-117259252D01*
X106617810Y-117128786D01*
X106574867Y-116987222D01*
X106560367Y-116840000D01*
X106574867Y-116692778D01*
X106617810Y-116551214D01*
X106687546Y-116420748D01*
X106711992Y-116390960D01*
X106781393Y-116306393D01*
X106865960Y-116236992D01*
X106895748Y-116212546D01*
X107026214Y-116142810D01*
X107167778Y-116099867D01*
X107241335Y-116092622D01*
X107278112Y-116089000D01*
X107351888Y-116089000D01*
X107388665Y-116092622D01*
X107388665Y-116092622D01*
G37*
G36*
X143383617Y-115363420D02*
G01*
X143474403Y-115390960D01*
X143506335Y-115400646D01*
X143619424Y-115461094D01*
X143718554Y-115542447D01*
X143799906Y-115641575D01*
X143860354Y-115754664D01*
X143870040Y-115786596D01*
X143897580Y-115877382D01*
X143907000Y-115973027D01*
X143907000Y-116436972D01*
X143897580Y-116532618D01*
X143885027Y-116574000D01*
X143860354Y-116655336D01*
X143799906Y-116768425D01*
X143718554Y-116867554D01*
X143619425Y-116948906D01*
X143506336Y-117009354D01*
X143474404Y-117019040D01*
X143383618Y-117046580D01*
X143256000Y-117059149D01*
X143128383Y-117046580D01*
X143037597Y-117019040D01*
X143005665Y-117009354D01*
X142892576Y-116948906D01*
X142793447Y-116867553D01*
X142712094Y-116768425D01*
X142651646Y-116655336D01*
X142626973Y-116574000D01*
X142614420Y-116532618D01*
X142605000Y-116436973D01*
X142605000Y-115973028D01*
X142614420Y-115877383D01*
X142651645Y-115754669D01*
X142651646Y-115754665D01*
X142712094Y-115641576D01*
X142793447Y-115542446D01*
X142892575Y-115461094D01*
X143005664Y-115400646D01*
X143037596Y-115390960D01*
X143128382Y-115363420D01*
X143256000Y-115350851D01*
X143383617Y-115363420D01*
X143383617Y-115363420D01*
G37*
G36*
X130175617Y-115363420D02*
G01*
X130266403Y-115390960D01*
X130298335Y-115400646D01*
X130411424Y-115461094D01*
X130510554Y-115542447D01*
X130591906Y-115641575D01*
X130652354Y-115754664D01*
X130662040Y-115786596D01*
X130689580Y-115877382D01*
X130699000Y-115973027D01*
X130699000Y-116436972D01*
X130689580Y-116532618D01*
X130677027Y-116574000D01*
X130652354Y-116655336D01*
X130591906Y-116768425D01*
X130510554Y-116867554D01*
X130411425Y-116948906D01*
X130298336Y-117009354D01*
X130266404Y-117019040D01*
X130175618Y-117046580D01*
X130048000Y-117059149D01*
X129920383Y-117046580D01*
X129829597Y-117019040D01*
X129797665Y-117009354D01*
X129684576Y-116948906D01*
X129585447Y-116867553D01*
X129504094Y-116768425D01*
X129443646Y-116655336D01*
X129418973Y-116574000D01*
X129406420Y-116532618D01*
X129397000Y-116436973D01*
X129397000Y-115973028D01*
X129406420Y-115877383D01*
X129443645Y-115754669D01*
X129443646Y-115754665D01*
X129504094Y-115641576D01*
X129585447Y-115542446D01*
X129684575Y-115461094D01*
X129797664Y-115400646D01*
X129829596Y-115390960D01*
X129920382Y-115363420D01*
X130048000Y-115350851D01*
X130175617Y-115363420D01*
X130175617Y-115363420D01*
G37*
G36*
X150711000Y-117016000D02*
G01*
X149009000Y-117016000D01*
X149009000Y-115314000D01*
X150711000Y-115314000D01*
X150711000Y-117016000D01*
X150711000Y-117016000D01*
G37*
G36*
X118949473Y-113625938D02*
G01*
X119077049Y-113678782D01*
X119191859Y-113755495D01*
X119289505Y-113853141D01*
X119366218Y-113967951D01*
X119419062Y-114095527D01*
X119446000Y-114230956D01*
X119446000Y-114369044D01*
X119419062Y-114504473D01*
X119366218Y-114632049D01*
X119331134Y-114684556D01*
X119319583Y-114706166D01*
X119312470Y-114729615D01*
X119310068Y-114754001D01*
X119312470Y-114778387D01*
X119319583Y-114801836D01*
X119331134Y-114823447D01*
X119346680Y-114842389D01*
X119365622Y-114857934D01*
X119387232Y-114869485D01*
X119410681Y-114876598D01*
X119435067Y-114879000D01*
X120716000Y-114879000D01*
X120716000Y-116281000D01*
X119314000Y-116281000D01*
X119314000Y-114996749D01*
X119311598Y-114972363D01*
X119304485Y-114948914D01*
X119292934Y-114927303D01*
X119277389Y-114908361D01*
X119258447Y-114892816D01*
X119236836Y-114881265D01*
X119213387Y-114874152D01*
X119189001Y-114871750D01*
X119164615Y-114874152D01*
X119141166Y-114881265D01*
X119119556Y-114892816D01*
X119077049Y-114921218D01*
X118949473Y-114974062D01*
X118814044Y-115001000D01*
X118675956Y-115001000D01*
X118540527Y-114974062D01*
X118412951Y-114921218D01*
X118298141Y-114844505D01*
X118200495Y-114746859D01*
X118123782Y-114632049D01*
X118070938Y-114504473D01*
X118044000Y-114369044D01*
X118044000Y-114230956D01*
X118070938Y-114095527D01*
X118123782Y-113967951D01*
X118200495Y-113853141D01*
X118298141Y-113755495D01*
X118412951Y-113678782D01*
X118540527Y-113625938D01*
X118675956Y-113599000D01*
X118814044Y-113599000D01*
X118949473Y-113625938D01*
X118949473Y-113625938D01*
G37*
G36*
X144589855Y-114287140D02*
G01*
X144653618Y-114293420D01*
X144728054Y-114316000D01*
X144776336Y-114330646D01*
X144889425Y-114391094D01*
X144988554Y-114472446D01*
X145069906Y-114571575D01*
X145130354Y-114684664D01*
X145130355Y-114684668D01*
X145167580Y-114807382D01*
X145180149Y-114935000D01*
X145167580Y-115062618D01*
X145150690Y-115118297D01*
X145130354Y-115185336D01*
X145069906Y-115298425D01*
X144988554Y-115397554D01*
X144889425Y-115478906D01*
X144776336Y-115539354D01*
X144744404Y-115549040D01*
X144653618Y-115576580D01*
X144589855Y-115582860D01*
X144557974Y-115586000D01*
X144494026Y-115586000D01*
X144462145Y-115582860D01*
X144398382Y-115576580D01*
X144307596Y-115549040D01*
X144275664Y-115539354D01*
X144162575Y-115478906D01*
X144063446Y-115397554D01*
X143982094Y-115298425D01*
X143921646Y-115185336D01*
X143901310Y-115118297D01*
X143884420Y-115062618D01*
X143871851Y-114935000D01*
X143884420Y-114807382D01*
X143921645Y-114684668D01*
X143921646Y-114684664D01*
X143982094Y-114571575D01*
X144063446Y-114472446D01*
X144162575Y-114391094D01*
X144275664Y-114330646D01*
X144323946Y-114316000D01*
X144398382Y-114293420D01*
X144462145Y-114287140D01*
X144494026Y-114284000D01*
X144557974Y-114284000D01*
X144589855Y-114287140D01*
X144589855Y-114287140D01*
G37*
G36*
X131381855Y-114287140D02*
G01*
X131445618Y-114293420D01*
X131520054Y-114316000D01*
X131568336Y-114330646D01*
X131681425Y-114391094D01*
X131780554Y-114472446D01*
X131861906Y-114571575D01*
X131922354Y-114684664D01*
X131922355Y-114684668D01*
X131959580Y-114807382D01*
X131972149Y-114935000D01*
X131959580Y-115062618D01*
X131942690Y-115118297D01*
X131922354Y-115185336D01*
X131861906Y-115298425D01*
X131780554Y-115397554D01*
X131681425Y-115478906D01*
X131568336Y-115539354D01*
X131536404Y-115549040D01*
X131445618Y-115576580D01*
X131381855Y-115582860D01*
X131349974Y-115586000D01*
X131286026Y-115586000D01*
X131254145Y-115582860D01*
X131190382Y-115576580D01*
X131099596Y-115549040D01*
X131067664Y-115539354D01*
X130954575Y-115478906D01*
X130855446Y-115397554D01*
X130774094Y-115298425D01*
X130713646Y-115185336D01*
X130693310Y-115118297D01*
X130676420Y-115062618D01*
X130663851Y-114935000D01*
X130676420Y-114807382D01*
X130713645Y-114684668D01*
X130713646Y-114684664D01*
X130774094Y-114571575D01*
X130855446Y-114472446D01*
X130954575Y-114391094D01*
X131067664Y-114330646D01*
X131115946Y-114316000D01*
X131190382Y-114293420D01*
X131254145Y-114287140D01*
X131286026Y-114284000D01*
X131349974Y-114284000D01*
X131381855Y-114287140D01*
X131381855Y-114287140D01*
G37*
G36*
X110183228Y-113481703D02*
G01*
X110338100Y-113545853D01*
X110477481Y-113638985D01*
X110596015Y-113757519D01*
X110689147Y-113896900D01*
X110753297Y-114051772D01*
X110786000Y-114216184D01*
X110786000Y-114383816D01*
X110753297Y-114548228D01*
X110689147Y-114703100D01*
X110596015Y-114842481D01*
X110477481Y-114961015D01*
X110338100Y-115054147D01*
X110183228Y-115118297D01*
X110018816Y-115151000D01*
X109851184Y-115151000D01*
X109686772Y-115118297D01*
X109531900Y-115054147D01*
X109392519Y-114961015D01*
X109273985Y-114842481D01*
X109180853Y-114703100D01*
X109116703Y-114548228D01*
X109084000Y-114383816D01*
X109084000Y-114216184D01*
X109116703Y-114051772D01*
X109180853Y-113896900D01*
X109273985Y-113757519D01*
X109392519Y-113638985D01*
X109531900Y-113545853D01*
X109686772Y-113481703D01*
X109851184Y-113449000D01*
X110018816Y-113449000D01*
X110183228Y-113481703D01*
X110183228Y-113481703D01*
G37*
G36*
X115183228Y-113481703D02*
G01*
X115338100Y-113545853D01*
X115477481Y-113638985D01*
X115596015Y-113757519D01*
X115689147Y-113896900D01*
X115753297Y-114051772D01*
X115786000Y-114216184D01*
X115786000Y-114383816D01*
X115753297Y-114548228D01*
X115689147Y-114703100D01*
X115596015Y-114842481D01*
X115477481Y-114961015D01*
X115338100Y-115054147D01*
X115183228Y-115118297D01*
X115018816Y-115151000D01*
X114851184Y-115151000D01*
X114686772Y-115118297D01*
X114531900Y-115054147D01*
X114392519Y-114961015D01*
X114273985Y-114842481D01*
X114180853Y-114703100D01*
X114116703Y-114548228D01*
X114084000Y-114383816D01*
X114084000Y-114216184D01*
X114116703Y-114051772D01*
X114180853Y-113896900D01*
X114273985Y-113757519D01*
X114392519Y-113638985D01*
X114531900Y-113545853D01*
X114686772Y-113481703D01*
X114851184Y-113449000D01*
X115018816Y-113449000D01*
X115183228Y-113481703D01*
X115183228Y-113481703D01*
G37*
G36*
X150108228Y-112846703D02*
G01*
X150263100Y-112910853D01*
X150402481Y-113003985D01*
X150521015Y-113122519D01*
X150614147Y-113261900D01*
X150678297Y-113416772D01*
X150711000Y-113581184D01*
X150711000Y-113748816D01*
X150678297Y-113913228D01*
X150614147Y-114068100D01*
X150521015Y-114207481D01*
X150402481Y-114326015D01*
X150263100Y-114419147D01*
X150108228Y-114483297D01*
X149943816Y-114516000D01*
X149776184Y-114516000D01*
X149611772Y-114483297D01*
X149456900Y-114419147D01*
X149317519Y-114326015D01*
X149198985Y-114207481D01*
X149105853Y-114068100D01*
X149041703Y-113913228D01*
X149009000Y-113748816D01*
X149009000Y-113581184D01*
X149041703Y-113416772D01*
X149105853Y-113261900D01*
X149198985Y-113122519D01*
X149317519Y-113003985D01*
X149456900Y-112910853D01*
X149611772Y-112846703D01*
X149776184Y-112814000D01*
X149943816Y-112814000D01*
X150108228Y-112846703D01*
X150108228Y-112846703D01*
G37*
G36*
X130111855Y-113017140D02*
G01*
X130175618Y-113023420D01*
X130266404Y-113050960D01*
X130298336Y-113060646D01*
X130411425Y-113121094D01*
X130510554Y-113202446D01*
X130591906Y-113301575D01*
X130652354Y-113414664D01*
X130652355Y-113414668D01*
X130689580Y-113537382D01*
X130702149Y-113665000D01*
X130689580Y-113792618D01*
X130671221Y-113853138D01*
X130652354Y-113915336D01*
X130591906Y-114028425D01*
X130510554Y-114127554D01*
X130411425Y-114208906D01*
X130298336Y-114269354D01*
X130266404Y-114279040D01*
X130175618Y-114306580D01*
X130111855Y-114312860D01*
X130079974Y-114316000D01*
X130016026Y-114316000D01*
X129984145Y-114312860D01*
X129920382Y-114306580D01*
X129829596Y-114279040D01*
X129797664Y-114269354D01*
X129684575Y-114208906D01*
X129585446Y-114127554D01*
X129504094Y-114028425D01*
X129443646Y-113915336D01*
X129424779Y-113853138D01*
X129406420Y-113792618D01*
X129393851Y-113665000D01*
X129406420Y-113537382D01*
X129443645Y-113414668D01*
X129443646Y-113414664D01*
X129504094Y-113301575D01*
X129585446Y-113202446D01*
X129684575Y-113121094D01*
X129797664Y-113060646D01*
X129829596Y-113050960D01*
X129920382Y-113023420D01*
X129984145Y-113017140D01*
X130016026Y-113014000D01*
X130079974Y-113014000D01*
X130111855Y-113017140D01*
X130111855Y-113017140D01*
G37*
G36*
X143319855Y-113017140D02*
G01*
X143383618Y-113023420D01*
X143474404Y-113050960D01*
X143506336Y-113060646D01*
X143619425Y-113121094D01*
X143718554Y-113202446D01*
X143799906Y-113301575D01*
X143860354Y-113414664D01*
X143860355Y-113414668D01*
X143897580Y-113537382D01*
X143910149Y-113665000D01*
X143897580Y-113792618D01*
X143879221Y-113853138D01*
X143860354Y-113915336D01*
X143799906Y-114028425D01*
X143718554Y-114127554D01*
X143619425Y-114208906D01*
X143506336Y-114269354D01*
X143474404Y-114279040D01*
X143383618Y-114306580D01*
X143319855Y-114312860D01*
X143287974Y-114316000D01*
X143224026Y-114316000D01*
X143192145Y-114312860D01*
X143128382Y-114306580D01*
X143037596Y-114279040D01*
X143005664Y-114269354D01*
X142892575Y-114208906D01*
X142793446Y-114127554D01*
X142712094Y-114028425D01*
X142651646Y-113915336D01*
X142632779Y-113853138D01*
X142614420Y-113792618D01*
X142601851Y-113665000D01*
X142614420Y-113537382D01*
X142651645Y-113414668D01*
X142651646Y-113414664D01*
X142712094Y-113301575D01*
X142793446Y-113202446D01*
X142892575Y-113121094D01*
X143005664Y-113060646D01*
X143037596Y-113050960D01*
X143128382Y-113023420D01*
X143192145Y-113017140D01*
X143224026Y-113014000D01*
X143287974Y-113014000D01*
X143319855Y-113017140D01*
X143319855Y-113017140D01*
G37*
G36*
X120219473Y-112365938D02*
G01*
X120347049Y-112418782D01*
X120461859Y-112495495D01*
X120559505Y-112593141D01*
X120636218Y-112707951D01*
X120689062Y-112835527D01*
X120716000Y-112970956D01*
X120716000Y-113109044D01*
X120689062Y-113244473D01*
X120636218Y-113372049D01*
X120559505Y-113486859D01*
X120461859Y-113584505D01*
X120347049Y-113661218D01*
X120219473Y-113714062D01*
X120084044Y-113741000D01*
X119945956Y-113741000D01*
X119810527Y-113714062D01*
X119682951Y-113661218D01*
X119568141Y-113584505D01*
X119470495Y-113486859D01*
X119393782Y-113372049D01*
X119340938Y-113244473D01*
X119314000Y-113109044D01*
X119314000Y-112970956D01*
X119340938Y-112835527D01*
X119393782Y-112707951D01*
X119470495Y-112593141D01*
X119568141Y-112495495D01*
X119682951Y-112418782D01*
X119810527Y-112365938D01*
X119945956Y-112339000D01*
X120084044Y-112339000D01*
X120219473Y-112365938D01*
X120219473Y-112365938D01*
G37*
G36*
X124533665Y-111647622D02*
G01*
X124607222Y-111654867D01*
X124748786Y-111697810D01*
X124879252Y-111767546D01*
X124909040Y-111791992D01*
X124993607Y-111861393D01*
X125063008Y-111945960D01*
X125087454Y-111975748D01*
X125157190Y-112106214D01*
X125200133Y-112247778D01*
X125214633Y-112395000D01*
X125200133Y-112542222D01*
X125157190Y-112683786D01*
X125087454Y-112814252D01*
X125069995Y-112835526D01*
X124993607Y-112928607D01*
X124909040Y-112998008D01*
X124879252Y-113022454D01*
X124748786Y-113092190D01*
X124607222Y-113135133D01*
X124533665Y-113142378D01*
X124496888Y-113146000D01*
X124423112Y-113146000D01*
X124386335Y-113142378D01*
X124312778Y-113135133D01*
X124171214Y-113092190D01*
X124040748Y-113022454D01*
X124010960Y-112998008D01*
X123926393Y-112928607D01*
X123850005Y-112835526D01*
X123832546Y-112814252D01*
X123762810Y-112683786D01*
X123719867Y-112542222D01*
X123705367Y-112395000D01*
X123719867Y-112247778D01*
X123762810Y-112106214D01*
X123832546Y-111975748D01*
X123856992Y-111945960D01*
X123926393Y-111861393D01*
X124010960Y-111791992D01*
X124040748Y-111767546D01*
X124171214Y-111697810D01*
X124312778Y-111654867D01*
X124386335Y-111647622D01*
X124423112Y-111644000D01*
X124496888Y-111644000D01*
X124533665Y-111647622D01*
X124533665Y-111647622D01*
G37*
G36*
X135328665Y-111647622D02*
G01*
X135402222Y-111654867D01*
X135543786Y-111697810D01*
X135674252Y-111767546D01*
X135704040Y-111791992D01*
X135788607Y-111861393D01*
X135858008Y-111945960D01*
X135882454Y-111975748D01*
X135952190Y-112106214D01*
X135995133Y-112247778D01*
X136009633Y-112395000D01*
X135995133Y-112542222D01*
X135952190Y-112683786D01*
X135882454Y-112814252D01*
X135864995Y-112835526D01*
X135788607Y-112928607D01*
X135704040Y-112998008D01*
X135674252Y-113022454D01*
X135543786Y-113092190D01*
X135402222Y-113135133D01*
X135328665Y-113142378D01*
X135291888Y-113146000D01*
X135218112Y-113146000D01*
X135181335Y-113142378D01*
X135107778Y-113135133D01*
X134966214Y-113092190D01*
X134835748Y-113022454D01*
X134805960Y-112998008D01*
X134721393Y-112928607D01*
X134645005Y-112835526D01*
X134627546Y-112814252D01*
X134557810Y-112683786D01*
X134514867Y-112542222D01*
X134500367Y-112395000D01*
X134514867Y-112247778D01*
X134557810Y-112106214D01*
X134627546Y-111975748D01*
X134651992Y-111945960D01*
X134721393Y-111861393D01*
X134805960Y-111791992D01*
X134835748Y-111767546D01*
X134966214Y-111697810D01*
X135107778Y-111654867D01*
X135181335Y-111647622D01*
X135218112Y-111644000D01*
X135291888Y-111644000D01*
X135328665Y-111647622D01*
X135328665Y-111647622D01*
G37*
G36*
X137868665Y-111647622D02*
G01*
X137942222Y-111654867D01*
X138083786Y-111697810D01*
X138214252Y-111767546D01*
X138244040Y-111791992D01*
X138328607Y-111861393D01*
X138398008Y-111945960D01*
X138422454Y-111975748D01*
X138492190Y-112106214D01*
X138535133Y-112247778D01*
X138549633Y-112395000D01*
X138535133Y-112542222D01*
X138492190Y-112683786D01*
X138422454Y-112814252D01*
X138404995Y-112835526D01*
X138328607Y-112928607D01*
X138244040Y-112998008D01*
X138214252Y-113022454D01*
X138083786Y-113092190D01*
X137942222Y-113135133D01*
X137868665Y-113142378D01*
X137831888Y-113146000D01*
X137758112Y-113146000D01*
X137721335Y-113142378D01*
X137647778Y-113135133D01*
X137506214Y-113092190D01*
X137375748Y-113022454D01*
X137345960Y-112998008D01*
X137261393Y-112928607D01*
X137185005Y-112835526D01*
X137167546Y-112814252D01*
X137097810Y-112683786D01*
X137054867Y-112542222D01*
X137040367Y-112395000D01*
X137054867Y-112247778D01*
X137097810Y-112106214D01*
X137167546Y-111975748D01*
X137191992Y-111945960D01*
X137261393Y-111861393D01*
X137345960Y-111791992D01*
X137375748Y-111767546D01*
X137506214Y-111697810D01*
X137647778Y-111654867D01*
X137721335Y-111647622D01*
X137758112Y-111644000D01*
X137831888Y-111644000D01*
X137868665Y-111647622D01*
X137868665Y-111647622D01*
G37*
G36*
X107534059Y-111037860D02*
G01*
X107594294Y-111062810D01*
X107670732Y-111094472D01*
X107793735Y-111176660D01*
X107898340Y-111281265D01*
X107980528Y-111404268D01*
X107980529Y-111404270D01*
X108037140Y-111540941D01*
X108066000Y-111686032D01*
X108066000Y-111833968D01*
X108037140Y-111979059D01*
X107984471Y-112106214D01*
X107980528Y-112115732D01*
X107898340Y-112238735D01*
X107793735Y-112343340D01*
X107670732Y-112425528D01*
X107670731Y-112425529D01*
X107670730Y-112425529D01*
X107534059Y-112482140D01*
X107388968Y-112511000D01*
X107241032Y-112511000D01*
X107095941Y-112482140D01*
X106959270Y-112425529D01*
X106959269Y-112425529D01*
X106959268Y-112425528D01*
X106836265Y-112343340D01*
X106731660Y-112238735D01*
X106649472Y-112115732D01*
X106645530Y-112106214D01*
X106592860Y-111979059D01*
X106564000Y-111833968D01*
X106564000Y-111686032D01*
X106592860Y-111540941D01*
X106649471Y-111404270D01*
X106649472Y-111404268D01*
X106731660Y-111281265D01*
X106836265Y-111176660D01*
X106959268Y-111094472D01*
X107035707Y-111062810D01*
X107095941Y-111037860D01*
X107241032Y-111009000D01*
X107388968Y-111009000D01*
X107534059Y-111037860D01*
X107534059Y-111037860D01*
G37*
G36*
X115154059Y-111037860D02*
G01*
X115214294Y-111062810D01*
X115290732Y-111094472D01*
X115413735Y-111176660D01*
X115518340Y-111281265D01*
X115600528Y-111404268D01*
X115600529Y-111404270D01*
X115657140Y-111540941D01*
X115686000Y-111686032D01*
X115686000Y-111833968D01*
X115657140Y-111979059D01*
X115604471Y-112106214D01*
X115600528Y-112115732D01*
X115518340Y-112238735D01*
X115413735Y-112343340D01*
X115290732Y-112425528D01*
X115290731Y-112425529D01*
X115290730Y-112425529D01*
X115154059Y-112482140D01*
X115008968Y-112511000D01*
X114861032Y-112511000D01*
X114715941Y-112482140D01*
X114579270Y-112425529D01*
X114579269Y-112425529D01*
X114579268Y-112425528D01*
X114456265Y-112343340D01*
X114351660Y-112238735D01*
X114269472Y-112115732D01*
X114265530Y-112106214D01*
X114212860Y-111979059D01*
X114184000Y-111833968D01*
X114184000Y-111686032D01*
X114212860Y-111540941D01*
X114269471Y-111404270D01*
X114269472Y-111404268D01*
X114351660Y-111281265D01*
X114456265Y-111176660D01*
X114579268Y-111094472D01*
X114655707Y-111062810D01*
X114715941Y-111037860D01*
X114861032Y-111009000D01*
X115008968Y-111009000D01*
X115154059Y-111037860D01*
X115154059Y-111037860D01*
G37*
G36*
X109928665Y-111012622D02*
G01*
X110002222Y-111019867D01*
X110143786Y-111062810D01*
X110274252Y-111132546D01*
X110304040Y-111156992D01*
X110388607Y-111226393D01*
X110458008Y-111310960D01*
X110482454Y-111340748D01*
X110552190Y-111471214D01*
X110595133Y-111612778D01*
X110609633Y-111760000D01*
X110595133Y-111907222D01*
X110552190Y-112048786D01*
X110482454Y-112179252D01*
X110458008Y-112209040D01*
X110388607Y-112293607D01*
X110328004Y-112343341D01*
X110274252Y-112387454D01*
X110143786Y-112457190D01*
X110002222Y-112500133D01*
X109928665Y-112507378D01*
X109891888Y-112511000D01*
X109818112Y-112511000D01*
X109781335Y-112507378D01*
X109707778Y-112500133D01*
X109566214Y-112457190D01*
X109435748Y-112387454D01*
X109381996Y-112343341D01*
X109321393Y-112293607D01*
X109251992Y-112209040D01*
X109227546Y-112179252D01*
X109157810Y-112048786D01*
X109114867Y-111907222D01*
X109100367Y-111760000D01*
X109114867Y-111612778D01*
X109157810Y-111471214D01*
X109227546Y-111340748D01*
X109251992Y-111310960D01*
X109321393Y-111226393D01*
X109405960Y-111156992D01*
X109435748Y-111132546D01*
X109566214Y-111062810D01*
X109707778Y-111019867D01*
X109781335Y-111012622D01*
X109818112Y-111009000D01*
X109891888Y-111009000D01*
X109928665Y-111012622D01*
X109928665Y-111012622D01*
G37*
G36*
X154571000Y-111391000D02*
G01*
X152769000Y-111391000D01*
X152769000Y-109589000D01*
X154571000Y-109589000D01*
X154571000Y-111391000D01*
X154571000Y-111391000D01*
G37*
G36*
X150108228Y-109036703D02*
G01*
X150263100Y-109100853D01*
X150402481Y-109193985D01*
X150521015Y-109312519D01*
X150614147Y-109451900D01*
X150678297Y-109606772D01*
X150711000Y-109771184D01*
X150711000Y-109938816D01*
X150678297Y-110103228D01*
X150614147Y-110258100D01*
X150521015Y-110397481D01*
X150402481Y-110516015D01*
X150263100Y-110609147D01*
X150108228Y-110673297D01*
X149943816Y-110706000D01*
X149776184Y-110706000D01*
X149611772Y-110673297D01*
X149456900Y-110609147D01*
X149317519Y-110516015D01*
X149198985Y-110397481D01*
X149105853Y-110258100D01*
X149041703Y-110103228D01*
X149009000Y-109938816D01*
X149009000Y-109771184D01*
X149041703Y-109606772D01*
X149105853Y-109451900D01*
X149198985Y-109312519D01*
X149317519Y-109193985D01*
X149456900Y-109100853D01*
X149611772Y-109036703D01*
X149776184Y-109004000D01*
X149943816Y-109004000D01*
X150108228Y-109036703D01*
X150108228Y-109036703D01*
G37*
G36*
X102901366Y-107055695D02*
G01*
X103058460Y-107103349D01*
X103203231Y-107180731D01*
X103330128Y-107284872D01*
X103434269Y-107411769D01*
X103511651Y-107556540D01*
X103559305Y-107713634D01*
X103576000Y-107883140D01*
X103576000Y-109796860D01*
X103559305Y-109966366D01*
X103511651Y-110123460D01*
X103434269Y-110268231D01*
X103330128Y-110395128D01*
X103203231Y-110499269D01*
X103058460Y-110576651D01*
X102901366Y-110624305D01*
X102731860Y-110641000D01*
X100818140Y-110641000D01*
X100648634Y-110624305D01*
X100491540Y-110576651D01*
X100346769Y-110499269D01*
X100219872Y-110395128D01*
X100115731Y-110268231D01*
X100038349Y-110123460D01*
X99990695Y-109966366D01*
X99974000Y-109796860D01*
X99974000Y-107883140D01*
X99990695Y-107713634D01*
X100038349Y-107556540D01*
X100115731Y-107411769D01*
X100219872Y-107284872D01*
X100346769Y-107180731D01*
X100491540Y-107103349D01*
X100648634Y-107055695D01*
X100818140Y-107039000D01*
X102731860Y-107039000D01*
X102901366Y-107055695D01*
X102901366Y-107055695D01*
G37*
G36*
X147236000Y-109771000D02*
G01*
X146134000Y-109771000D01*
X146134000Y-108669000D01*
X147236000Y-108669000D01*
X147236000Y-109771000D01*
X147236000Y-109771000D01*
G37*
G36*
X153780442Y-107055518D02*
G01*
X153846627Y-107062037D01*
X154016466Y-107113557D01*
X154172991Y-107197222D01*
X154186890Y-107208629D01*
X154310186Y-107309814D01*
X154383226Y-107398815D01*
X154422778Y-107447009D01*
X154506443Y-107603534D01*
X154557963Y-107773373D01*
X154575359Y-107950000D01*
X154557963Y-108126627D01*
X154506443Y-108296466D01*
X154422778Y-108452991D01*
X154393448Y-108488729D01*
X154310186Y-108590186D01*
X154214149Y-108669000D01*
X154172991Y-108702778D01*
X154016466Y-108786443D01*
X153846627Y-108837963D01*
X153780442Y-108844482D01*
X153714260Y-108851000D01*
X153625740Y-108851000D01*
X153559558Y-108844482D01*
X153493373Y-108837963D01*
X153323534Y-108786443D01*
X153167009Y-108702778D01*
X153125851Y-108669000D01*
X153029814Y-108590186D01*
X152946552Y-108488729D01*
X152917222Y-108452991D01*
X152833557Y-108296466D01*
X152782037Y-108126627D01*
X152764641Y-107950000D01*
X152782037Y-107773373D01*
X152833557Y-107603534D01*
X152917222Y-107447009D01*
X152956774Y-107398815D01*
X153029814Y-107309814D01*
X153153110Y-107208629D01*
X153167009Y-107197222D01*
X153323534Y-107113557D01*
X153493373Y-107062037D01*
X153559558Y-107055518D01*
X153625740Y-107049000D01*
X153714260Y-107049000D01*
X153780442Y-107055518D01*
X153780442Y-107055518D01*
G37*
G36*
X140460589Y-107188876D02*
G01*
X140559893Y-107208629D01*
X140700206Y-107266748D01*
X140826484Y-107351125D01*
X140933875Y-107458516D01*
X141018252Y-107584794D01*
X141076371Y-107725107D01*
X141085972Y-107773375D01*
X141102702Y-107857480D01*
X141106000Y-107874063D01*
X141106000Y-108025937D01*
X141076371Y-108174893D01*
X141018252Y-108315206D01*
X140933875Y-108441484D01*
X140826484Y-108548875D01*
X140700206Y-108633252D01*
X140559893Y-108691371D01*
X140460589Y-108711124D01*
X140410938Y-108721000D01*
X140259062Y-108721000D01*
X140209411Y-108711124D01*
X140110107Y-108691371D01*
X139969794Y-108633252D01*
X139843516Y-108548875D01*
X139736125Y-108441484D01*
X139651748Y-108315206D01*
X139593629Y-108174893D01*
X139564000Y-108025937D01*
X139564000Y-107874063D01*
X139567299Y-107857480D01*
X139584028Y-107773375D01*
X139593629Y-107725107D01*
X139651748Y-107584794D01*
X139736125Y-107458516D01*
X139843516Y-107351125D01*
X139969794Y-107266748D01*
X140110107Y-107208629D01*
X140209411Y-107188876D01*
X140259062Y-107179000D01*
X140410938Y-107179000D01*
X140460589Y-107188876D01*
X140460589Y-107188876D01*
G37*
G36*
X137920589Y-107188876D02*
G01*
X138019893Y-107208629D01*
X138160206Y-107266748D01*
X138286484Y-107351125D01*
X138393875Y-107458516D01*
X138478252Y-107584794D01*
X138536371Y-107725107D01*
X138545972Y-107773375D01*
X138562702Y-107857480D01*
X138566000Y-107874063D01*
X138566000Y-108025937D01*
X138536371Y-108174893D01*
X138478252Y-108315206D01*
X138393875Y-108441484D01*
X138286484Y-108548875D01*
X138160206Y-108633252D01*
X138019893Y-108691371D01*
X137920589Y-108711124D01*
X137870938Y-108721000D01*
X137719062Y-108721000D01*
X137669411Y-108711124D01*
X137570107Y-108691371D01*
X137429794Y-108633252D01*
X137303516Y-108548875D01*
X137196125Y-108441484D01*
X137111748Y-108315206D01*
X137053629Y-108174893D01*
X137024000Y-108025937D01*
X137024000Y-107874063D01*
X137027299Y-107857480D01*
X137044028Y-107773375D01*
X137053629Y-107725107D01*
X137111748Y-107584794D01*
X137196125Y-107458516D01*
X137303516Y-107351125D01*
X137429794Y-107266748D01*
X137570107Y-107208629D01*
X137669411Y-107188876D01*
X137719062Y-107179000D01*
X137870938Y-107179000D01*
X137920589Y-107188876D01*
X137920589Y-107188876D01*
G37*
G36*
X129665589Y-107188876D02*
G01*
X129764893Y-107208629D01*
X129905206Y-107266748D01*
X130031484Y-107351125D01*
X130138875Y-107458516D01*
X130223252Y-107584794D01*
X130281371Y-107725107D01*
X130290972Y-107773375D01*
X130307702Y-107857480D01*
X130311000Y-107874063D01*
X130311000Y-108025937D01*
X130281371Y-108174893D01*
X130223252Y-108315206D01*
X130138875Y-108441484D01*
X130031484Y-108548875D01*
X129905206Y-108633252D01*
X129764893Y-108691371D01*
X129665589Y-108711124D01*
X129615938Y-108721000D01*
X129464062Y-108721000D01*
X129414411Y-108711124D01*
X129315107Y-108691371D01*
X129174794Y-108633252D01*
X129048516Y-108548875D01*
X128941125Y-108441484D01*
X128856748Y-108315206D01*
X128798629Y-108174893D01*
X128769000Y-108025937D01*
X128769000Y-107874063D01*
X128772299Y-107857480D01*
X128789028Y-107773375D01*
X128798629Y-107725107D01*
X128856748Y-107584794D01*
X128941125Y-107458516D01*
X129048516Y-107351125D01*
X129174794Y-107266748D01*
X129315107Y-107208629D01*
X129414411Y-107188876D01*
X129464062Y-107179000D01*
X129615938Y-107179000D01*
X129665589Y-107188876D01*
X129665589Y-107188876D01*
G37*
G36*
X143000589Y-107188876D02*
G01*
X143099893Y-107208629D01*
X143240206Y-107266748D01*
X143366484Y-107351125D01*
X143473875Y-107458516D01*
X143558252Y-107584794D01*
X143616371Y-107725107D01*
X143625972Y-107773375D01*
X143642702Y-107857480D01*
X143646000Y-107874063D01*
X143646000Y-108025937D01*
X143616371Y-108174893D01*
X143558252Y-108315206D01*
X143473875Y-108441484D01*
X143366484Y-108548875D01*
X143240206Y-108633252D01*
X143099893Y-108691371D01*
X143000589Y-108711124D01*
X142950938Y-108721000D01*
X142799062Y-108721000D01*
X142749411Y-108711124D01*
X142650107Y-108691371D01*
X142509794Y-108633252D01*
X142383516Y-108548875D01*
X142276125Y-108441484D01*
X142191748Y-108315206D01*
X142133629Y-108174893D01*
X142104000Y-108025937D01*
X142104000Y-107874063D01*
X142107299Y-107857480D01*
X142124028Y-107773375D01*
X142133629Y-107725107D01*
X142191748Y-107584794D01*
X142276125Y-107458516D01*
X142383516Y-107351125D01*
X142509794Y-107266748D01*
X142650107Y-107208629D01*
X142749411Y-107188876D01*
X142799062Y-107179000D01*
X142950938Y-107179000D01*
X143000589Y-107188876D01*
X143000589Y-107188876D01*
G37*
G36*
X132205589Y-107188876D02*
G01*
X132304893Y-107208629D01*
X132445206Y-107266748D01*
X132571484Y-107351125D01*
X132678875Y-107458516D01*
X132763252Y-107584794D01*
X132821371Y-107725107D01*
X132830972Y-107773375D01*
X132847702Y-107857480D01*
X132851000Y-107874063D01*
X132851000Y-108025937D01*
X132821371Y-108174893D01*
X132763252Y-108315206D01*
X132678875Y-108441484D01*
X132571484Y-108548875D01*
X132445206Y-108633252D01*
X132304893Y-108691371D01*
X132205589Y-108711124D01*
X132155938Y-108721000D01*
X132004062Y-108721000D01*
X131954411Y-108711124D01*
X131855107Y-108691371D01*
X131714794Y-108633252D01*
X131588516Y-108548875D01*
X131481125Y-108441484D01*
X131396748Y-108315206D01*
X131338629Y-108174893D01*
X131309000Y-108025937D01*
X131309000Y-107874063D01*
X131312299Y-107857480D01*
X131329028Y-107773375D01*
X131338629Y-107725107D01*
X131396748Y-107584794D01*
X131481125Y-107458516D01*
X131588516Y-107351125D01*
X131714794Y-107266748D01*
X131855107Y-107208629D01*
X131954411Y-107188876D01*
X132004062Y-107179000D01*
X132155938Y-107179000D01*
X132205589Y-107188876D01*
X132205589Y-107188876D01*
G37*
G36*
X127125589Y-107188876D02*
G01*
X127224893Y-107208629D01*
X127365206Y-107266748D01*
X127491484Y-107351125D01*
X127598875Y-107458516D01*
X127683252Y-107584794D01*
X127741371Y-107725107D01*
X127750972Y-107773375D01*
X127767702Y-107857480D01*
X127771000Y-107874063D01*
X127771000Y-108025937D01*
X127741371Y-108174893D01*
X127683252Y-108315206D01*
X127598875Y-108441484D01*
X127491484Y-108548875D01*
X127365206Y-108633252D01*
X127224893Y-108691371D01*
X127125589Y-108711124D01*
X127075938Y-108721000D01*
X126924062Y-108721000D01*
X126874411Y-108711124D01*
X126775107Y-108691371D01*
X126634794Y-108633252D01*
X126508516Y-108548875D01*
X126401125Y-108441484D01*
X126316748Y-108315206D01*
X126258629Y-108174893D01*
X126229000Y-108025937D01*
X126229000Y-107874063D01*
X126232299Y-107857480D01*
X126249028Y-107773375D01*
X126258629Y-107725107D01*
X126316748Y-107584794D01*
X126401125Y-107458516D01*
X126508516Y-107351125D01*
X126634794Y-107266748D01*
X126775107Y-107208629D01*
X126874411Y-107188876D01*
X126924062Y-107179000D01*
X127075938Y-107179000D01*
X127125589Y-107188876D01*
X127125589Y-107188876D01*
G37*
G36*
X122136000Y-108166000D02*
G01*
X120434000Y-108166000D01*
X120434000Y-106464000D01*
X122136000Y-106464000D01*
X122136000Y-108166000D01*
X122136000Y-108166000D01*
G37*
G36*
X119033228Y-106496703D02*
G01*
X119188100Y-106560853D01*
X119327481Y-106653985D01*
X119446015Y-106772519D01*
X119539147Y-106911900D01*
X119603297Y-107066772D01*
X119636000Y-107231184D01*
X119636000Y-107398816D01*
X119603297Y-107563228D01*
X119539147Y-107718100D01*
X119446015Y-107857481D01*
X119327481Y-107976015D01*
X119188100Y-108069147D01*
X119033228Y-108133297D01*
X118868816Y-108166000D01*
X118701184Y-108166000D01*
X118536772Y-108133297D01*
X118381900Y-108069147D01*
X118242519Y-107976015D01*
X118123985Y-107857481D01*
X118030853Y-107718100D01*
X117966703Y-107563228D01*
X117934000Y-107398816D01*
X117934000Y-107231184D01*
X117966703Y-107066772D01*
X118030853Y-106911900D01*
X118123985Y-106772519D01*
X118242519Y-106653985D01*
X118381900Y-106560853D01*
X118536772Y-106496703D01*
X118701184Y-106464000D01*
X118868816Y-106464000D01*
X119033228Y-106496703D01*
X119033228Y-106496703D01*
G37*
G36*
X111373228Y-106496703D02*
G01*
X111528100Y-106560853D01*
X111667481Y-106653985D01*
X111786015Y-106772519D01*
X111879147Y-106911900D01*
X111943297Y-107066772D01*
X111976000Y-107231184D01*
X111976000Y-107398816D01*
X111943297Y-107563228D01*
X111879147Y-107718100D01*
X111786015Y-107857481D01*
X111667481Y-107976015D01*
X111528100Y-108069147D01*
X111373228Y-108133297D01*
X111208816Y-108166000D01*
X111041184Y-108166000D01*
X110876772Y-108133297D01*
X110721900Y-108069147D01*
X110582519Y-107976015D01*
X110463985Y-107857481D01*
X110370853Y-107718100D01*
X110306703Y-107563228D01*
X110274000Y-107398816D01*
X110274000Y-107231184D01*
X110306703Y-107066772D01*
X110370853Y-106911900D01*
X110463985Y-106772519D01*
X110582519Y-106653985D01*
X110721900Y-106560853D01*
X110876772Y-106496703D01*
X111041184Y-106464000D01*
X111208816Y-106464000D01*
X111373228Y-106496703D01*
X111373228Y-106496703D01*
G37*
G36*
X114476000Y-108166000D02*
G01*
X112774000Y-108166000D01*
X112774000Y-106464000D01*
X114476000Y-106464000D01*
X114476000Y-108166000D01*
X114476000Y-108166000D01*
G37*
G36*
X147236000Y-107231000D02*
G01*
X146134000Y-107231000D01*
X146134000Y-106129000D01*
X147236000Y-106129000D01*
X147236000Y-107231000D01*
X147236000Y-107231000D01*
G37*
G36*
X153780443Y-104515519D02*
G01*
X153846627Y-104522037D01*
X154016466Y-104573557D01*
X154172991Y-104657222D01*
X154208729Y-104686552D01*
X154310186Y-104769814D01*
X154393448Y-104871271D01*
X154422778Y-104907009D01*
X154506443Y-105063534D01*
X154557963Y-105233373D01*
X154575359Y-105410000D01*
X154557963Y-105586627D01*
X154506443Y-105756466D01*
X154422778Y-105912991D01*
X154412020Y-105926099D01*
X154310186Y-106050186D01*
X154214149Y-106129000D01*
X154172991Y-106162778D01*
X154016466Y-106246443D01*
X153846627Y-106297963D01*
X153780442Y-106304482D01*
X153714260Y-106311000D01*
X153625740Y-106311000D01*
X153559558Y-106304482D01*
X153493373Y-106297963D01*
X153323534Y-106246443D01*
X153167009Y-106162778D01*
X153125851Y-106129000D01*
X153029814Y-106050186D01*
X152927980Y-105926099D01*
X152917222Y-105912991D01*
X152833557Y-105756466D01*
X152782037Y-105586627D01*
X152764641Y-105410000D01*
X152782037Y-105233373D01*
X152833557Y-105063534D01*
X152917222Y-104907009D01*
X152946552Y-104871271D01*
X153029814Y-104769814D01*
X153131271Y-104686552D01*
X153167009Y-104657222D01*
X153323534Y-104573557D01*
X153493373Y-104522037D01*
X153559557Y-104515519D01*
X153625740Y-104509000D01*
X153714260Y-104509000D01*
X153780443Y-104515519D01*
X153780443Y-104515519D01*
G37*
G36*
X99751979Y-102353293D02*
G01*
X99885625Y-102393834D01*
X100008784Y-102459664D01*
X100116740Y-102548260D01*
X100205336Y-102656216D01*
X100271166Y-102779375D01*
X100311707Y-102913021D01*
X100326000Y-103058140D01*
X100326000Y-105221860D01*
X100311707Y-105366979D01*
X100271166Y-105500625D01*
X100205336Y-105623784D01*
X100116740Y-105731740D01*
X100008784Y-105820336D01*
X99885625Y-105886166D01*
X99751979Y-105926707D01*
X99606860Y-105941000D01*
X97943140Y-105941000D01*
X97798021Y-105926707D01*
X97664375Y-105886166D01*
X97541216Y-105820336D01*
X97433260Y-105731740D01*
X97344664Y-105623784D01*
X97278834Y-105500625D01*
X97238293Y-105366979D01*
X97224000Y-105221860D01*
X97224000Y-103058140D01*
X97238293Y-102913021D01*
X97278834Y-102779375D01*
X97344664Y-102656216D01*
X97433260Y-102548260D01*
X97541216Y-102459664D01*
X97664375Y-102393834D01*
X97798021Y-102353293D01*
X97943140Y-102339000D01*
X99606860Y-102339000D01*
X99751979Y-102353293D01*
X99751979Y-102353293D01*
G37*
G36*
X106576000Y-105941000D02*
G01*
X102974000Y-105941000D01*
X102974000Y-102339000D01*
X106576000Y-102339000D01*
X106576000Y-105941000D01*
X106576000Y-105941000D01*
G37*
G36*
X150108228Y-104036703D02*
G01*
X150263100Y-104100853D01*
X150402481Y-104193985D01*
X150521015Y-104312519D01*
X150614147Y-104451900D01*
X150678297Y-104606772D01*
X150711000Y-104771184D01*
X150711000Y-104938816D01*
X150678297Y-105103228D01*
X150614147Y-105258100D01*
X150521015Y-105397481D01*
X150402481Y-105516015D01*
X150263100Y-105609147D01*
X150108228Y-105673297D01*
X149943816Y-105706000D01*
X149776184Y-105706000D01*
X149611772Y-105673297D01*
X149456900Y-105609147D01*
X149317519Y-105516015D01*
X149198985Y-105397481D01*
X149105853Y-105258100D01*
X149041703Y-105103228D01*
X149009000Y-104938816D01*
X149009000Y-104771184D01*
X149041703Y-104606772D01*
X149105853Y-104451900D01*
X149198985Y-104312519D01*
X149317519Y-104193985D01*
X149456900Y-104100853D01*
X149611772Y-104036703D01*
X149776184Y-104004000D01*
X149943816Y-104004000D01*
X150108228Y-104036703D01*
X150108228Y-104036703D01*
G37*
G36*
X130394059Y-102782860D02*
G01*
X130454294Y-102807810D01*
X130530732Y-102839472D01*
X130653735Y-102921660D01*
X130758340Y-103026265D01*
X130840528Y-103149268D01*
X130840529Y-103149270D01*
X130897140Y-103285941D01*
X130926000Y-103431032D01*
X130926000Y-103578968D01*
X130911429Y-103652220D01*
X130897140Y-103724059D01*
X130840528Y-103860732D01*
X130758340Y-103983735D01*
X130653735Y-104088340D01*
X130530732Y-104170528D01*
X130530731Y-104170529D01*
X130530730Y-104170529D01*
X130394059Y-104227140D01*
X130248968Y-104256000D01*
X130101032Y-104256000D01*
X129955941Y-104227140D01*
X129819270Y-104170529D01*
X129819269Y-104170529D01*
X129819268Y-104170528D01*
X129696265Y-104088340D01*
X129591660Y-103983735D01*
X129509472Y-103860732D01*
X129452860Y-103724059D01*
X129438571Y-103652220D01*
X129424000Y-103578968D01*
X129424000Y-103431032D01*
X129452860Y-103285941D01*
X129509471Y-103149270D01*
X129509472Y-103149268D01*
X129591660Y-103026265D01*
X129696265Y-102921660D01*
X129819268Y-102839472D01*
X129895707Y-102807810D01*
X129955941Y-102782860D01*
X130101032Y-102754000D01*
X130248968Y-102754000D01*
X130394059Y-102782860D01*
X130394059Y-102782860D01*
G37*
G36*
X125168665Y-102757622D02*
G01*
X125242222Y-102764867D01*
X125383786Y-102807810D01*
X125514252Y-102877546D01*
X125544040Y-102901992D01*
X125628607Y-102971393D01*
X125690347Y-103046625D01*
X125722454Y-103085748D01*
X125792190Y-103216214D01*
X125835133Y-103357778D01*
X125849633Y-103505000D01*
X125835133Y-103652222D01*
X125792190Y-103793786D01*
X125722454Y-103924252D01*
X125698008Y-103954040D01*
X125628607Y-104038607D01*
X125568004Y-104088341D01*
X125514252Y-104132454D01*
X125383786Y-104202190D01*
X125242222Y-104245133D01*
X125168665Y-104252378D01*
X125131888Y-104256000D01*
X125058112Y-104256000D01*
X125021335Y-104252378D01*
X124947778Y-104245133D01*
X124806214Y-104202190D01*
X124675748Y-104132454D01*
X124621996Y-104088341D01*
X124561393Y-104038607D01*
X124491992Y-103954040D01*
X124467546Y-103924252D01*
X124397810Y-103793786D01*
X124354867Y-103652222D01*
X124340367Y-103505000D01*
X124354867Y-103357778D01*
X124397810Y-103216214D01*
X124467546Y-103085748D01*
X124499653Y-103046625D01*
X124561393Y-102971393D01*
X124645960Y-102901992D01*
X124675748Y-102877546D01*
X124806214Y-102807810D01*
X124947778Y-102764867D01*
X125021335Y-102757622D01*
X125058112Y-102754000D01*
X125131888Y-102754000D01*
X125168665Y-102757622D01*
X125168665Y-102757622D01*
G37*
G36*
X132788665Y-102757622D02*
G01*
X132862222Y-102764867D01*
X133003786Y-102807810D01*
X133134252Y-102877546D01*
X133164040Y-102901992D01*
X133248607Y-102971393D01*
X133310347Y-103046625D01*
X133342454Y-103085748D01*
X133412190Y-103216214D01*
X133455133Y-103357778D01*
X133469633Y-103505000D01*
X133455133Y-103652222D01*
X133412190Y-103793786D01*
X133342454Y-103924252D01*
X133318008Y-103954040D01*
X133248607Y-104038607D01*
X133188004Y-104088341D01*
X133134252Y-104132454D01*
X133003786Y-104202190D01*
X132862222Y-104245133D01*
X132788665Y-104252378D01*
X132751888Y-104256000D01*
X132678112Y-104256000D01*
X132641335Y-104252378D01*
X132567778Y-104245133D01*
X132426214Y-104202190D01*
X132295748Y-104132454D01*
X132241996Y-104088341D01*
X132181393Y-104038607D01*
X132111992Y-103954040D01*
X132087546Y-103924252D01*
X132017810Y-103793786D01*
X131974867Y-103652222D01*
X131960367Y-103505000D01*
X131974867Y-103357778D01*
X132017810Y-103216214D01*
X132087546Y-103085748D01*
X132119653Y-103046625D01*
X132181393Y-102971393D01*
X132265960Y-102901992D01*
X132295748Y-102877546D01*
X132426214Y-102807810D01*
X132567778Y-102764867D01*
X132641335Y-102757622D01*
X132678112Y-102754000D01*
X132751888Y-102754000D01*
X132788665Y-102757622D01*
X132788665Y-102757622D01*
G37*
G36*
X138014059Y-102782860D02*
G01*
X138074294Y-102807810D01*
X138150732Y-102839472D01*
X138273735Y-102921660D01*
X138378340Y-103026265D01*
X138460528Y-103149268D01*
X138460529Y-103149270D01*
X138517140Y-103285941D01*
X138546000Y-103431032D01*
X138546000Y-103578968D01*
X138531429Y-103652220D01*
X138517140Y-103724059D01*
X138460528Y-103860732D01*
X138378340Y-103983735D01*
X138273735Y-104088340D01*
X138150732Y-104170528D01*
X138150731Y-104170529D01*
X138150730Y-104170529D01*
X138014059Y-104227140D01*
X137868968Y-104256000D01*
X137721032Y-104256000D01*
X137575941Y-104227140D01*
X137439270Y-104170529D01*
X137439269Y-104170529D01*
X137439268Y-104170528D01*
X137316265Y-104088340D01*
X137211660Y-103983735D01*
X137129472Y-103860732D01*
X137072860Y-103724059D01*
X137058571Y-103652220D01*
X137044000Y-103578968D01*
X137044000Y-103431032D01*
X137072860Y-103285941D01*
X137129471Y-103149270D01*
X137129472Y-103149268D01*
X137211660Y-103026265D01*
X137316265Y-102921660D01*
X137439268Y-102839472D01*
X137515707Y-102807810D01*
X137575941Y-102782860D01*
X137721032Y-102754000D01*
X137868968Y-102754000D01*
X138014059Y-102782860D01*
X138014059Y-102782860D01*
G37*
G36*
X153780442Y-101975518D02*
G01*
X153846627Y-101982037D01*
X154016466Y-102033557D01*
X154172991Y-102117222D01*
X154208729Y-102146552D01*
X154310186Y-102229814D01*
X154393448Y-102331271D01*
X154422778Y-102367009D01*
X154506443Y-102523534D01*
X154557963Y-102693373D01*
X154575359Y-102870000D01*
X154557963Y-103046627D01*
X154506443Y-103216466D01*
X154422778Y-103372991D01*
X154397653Y-103403606D01*
X154310186Y-103510186D01*
X154210323Y-103592140D01*
X154172991Y-103622778D01*
X154016466Y-103706443D01*
X153846627Y-103757963D01*
X153780443Y-103764481D01*
X153714260Y-103771000D01*
X153625740Y-103771000D01*
X153559557Y-103764481D01*
X153493373Y-103757963D01*
X153323534Y-103706443D01*
X153167009Y-103622778D01*
X153129677Y-103592140D01*
X153029814Y-103510186D01*
X152942347Y-103403606D01*
X152917222Y-103372991D01*
X152833557Y-103216466D01*
X152782037Y-103046627D01*
X152764641Y-102870000D01*
X152782037Y-102693373D01*
X152833557Y-102523534D01*
X152917222Y-102367009D01*
X152946552Y-102331271D01*
X153029814Y-102229814D01*
X153131271Y-102146552D01*
X153167009Y-102117222D01*
X153323534Y-102033557D01*
X153493373Y-101982037D01*
X153559558Y-101975518D01*
X153625740Y-101969000D01*
X153714260Y-101969000D01*
X153780442Y-101975518D01*
X153780442Y-101975518D01*
G37*
G36*
X117548665Y-102122622D02*
G01*
X117622222Y-102129867D01*
X117763786Y-102172810D01*
X117894252Y-102242546D01*
X117924040Y-102266992D01*
X118008607Y-102336393D01*
X118078008Y-102420960D01*
X118102454Y-102450748D01*
X118172190Y-102581214D01*
X118215133Y-102722778D01*
X118229633Y-102870000D01*
X118215133Y-103017222D01*
X118172190Y-103158786D01*
X118102454Y-103289252D01*
X118078008Y-103319040D01*
X118008607Y-103403607D01*
X117948004Y-103453341D01*
X117894252Y-103497454D01*
X117763786Y-103567190D01*
X117622222Y-103610133D01*
X117548665Y-103617378D01*
X117511888Y-103621000D01*
X117438112Y-103621000D01*
X117401335Y-103617378D01*
X117327778Y-103610133D01*
X117186214Y-103567190D01*
X117055748Y-103497454D01*
X117001996Y-103453341D01*
X116941393Y-103403607D01*
X116871992Y-103319040D01*
X116847546Y-103289252D01*
X116777810Y-103158786D01*
X116734867Y-103017222D01*
X116720367Y-102870000D01*
X116734867Y-102722778D01*
X116777810Y-102581214D01*
X116847546Y-102450748D01*
X116871992Y-102420960D01*
X116941393Y-102336393D01*
X117025960Y-102266992D01*
X117055748Y-102242546D01*
X117186214Y-102172810D01*
X117327778Y-102129867D01*
X117401335Y-102122622D01*
X117438112Y-102119000D01*
X117511888Y-102119000D01*
X117548665Y-102122622D01*
X117548665Y-102122622D01*
G37*
G36*
X122774059Y-102147860D02*
G01*
X122834294Y-102172810D01*
X122910732Y-102204472D01*
X123033735Y-102286660D01*
X123138340Y-102391265D01*
X123190745Y-102469695D01*
X123220529Y-102514270D01*
X123277140Y-102650941D01*
X123306000Y-102796032D01*
X123306000Y-102943968D01*
X123277140Y-103089059D01*
X123224471Y-103216214D01*
X123220528Y-103225732D01*
X123138340Y-103348735D01*
X123033735Y-103453340D01*
X122910732Y-103535528D01*
X122910731Y-103535529D01*
X122910730Y-103535529D01*
X122774059Y-103592140D01*
X122628968Y-103621000D01*
X122481032Y-103621000D01*
X122335941Y-103592140D01*
X122199270Y-103535529D01*
X122199269Y-103535529D01*
X122199268Y-103535528D01*
X122076265Y-103453340D01*
X121971660Y-103348735D01*
X121889472Y-103225732D01*
X121885530Y-103216214D01*
X121832860Y-103089059D01*
X121804000Y-102943968D01*
X121804000Y-102796032D01*
X121832860Y-102650941D01*
X121889471Y-102514270D01*
X121919255Y-102469695D01*
X121971660Y-102391265D01*
X122076265Y-102286660D01*
X122199268Y-102204472D01*
X122275707Y-102172810D01*
X122335941Y-102147860D01*
X122481032Y-102119000D01*
X122628968Y-102119000D01*
X122774059Y-102147860D01*
X122774059Y-102147860D01*
G37*
G36*
X153780443Y-99435519D02*
G01*
X153846627Y-99442037D01*
X154016466Y-99493557D01*
X154172991Y-99577222D01*
X154208729Y-99606552D01*
X154310186Y-99689814D01*
X154357543Y-99747520D01*
X154422778Y-99827009D01*
X154506443Y-99983534D01*
X154557963Y-100153373D01*
X154575359Y-100330000D01*
X154557963Y-100506627D01*
X154506443Y-100676466D01*
X154506442Y-100676468D01*
X154497552Y-100693100D01*
X154422778Y-100832991D01*
X154397653Y-100863606D01*
X154310186Y-100970186D01*
X154210323Y-101052140D01*
X154172991Y-101082778D01*
X154016466Y-101166443D01*
X153846627Y-101217963D01*
X153780443Y-101224481D01*
X153714260Y-101231000D01*
X153625740Y-101231000D01*
X153559558Y-101224482D01*
X153493373Y-101217963D01*
X153323534Y-101166443D01*
X153167009Y-101082778D01*
X153129677Y-101052140D01*
X153029814Y-100970186D01*
X152942347Y-100863606D01*
X152917222Y-100832991D01*
X152842448Y-100693100D01*
X152833558Y-100676468D01*
X152833557Y-100676466D01*
X152782037Y-100506627D01*
X152764641Y-100330000D01*
X152782037Y-100153373D01*
X152833557Y-99983534D01*
X152917222Y-99827009D01*
X152982457Y-99747520D01*
X153029814Y-99689814D01*
X153131271Y-99606552D01*
X153167009Y-99577222D01*
X153323534Y-99493557D01*
X153493373Y-99442037D01*
X153559558Y-99435518D01*
X153625740Y-99429000D01*
X153714260Y-99429000D01*
X153780443Y-99435519D01*
X153780443Y-99435519D01*
G37*
G36*
X126931823Y-99491313D02*
G01*
X127062380Y-99530917D01*
X127078651Y-99535853D01*
X127092242Y-99539976D01*
X127185581Y-99589867D01*
X127240078Y-99618996D01*
X127369659Y-99725341D01*
X127476004Y-99854922D01*
X127476005Y-99854924D01*
X127555024Y-100002758D01*
X127603687Y-100163177D01*
X127620117Y-100330000D01*
X127603687Y-100496823D01*
X127555024Y-100657242D01*
X127484114Y-100789906D01*
X127476004Y-100805078D01*
X127369659Y-100934659D01*
X127240078Y-101041004D01*
X127240076Y-101041005D01*
X127092242Y-101120024D01*
X126931823Y-101168687D01*
X126806804Y-101181000D01*
X125923196Y-101181000D01*
X125798177Y-101168687D01*
X125637758Y-101120024D01*
X125489924Y-101041005D01*
X125489922Y-101041004D01*
X125360341Y-100934659D01*
X125253996Y-100805078D01*
X125245886Y-100789906D01*
X125174976Y-100657242D01*
X125126313Y-100496823D01*
X125109883Y-100330000D01*
X125126313Y-100163177D01*
X125174976Y-100002758D01*
X125253995Y-99854924D01*
X125253996Y-99854922D01*
X125360341Y-99725341D01*
X125489922Y-99618996D01*
X125544419Y-99589867D01*
X125637758Y-99539976D01*
X125651350Y-99535853D01*
X125667620Y-99530917D01*
X125798177Y-99491313D01*
X125923196Y-99479000D01*
X126806804Y-99479000D01*
X126931823Y-99491313D01*
X126931823Y-99491313D01*
G37*
G36*
X134551823Y-99491313D02*
G01*
X134682380Y-99530917D01*
X134698651Y-99535853D01*
X134712242Y-99539976D01*
X134805581Y-99589867D01*
X134860078Y-99618996D01*
X134989659Y-99725341D01*
X135096004Y-99854922D01*
X135096005Y-99854924D01*
X135175024Y-100002758D01*
X135223687Y-100163177D01*
X135240117Y-100330000D01*
X135223687Y-100496823D01*
X135175024Y-100657242D01*
X135104114Y-100789906D01*
X135096004Y-100805078D01*
X134989659Y-100934659D01*
X134860078Y-101041004D01*
X134860076Y-101041005D01*
X134712242Y-101120024D01*
X134551823Y-101168687D01*
X134426804Y-101181000D01*
X133543196Y-101181000D01*
X133418177Y-101168687D01*
X133257758Y-101120024D01*
X133109924Y-101041005D01*
X133109922Y-101041004D01*
X132980341Y-100934659D01*
X132873996Y-100805078D01*
X132865886Y-100789906D01*
X132794976Y-100657242D01*
X132746313Y-100496823D01*
X132729883Y-100330000D01*
X132746313Y-100163177D01*
X132794976Y-100002758D01*
X132873995Y-99854924D01*
X132873996Y-99854922D01*
X132980341Y-99725341D01*
X133109922Y-99618996D01*
X133164419Y-99589867D01*
X133257758Y-99539976D01*
X133271350Y-99535853D01*
X133287620Y-99530917D01*
X133418177Y-99491313D01*
X133543196Y-99479000D01*
X134426804Y-99479000D01*
X134551823Y-99491313D01*
X134551823Y-99491313D01*
G37*
G36*
X148838228Y-99471703D02*
G01*
X148993100Y-99535853D01*
X149132481Y-99628985D01*
X149251015Y-99747519D01*
X149344147Y-99886900D01*
X149408297Y-100041772D01*
X149441000Y-100206184D01*
X149441000Y-100373816D01*
X149408297Y-100538228D01*
X149344147Y-100693100D01*
X149251015Y-100832481D01*
X149132481Y-100951015D01*
X148993100Y-101044147D01*
X148838228Y-101108297D01*
X148673816Y-101141000D01*
X148506184Y-101141000D01*
X148341772Y-101108297D01*
X148186900Y-101044147D01*
X148047519Y-100951015D01*
X147928985Y-100832481D01*
X147835853Y-100693100D01*
X147771703Y-100538228D01*
X147739000Y-100373816D01*
X147739000Y-100206184D01*
X147771703Y-100041772D01*
X147835853Y-99886900D01*
X147928985Y-99747519D01*
X148047519Y-99628985D01*
X148186900Y-99535853D01*
X148341772Y-99471703D01*
X148506184Y-99439000D01*
X148673816Y-99439000D01*
X148838228Y-99471703D01*
X148838228Y-99471703D01*
G37*
G36*
X142488228Y-99471703D02*
G01*
X142643100Y-99535853D01*
X142782481Y-99628985D01*
X142901015Y-99747519D01*
X142994147Y-99886900D01*
X143058297Y-100041772D01*
X143091000Y-100206184D01*
X143091000Y-100373816D01*
X143058297Y-100538228D01*
X142994147Y-100693100D01*
X142901015Y-100832481D01*
X142782481Y-100951015D01*
X142643100Y-101044147D01*
X142488228Y-101108297D01*
X142323816Y-101141000D01*
X142156184Y-101141000D01*
X141991772Y-101108297D01*
X141836900Y-101044147D01*
X141697519Y-100951015D01*
X141578985Y-100832481D01*
X141485853Y-100693100D01*
X141421703Y-100538228D01*
X141389000Y-100373816D01*
X141389000Y-100206184D01*
X141421703Y-100041772D01*
X141485853Y-99886900D01*
X141578985Y-99747519D01*
X141697519Y-99628985D01*
X141836900Y-99535853D01*
X141991772Y-99471703D01*
X142156184Y-99439000D01*
X142323816Y-99439000D01*
X142488228Y-99471703D01*
X142488228Y-99471703D01*
G37*
G36*
X122628665Y-99582622D02*
G01*
X122702222Y-99589867D01*
X122843786Y-99632810D01*
X122974252Y-99702546D01*
X123002028Y-99725341D01*
X123088607Y-99796393D01*
X123158008Y-99880960D01*
X123182454Y-99910748D01*
X123252190Y-100041214D01*
X123295133Y-100182778D01*
X123309633Y-100330000D01*
X123295133Y-100477222D01*
X123252190Y-100618786D01*
X123182454Y-100749252D01*
X123158008Y-100779040D01*
X123088607Y-100863607D01*
X123028004Y-100913341D01*
X122974252Y-100957454D01*
X122843786Y-101027190D01*
X122702222Y-101070133D01*
X122628665Y-101077378D01*
X122591888Y-101081000D01*
X122518112Y-101081000D01*
X122481335Y-101077378D01*
X122407778Y-101070133D01*
X122266214Y-101027190D01*
X122135748Y-100957454D01*
X122081996Y-100913341D01*
X122021393Y-100863607D01*
X121951992Y-100779040D01*
X121927546Y-100749252D01*
X121857810Y-100618786D01*
X121814867Y-100477222D01*
X121800367Y-100330000D01*
X121814867Y-100182778D01*
X121857810Y-100041214D01*
X121927546Y-99910748D01*
X121951992Y-99880960D01*
X122021393Y-99796393D01*
X122107972Y-99725341D01*
X122135748Y-99702546D01*
X122266214Y-99632810D01*
X122407778Y-99589867D01*
X122481335Y-99582622D01*
X122518112Y-99579000D01*
X122591888Y-99579000D01*
X122628665Y-99582622D01*
X122628665Y-99582622D01*
G37*
G36*
X117694059Y-99607860D02*
G01*
X117754294Y-99632810D01*
X117830732Y-99664472D01*
X117953735Y-99746660D01*
X118058340Y-99851265D01*
X118140528Y-99974268D01*
X118140529Y-99974270D01*
X118197140Y-100110941D01*
X118226000Y-100256032D01*
X118226000Y-100403968D01*
X118205580Y-100506627D01*
X118197140Y-100549059D01*
X118140528Y-100685732D01*
X118058340Y-100808735D01*
X117953735Y-100913340D01*
X117830732Y-100995528D01*
X117830731Y-100995529D01*
X117830730Y-100995529D01*
X117694059Y-101052140D01*
X117548968Y-101081000D01*
X117401032Y-101081000D01*
X117255941Y-101052140D01*
X117119270Y-100995529D01*
X117119269Y-100995529D01*
X117119268Y-100995528D01*
X116996265Y-100913340D01*
X116891660Y-100808735D01*
X116809472Y-100685732D01*
X116752860Y-100549059D01*
X116744420Y-100506627D01*
X116724000Y-100403968D01*
X116724000Y-100256032D01*
X116752860Y-100110941D01*
X116809471Y-99974270D01*
X116809472Y-99974268D01*
X116891660Y-99851265D01*
X116996265Y-99746660D01*
X117119268Y-99664472D01*
X117195707Y-99632810D01*
X117255941Y-99607860D01*
X117401032Y-99579000D01*
X117548968Y-99579000D01*
X117694059Y-99607860D01*
X117694059Y-99607860D01*
G37*
G36*
X137868665Y-99582622D02*
G01*
X137942222Y-99589867D01*
X138083786Y-99632810D01*
X138214252Y-99702546D01*
X138242028Y-99725341D01*
X138328607Y-99796393D01*
X138398008Y-99880960D01*
X138422454Y-99910748D01*
X138492190Y-100041214D01*
X138535133Y-100182778D01*
X138549633Y-100330000D01*
X138535133Y-100477222D01*
X138492190Y-100618786D01*
X138422454Y-100749252D01*
X138398008Y-100779040D01*
X138328607Y-100863607D01*
X138268004Y-100913341D01*
X138214252Y-100957454D01*
X138083786Y-101027190D01*
X137942222Y-101070133D01*
X137868665Y-101077378D01*
X137831888Y-101081000D01*
X137758112Y-101081000D01*
X137721335Y-101077378D01*
X137647778Y-101070133D01*
X137506214Y-101027190D01*
X137375748Y-100957454D01*
X137321996Y-100913341D01*
X137261393Y-100863607D01*
X137191992Y-100779040D01*
X137167546Y-100749252D01*
X137097810Y-100618786D01*
X137054867Y-100477222D01*
X137040367Y-100330000D01*
X137054867Y-100182778D01*
X137097810Y-100041214D01*
X137167546Y-99910748D01*
X137191992Y-99880960D01*
X137261393Y-99796393D01*
X137347972Y-99725341D01*
X137375748Y-99702546D01*
X137506214Y-99632810D01*
X137647778Y-99589867D01*
X137721335Y-99582622D01*
X137758112Y-99579000D01*
X137831888Y-99579000D01*
X137868665Y-99582622D01*
X137868665Y-99582622D01*
G37*
G36*
X114366000Y-99126000D02*
G01*
X113081749Y-99126000D01*
X113057363Y-99128402D01*
X113033914Y-99135515D01*
X113012303Y-99147066D01*
X112993361Y-99162611D01*
X112977816Y-99181553D01*
X112966265Y-99203164D01*
X112959152Y-99226613D01*
X112956750Y-99250999D01*
X112959152Y-99275385D01*
X112966265Y-99298834D01*
X112977816Y-99320444D01*
X113006218Y-99362951D01*
X113059062Y-99490527D01*
X113086000Y-99625956D01*
X113086000Y-99764044D01*
X113059062Y-99899473D01*
X113006218Y-100027049D01*
X112929505Y-100141859D01*
X112831859Y-100239505D01*
X112717049Y-100316218D01*
X112589473Y-100369062D01*
X112454044Y-100396000D01*
X112315956Y-100396000D01*
X112180527Y-100369062D01*
X112052951Y-100316218D01*
X111938141Y-100239505D01*
X111840495Y-100141859D01*
X111763782Y-100027049D01*
X111710938Y-99899473D01*
X111684000Y-99764044D01*
X111684000Y-99625956D01*
X111710938Y-99490527D01*
X111763782Y-99362951D01*
X111840495Y-99248141D01*
X111938141Y-99150495D01*
X112052951Y-99073782D01*
X112180527Y-99020938D01*
X112315956Y-98994000D01*
X112454044Y-98994000D01*
X112589473Y-99020938D01*
X112717049Y-99073782D01*
X112769556Y-99108866D01*
X112791166Y-99120417D01*
X112814615Y-99127530D01*
X112839001Y-99129932D01*
X112863387Y-99127530D01*
X112886836Y-99120417D01*
X112908447Y-99108866D01*
X112927389Y-99093320D01*
X112942934Y-99074378D01*
X112954485Y-99052768D01*
X112961598Y-99029319D01*
X112964000Y-99004933D01*
X112964000Y-97724000D01*
X114366000Y-97724000D01*
X114366000Y-99126000D01*
X114366000Y-99126000D01*
G37*
G36*
X111329473Y-97750938D02*
G01*
X111457049Y-97803782D01*
X111571859Y-97880495D01*
X111669505Y-97978141D01*
X111746218Y-98092951D01*
X111799062Y-98220527D01*
X111826000Y-98355956D01*
X111826000Y-98494044D01*
X111799062Y-98629473D01*
X111746218Y-98757049D01*
X111669505Y-98871859D01*
X111571859Y-98969505D01*
X111457049Y-99046218D01*
X111329473Y-99099062D01*
X111194044Y-99126000D01*
X111055956Y-99126000D01*
X110920527Y-99099062D01*
X110792951Y-99046218D01*
X110678141Y-98969505D01*
X110580495Y-98871859D01*
X110503782Y-98757049D01*
X110450938Y-98629473D01*
X110424000Y-98494044D01*
X110424000Y-98355956D01*
X110450938Y-98220527D01*
X110503782Y-98092951D01*
X110580495Y-97978141D01*
X110678141Y-97880495D01*
X110792951Y-97803782D01*
X110920527Y-97750938D01*
X111055956Y-97724000D01*
X111194044Y-97724000D01*
X111329473Y-97750938D01*
X111329473Y-97750938D01*
G37*
G36*
X153780442Y-96895518D02*
G01*
X153846627Y-96902037D01*
X154016466Y-96953557D01*
X154172991Y-97037222D01*
X154208729Y-97066552D01*
X154310186Y-97149814D01*
X154390369Y-97247519D01*
X154422778Y-97287009D01*
X154506443Y-97443534D01*
X154557963Y-97613373D01*
X154575359Y-97790000D01*
X154557963Y-97966627D01*
X154506443Y-98136466D01*
X154422778Y-98292991D01*
X154397653Y-98323606D01*
X154310186Y-98430186D01*
X154208729Y-98513448D01*
X154172991Y-98542778D01*
X154016466Y-98626443D01*
X153846627Y-98677963D01*
X153780442Y-98684482D01*
X153714260Y-98691000D01*
X153625740Y-98691000D01*
X153559558Y-98684482D01*
X153493373Y-98677963D01*
X153323534Y-98626443D01*
X153167009Y-98542778D01*
X153131271Y-98513448D01*
X153029814Y-98430186D01*
X152942347Y-98323606D01*
X152917222Y-98292991D01*
X152833557Y-98136466D01*
X152782037Y-97966627D01*
X152764641Y-97790000D01*
X152782037Y-97613373D01*
X152833557Y-97443534D01*
X152917222Y-97287009D01*
X152949631Y-97247519D01*
X153029814Y-97149814D01*
X153131271Y-97066552D01*
X153167009Y-97037222D01*
X153323534Y-96953557D01*
X153493373Y-96902037D01*
X153559558Y-96895518D01*
X153625740Y-96889000D01*
X153714260Y-96889000D01*
X153780442Y-96895518D01*
X153780442Y-96895518D01*
G37*
G36*
X149441000Y-98641000D02*
G01*
X147739000Y-98641000D01*
X147739000Y-96939000D01*
X149441000Y-96939000D01*
X149441000Y-98641000D01*
X149441000Y-98641000D01*
G37*
G36*
X126931823Y-96951313D02*
G01*
X127092242Y-96999976D01*
X127185581Y-97049867D01*
X127240078Y-97078996D01*
X127369659Y-97185341D01*
X127476004Y-97314922D01*
X127476005Y-97314924D01*
X127555024Y-97462758D01*
X127603687Y-97623177D01*
X127620117Y-97790000D01*
X127603687Y-97956823D01*
X127555024Y-98117242D01*
X127499817Y-98220526D01*
X127476004Y-98265078D01*
X127369659Y-98394659D01*
X127240078Y-98501004D01*
X127240076Y-98501005D01*
X127092242Y-98580024D01*
X126931823Y-98628687D01*
X126806804Y-98641000D01*
X125923196Y-98641000D01*
X125798177Y-98628687D01*
X125637758Y-98580024D01*
X125489924Y-98501005D01*
X125489922Y-98501004D01*
X125360341Y-98394659D01*
X125253996Y-98265078D01*
X125230183Y-98220526D01*
X125174976Y-98117242D01*
X125126313Y-97956823D01*
X125109883Y-97790000D01*
X125126313Y-97623177D01*
X125174976Y-97462758D01*
X125253995Y-97314924D01*
X125253996Y-97314922D01*
X125360341Y-97185341D01*
X125489922Y-97078996D01*
X125544419Y-97049867D01*
X125637758Y-96999976D01*
X125798177Y-96951313D01*
X125923196Y-96939000D01*
X126806804Y-96939000D01*
X126931823Y-96951313D01*
X126931823Y-96951313D01*
G37*
G36*
X134551823Y-96951313D02*
G01*
X134712242Y-96999976D01*
X134805581Y-97049867D01*
X134860078Y-97078996D01*
X134989659Y-97185341D01*
X135096004Y-97314922D01*
X135096005Y-97314924D01*
X135175024Y-97462758D01*
X135223687Y-97623177D01*
X135240117Y-97790000D01*
X135223687Y-97956823D01*
X135175024Y-98117242D01*
X135119817Y-98220526D01*
X135096004Y-98265078D01*
X134989659Y-98394659D01*
X134860078Y-98501004D01*
X134860076Y-98501005D01*
X134712242Y-98580024D01*
X134551823Y-98628687D01*
X134426804Y-98641000D01*
X133543196Y-98641000D01*
X133418177Y-98628687D01*
X133257758Y-98580024D01*
X133109924Y-98501005D01*
X133109922Y-98501004D01*
X132980341Y-98394659D01*
X132873996Y-98265078D01*
X132850183Y-98220526D01*
X132794976Y-98117242D01*
X132746313Y-97956823D01*
X132729883Y-97790000D01*
X132746313Y-97623177D01*
X132794976Y-97462758D01*
X132873995Y-97314924D01*
X132873996Y-97314922D01*
X132980341Y-97185341D01*
X133109922Y-97078996D01*
X133164419Y-97049867D01*
X133257758Y-96999976D01*
X133418177Y-96951313D01*
X133543196Y-96939000D01*
X134426804Y-96939000D01*
X134551823Y-96951313D01*
X134551823Y-96951313D01*
G37*
G36*
X117803228Y-96971703D02*
G01*
X117958100Y-97035853D01*
X118097481Y-97128985D01*
X118216015Y-97247519D01*
X118309147Y-97386900D01*
X118373297Y-97541772D01*
X118406000Y-97706184D01*
X118406000Y-97873816D01*
X118373297Y-98038228D01*
X118309147Y-98193100D01*
X118216015Y-98332481D01*
X118097481Y-98451015D01*
X117958100Y-98544147D01*
X117803228Y-98608297D01*
X117638816Y-98641000D01*
X117471184Y-98641000D01*
X117306772Y-98608297D01*
X117151900Y-98544147D01*
X117012519Y-98451015D01*
X116893985Y-98332481D01*
X116800853Y-98193100D01*
X116736703Y-98038228D01*
X116704000Y-97873816D01*
X116704000Y-97706184D01*
X116736703Y-97541772D01*
X116800853Y-97386900D01*
X116893985Y-97247519D01*
X117012519Y-97128985D01*
X117151900Y-97035853D01*
X117306772Y-96971703D01*
X117471184Y-96939000D01*
X117638816Y-96939000D01*
X117803228Y-96971703D01*
X117803228Y-96971703D01*
G37*
G36*
X143091000Y-98641000D02*
G01*
X141389000Y-98641000D01*
X141389000Y-96939000D01*
X143091000Y-96939000D01*
X143091000Y-98641000D01*
X143091000Y-98641000D01*
G37*
G36*
X122803228Y-96971703D02*
G01*
X122958100Y-97035853D01*
X123097481Y-97128985D01*
X123216015Y-97247519D01*
X123309147Y-97386900D01*
X123373297Y-97541772D01*
X123406000Y-97706184D01*
X123406000Y-97873816D01*
X123373297Y-98038228D01*
X123309147Y-98193100D01*
X123216015Y-98332481D01*
X123097481Y-98451015D01*
X122958100Y-98544147D01*
X122803228Y-98608297D01*
X122638816Y-98641000D01*
X122471184Y-98641000D01*
X122306772Y-98608297D01*
X122151900Y-98544147D01*
X122012519Y-98451015D01*
X121893985Y-98332481D01*
X121800853Y-98193100D01*
X121736703Y-98038228D01*
X121704000Y-97873816D01*
X121704000Y-97706184D01*
X121736703Y-97541772D01*
X121800853Y-97386900D01*
X121893985Y-97247519D01*
X122012519Y-97128985D01*
X122151900Y-97035853D01*
X122306772Y-96971703D01*
X122471184Y-96939000D01*
X122638816Y-96939000D01*
X122803228Y-96971703D01*
X122803228Y-96971703D01*
G37*
G36*
X107388665Y-97042622D02*
G01*
X107462222Y-97049867D01*
X107603786Y-97092810D01*
X107734252Y-97162546D01*
X107762028Y-97185341D01*
X107848607Y-97256393D01*
X107918008Y-97340960D01*
X107942454Y-97370748D01*
X108012190Y-97501214D01*
X108055133Y-97642778D01*
X108069633Y-97790000D01*
X108055133Y-97937222D01*
X108012190Y-98078786D01*
X107942454Y-98209252D01*
X107918008Y-98239040D01*
X107848607Y-98323607D01*
X107764040Y-98393008D01*
X107734252Y-98417454D01*
X107603786Y-98487190D01*
X107462222Y-98530133D01*
X107388665Y-98537378D01*
X107351888Y-98541000D01*
X107278112Y-98541000D01*
X107241335Y-98537378D01*
X107167778Y-98530133D01*
X107026214Y-98487190D01*
X106895748Y-98417454D01*
X106865960Y-98393008D01*
X106781393Y-98323607D01*
X106711992Y-98239040D01*
X106687546Y-98209252D01*
X106617810Y-98078786D01*
X106574867Y-97937222D01*
X106560367Y-97790000D01*
X106574867Y-97642778D01*
X106617810Y-97501214D01*
X106687546Y-97370748D01*
X106711992Y-97340960D01*
X106781393Y-97256393D01*
X106867972Y-97185341D01*
X106895748Y-97162546D01*
X107026214Y-97092810D01*
X107167778Y-97049867D01*
X107241335Y-97042622D01*
X107278112Y-97039000D01*
X107351888Y-97039000D01*
X107388665Y-97042622D01*
X107388665Y-97042622D01*
G37*
G36*
X103821000Y-97471000D02*
G01*
X101919000Y-97471000D01*
X101919000Y-95569000D01*
X103821000Y-95569000D01*
X103821000Y-97471000D01*
X103821000Y-97471000D01*
G37*
G36*
X98063600Y-94947989D02*
G01*
X98096652Y-94958015D01*
X98127103Y-94974292D01*
X98153799Y-94996201D01*
X98175708Y-95022897D01*
X98191985Y-95053348D01*
X98202011Y-95086400D01*
X98206000Y-95126903D01*
X98206000Y-96563097D01*
X98202011Y-96603600D01*
X98191985Y-96636652D01*
X98175708Y-96667103D01*
X98153799Y-96693799D01*
X98127103Y-96715708D01*
X98096652Y-96731985D01*
X98063600Y-96742011D01*
X98023097Y-96746000D01*
X96286903Y-96746000D01*
X96246400Y-96742011D01*
X96213348Y-96731985D01*
X96182897Y-96715708D01*
X96156201Y-96693799D01*
X96134292Y-96667103D01*
X96118015Y-96636652D01*
X96107989Y-96603600D01*
X96104000Y-96563097D01*
X96104000Y-95126903D01*
X96107989Y-95086400D01*
X96118015Y-95053348D01*
X96134292Y-95022897D01*
X96156201Y-94996201D01*
X96182897Y-94974292D01*
X96213348Y-94958015D01*
X96246400Y-94947989D01*
X96286903Y-94944000D01*
X98023097Y-94944000D01*
X98063600Y-94947989D01*
X98063600Y-94947989D01*
G37*
G36*
X134551823Y-94411313D02*
G01*
X134682380Y-94450917D01*
X134708145Y-94458733D01*
X134712242Y-94459976D01*
X134812578Y-94513607D01*
X134860078Y-94538996D01*
X134989659Y-94645341D01*
X135096004Y-94774922D01*
X135096005Y-94774924D01*
X135175024Y-94922758D01*
X135223687Y-95083177D01*
X135240117Y-95250000D01*
X135223687Y-95416823D01*
X135175024Y-95577242D01*
X135104114Y-95709906D01*
X135096004Y-95725078D01*
X134989659Y-95854659D01*
X134860078Y-95961004D01*
X134860076Y-95961005D01*
X134712242Y-96040024D01*
X134551823Y-96088687D01*
X134426804Y-96101000D01*
X133543196Y-96101000D01*
X133418177Y-96088687D01*
X133257758Y-96040024D01*
X133109924Y-95961005D01*
X133109922Y-95961004D01*
X132980341Y-95854659D01*
X132873996Y-95725078D01*
X132865886Y-95709906D01*
X132794976Y-95577242D01*
X132746313Y-95416823D01*
X132729883Y-95250000D01*
X132746313Y-95083177D01*
X132794976Y-94922758D01*
X132873995Y-94774924D01*
X132873996Y-94774922D01*
X132980341Y-94645341D01*
X133109922Y-94538996D01*
X133157422Y-94513607D01*
X133257758Y-94459976D01*
X133261856Y-94458733D01*
X133287620Y-94450917D01*
X133418177Y-94411313D01*
X133543196Y-94399000D01*
X134426804Y-94399000D01*
X134551823Y-94411313D01*
X134551823Y-94411313D01*
G37*
G36*
X126931823Y-94411313D02*
G01*
X127062380Y-94450917D01*
X127088145Y-94458733D01*
X127092242Y-94459976D01*
X127192578Y-94513607D01*
X127240078Y-94538996D01*
X127369659Y-94645341D01*
X127476004Y-94774922D01*
X127476005Y-94774924D01*
X127555024Y-94922758D01*
X127603687Y-95083177D01*
X127620117Y-95250000D01*
X127603687Y-95416823D01*
X127555024Y-95577242D01*
X127484114Y-95709906D01*
X127476004Y-95725078D01*
X127369659Y-95854659D01*
X127240078Y-95961004D01*
X127240076Y-95961005D01*
X127092242Y-96040024D01*
X126931823Y-96088687D01*
X126806804Y-96101000D01*
X125923196Y-96101000D01*
X125798177Y-96088687D01*
X125637758Y-96040024D01*
X125489924Y-95961005D01*
X125489922Y-95961004D01*
X125360341Y-95854659D01*
X125253996Y-95725078D01*
X125245886Y-95709906D01*
X125174976Y-95577242D01*
X125126313Y-95416823D01*
X125109883Y-95250000D01*
X125126313Y-95083177D01*
X125174976Y-94922758D01*
X125253995Y-94774924D01*
X125253996Y-94774922D01*
X125360341Y-94645341D01*
X125489922Y-94538996D01*
X125537422Y-94513607D01*
X125637758Y-94459976D01*
X125641856Y-94458733D01*
X125667620Y-94450917D01*
X125798177Y-94411313D01*
X125923196Y-94399000D01*
X126806804Y-94399000D01*
X126931823Y-94411313D01*
X126931823Y-94411313D01*
G37*
G36*
X115008665Y-94502622D02*
G01*
X115082222Y-94509867D01*
X115223786Y-94552810D01*
X115354252Y-94622546D01*
X115382028Y-94645341D01*
X115468607Y-94716393D01*
X115538008Y-94800960D01*
X115562454Y-94830748D01*
X115632190Y-94961214D01*
X115675133Y-95102778D01*
X115689633Y-95250000D01*
X115675133Y-95397222D01*
X115632190Y-95538786D01*
X115562454Y-95669252D01*
X115538008Y-95699040D01*
X115468607Y-95783607D01*
X115408004Y-95833341D01*
X115354252Y-95877454D01*
X115223786Y-95947190D01*
X115082222Y-95990133D01*
X115008665Y-95997378D01*
X114971888Y-96001000D01*
X114898112Y-96001000D01*
X114861335Y-95997378D01*
X114787778Y-95990133D01*
X114646214Y-95947190D01*
X114515748Y-95877454D01*
X114461996Y-95833341D01*
X114401393Y-95783607D01*
X114331992Y-95699040D01*
X114307546Y-95669252D01*
X114237810Y-95538786D01*
X114194867Y-95397222D01*
X114180367Y-95250000D01*
X114194867Y-95102778D01*
X114237810Y-94961214D01*
X114307546Y-94830748D01*
X114331992Y-94800960D01*
X114401393Y-94716393D01*
X114487972Y-94645341D01*
X114515748Y-94622546D01*
X114646214Y-94552810D01*
X114787778Y-94509867D01*
X114861335Y-94502622D01*
X114898112Y-94499000D01*
X114971888Y-94499000D01*
X115008665Y-94502622D01*
X115008665Y-94502622D01*
G37*
G36*
X110074059Y-94527860D02*
G01*
X110159718Y-94563341D01*
X110210732Y-94584472D01*
X110333735Y-94666660D01*
X110438340Y-94771265D01*
X110520528Y-94894268D01*
X110577140Y-95030941D01*
X110606000Y-95176033D01*
X110606000Y-95323967D01*
X110577140Y-95469059D01*
X110520528Y-95605732D01*
X110438340Y-95728735D01*
X110333735Y-95833340D01*
X110210732Y-95915528D01*
X110210731Y-95915529D01*
X110210730Y-95915529D01*
X110074059Y-95972140D01*
X109928968Y-96001000D01*
X109781032Y-96001000D01*
X109635941Y-95972140D01*
X109499270Y-95915529D01*
X109499269Y-95915529D01*
X109499268Y-95915528D01*
X109376265Y-95833340D01*
X109271660Y-95728735D01*
X109189472Y-95605732D01*
X109132860Y-95469059D01*
X109104000Y-95323967D01*
X109104000Y-95176033D01*
X109132860Y-95030941D01*
X109189472Y-94894268D01*
X109271660Y-94771265D01*
X109376265Y-94666660D01*
X109499268Y-94584472D01*
X109550283Y-94563341D01*
X109635941Y-94527860D01*
X109781032Y-94499000D01*
X109928968Y-94499000D01*
X110074059Y-94527860D01*
X110074059Y-94527860D01*
G37*
G36*
X117548665Y-94502622D02*
G01*
X117622222Y-94509867D01*
X117763786Y-94552810D01*
X117894252Y-94622546D01*
X117922028Y-94645341D01*
X118008607Y-94716393D01*
X118078008Y-94800960D01*
X118102454Y-94830748D01*
X118172190Y-94961214D01*
X118215133Y-95102778D01*
X118229633Y-95250000D01*
X118215133Y-95397222D01*
X118172190Y-95538786D01*
X118102454Y-95669252D01*
X118078008Y-95699040D01*
X118008607Y-95783607D01*
X117948004Y-95833341D01*
X117894252Y-95877454D01*
X117763786Y-95947190D01*
X117622222Y-95990133D01*
X117548665Y-95997378D01*
X117511888Y-96001000D01*
X117438112Y-96001000D01*
X117401335Y-95997378D01*
X117327778Y-95990133D01*
X117186214Y-95947190D01*
X117055748Y-95877454D01*
X117001996Y-95833341D01*
X116941393Y-95783607D01*
X116871992Y-95699040D01*
X116847546Y-95669252D01*
X116777810Y-95538786D01*
X116734867Y-95397222D01*
X116720367Y-95250000D01*
X116734867Y-95102778D01*
X116777810Y-94961214D01*
X116847546Y-94830748D01*
X116871992Y-94800960D01*
X116941393Y-94716393D01*
X117027972Y-94645341D01*
X117055748Y-94622546D01*
X117186214Y-94552810D01*
X117327778Y-94509867D01*
X117401335Y-94502622D01*
X117438112Y-94499000D01*
X117511888Y-94499000D01*
X117548665Y-94502622D01*
X117548665Y-94502622D01*
G37*
G36*
X122774059Y-94527860D02*
G01*
X122859718Y-94563341D01*
X122910732Y-94584472D01*
X123033735Y-94666660D01*
X123138340Y-94771265D01*
X123220528Y-94894268D01*
X123277140Y-95030941D01*
X123306000Y-95176033D01*
X123306000Y-95323967D01*
X123277140Y-95469059D01*
X123220528Y-95605732D01*
X123138340Y-95728735D01*
X123033735Y-95833340D01*
X122910732Y-95915528D01*
X122910731Y-95915529D01*
X122910730Y-95915529D01*
X122774059Y-95972140D01*
X122628968Y-96001000D01*
X122481032Y-96001000D01*
X122335941Y-95972140D01*
X122199270Y-95915529D01*
X122199269Y-95915529D01*
X122199268Y-95915528D01*
X122076265Y-95833340D01*
X121971660Y-95728735D01*
X121889472Y-95605732D01*
X121832860Y-95469059D01*
X121804000Y-95323967D01*
X121804000Y-95176033D01*
X121832860Y-95030941D01*
X121889472Y-94894268D01*
X121971660Y-94771265D01*
X122076265Y-94666660D01*
X122199268Y-94584472D01*
X122250283Y-94563341D01*
X122335941Y-94527860D01*
X122481032Y-94499000D01*
X122628968Y-94499000D01*
X122774059Y-94527860D01*
X122774059Y-94527860D01*
G37*
G36*
X138014059Y-94527860D02*
G01*
X138099718Y-94563341D01*
X138150732Y-94584472D01*
X138273735Y-94666660D01*
X138378340Y-94771265D01*
X138460528Y-94894268D01*
X138517140Y-95030941D01*
X138546000Y-95176033D01*
X138546000Y-95323967D01*
X138517140Y-95469059D01*
X138460528Y-95605732D01*
X138378340Y-95728735D01*
X138273735Y-95833340D01*
X138150732Y-95915528D01*
X138150731Y-95915529D01*
X138150730Y-95915529D01*
X138014059Y-95972140D01*
X137868968Y-96001000D01*
X137721032Y-96001000D01*
X137575941Y-95972140D01*
X137439270Y-95915529D01*
X137439269Y-95915529D01*
X137439268Y-95915528D01*
X137316265Y-95833340D01*
X137211660Y-95728735D01*
X137129472Y-95605732D01*
X137072860Y-95469059D01*
X137044000Y-95323967D01*
X137044000Y-95176033D01*
X137072860Y-95030941D01*
X137129472Y-94894268D01*
X137211660Y-94771265D01*
X137316265Y-94666660D01*
X137439268Y-94584472D01*
X137490283Y-94563341D01*
X137575941Y-94527860D01*
X137721032Y-94499000D01*
X137868968Y-94499000D01*
X138014059Y-94527860D01*
X138014059Y-94527860D01*
G37*
G36*
X153856425Y-93677760D02*
G01*
X153856428Y-93677761D01*
X153856429Y-93677761D01*
X154035693Y-93732140D01*
X154035696Y-93732142D01*
X154035697Y-93732142D01*
X154200903Y-93820446D01*
X154345712Y-93939288D01*
X154464554Y-94084097D01*
X154552858Y-94249303D01*
X154552860Y-94249307D01*
X154598345Y-94399252D01*
X154607240Y-94428575D01*
X154625601Y-94615000D01*
X154607240Y-94801425D01*
X154607239Y-94801428D01*
X154607239Y-94801429D01*
X154552860Y-94980693D01*
X154552858Y-94980696D01*
X154552858Y-94980697D01*
X154464554Y-95145903D01*
X154345712Y-95290712D01*
X154200903Y-95409554D01*
X154089576Y-95469059D01*
X154035693Y-95497860D01*
X153856429Y-95552239D01*
X153856428Y-95552239D01*
X153856425Y-95552240D01*
X153716718Y-95566000D01*
X153623282Y-95566000D01*
X153483575Y-95552240D01*
X153483572Y-95552239D01*
X153483571Y-95552239D01*
X153304307Y-95497860D01*
X153250424Y-95469059D01*
X153139097Y-95409554D01*
X152994288Y-95290712D01*
X152875446Y-95145903D01*
X152787142Y-94980697D01*
X152787142Y-94980696D01*
X152787140Y-94980693D01*
X152732761Y-94801429D01*
X152732761Y-94801428D01*
X152732760Y-94801425D01*
X152714399Y-94615000D01*
X152732760Y-94428575D01*
X152741655Y-94399252D01*
X152787140Y-94249307D01*
X152787142Y-94249303D01*
X152875446Y-94084097D01*
X152994288Y-93939288D01*
X153139097Y-93820446D01*
X153304303Y-93732142D01*
X153304304Y-93732142D01*
X153304307Y-93732140D01*
X153483571Y-93677761D01*
X153483572Y-93677761D01*
X153483575Y-93677760D01*
X153623282Y-93664000D01*
X153716718Y-93664000D01*
X153856425Y-93677760D01*
X153856425Y-93677760D01*
G37*
G36*
X103147395Y-93065546D02*
G01*
X103320466Y-93137234D01*
X103392069Y-93185078D01*
X103476227Y-93241310D01*
X103608690Y-93373773D01*
X103640249Y-93421005D01*
X103712766Y-93529534D01*
X103784454Y-93702605D01*
X103821000Y-93886333D01*
X103821000Y-94073667D01*
X103784454Y-94257395D01*
X103712766Y-94430466D01*
X103693048Y-94459976D01*
X103608690Y-94586227D01*
X103476227Y-94718690D01*
X103397818Y-94771081D01*
X103320466Y-94822766D01*
X103147395Y-94894454D01*
X102963667Y-94931000D01*
X102776333Y-94931000D01*
X102592605Y-94894454D01*
X102419534Y-94822766D01*
X102342182Y-94771081D01*
X102263773Y-94718690D01*
X102131310Y-94586227D01*
X102046952Y-94459976D01*
X102027234Y-94430466D01*
X101955546Y-94257395D01*
X101919000Y-94073667D01*
X101919000Y-93886333D01*
X101955546Y-93702605D01*
X102027234Y-93529534D01*
X102099751Y-93421005D01*
X102131310Y-93373773D01*
X102263773Y-93241310D01*
X102347931Y-93185078D01*
X102419534Y-93137234D01*
X102592605Y-93065546D01*
X102776333Y-93029000D01*
X102963667Y-93029000D01*
X103147395Y-93065546D01*
X103147395Y-93065546D01*
G37*
G36*
X143583665Y-93232622D02*
G01*
X143657222Y-93239867D01*
X143798786Y-93282810D01*
X143929252Y-93352546D01*
X143957256Y-93375528D01*
X144043607Y-93446393D01*
X144111837Y-93529534D01*
X144137454Y-93560748D01*
X144207190Y-93691214D01*
X144250133Y-93832778D01*
X144264633Y-93980000D01*
X144250133Y-94127222D01*
X144207190Y-94268786D01*
X144137454Y-94399252D01*
X144127555Y-94411314D01*
X144043607Y-94513607D01*
X143983004Y-94563341D01*
X143929252Y-94607454D01*
X143798786Y-94677190D01*
X143657222Y-94720133D01*
X143583665Y-94727378D01*
X143546888Y-94731000D01*
X143473112Y-94731000D01*
X143436335Y-94727378D01*
X143362778Y-94720133D01*
X143221214Y-94677190D01*
X143090748Y-94607454D01*
X143036996Y-94563341D01*
X142976393Y-94513607D01*
X142892445Y-94411314D01*
X142882546Y-94399252D01*
X142812810Y-94268786D01*
X142769867Y-94127222D01*
X142755367Y-93980000D01*
X142769867Y-93832778D01*
X142812810Y-93691214D01*
X142882546Y-93560748D01*
X142908163Y-93529534D01*
X142976393Y-93446393D01*
X143062744Y-93375528D01*
X143090748Y-93352546D01*
X143221214Y-93282810D01*
X143362778Y-93239867D01*
X143436335Y-93232622D01*
X143473112Y-93229000D01*
X143546888Y-93229000D01*
X143583665Y-93232622D01*
X143583665Y-93232622D01*
G37*
G36*
X148809059Y-93257860D02*
G01*
X148894718Y-93293341D01*
X148945732Y-93314472D01*
X149068735Y-93396660D01*
X149173340Y-93501265D01*
X149255528Y-93624268D01*
X149255529Y-93624270D01*
X149312140Y-93760941D01*
X149341000Y-93906032D01*
X149341000Y-94053968D01*
X149326429Y-94127220D01*
X149312140Y-94199059D01*
X149255528Y-94335732D01*
X149173340Y-94458735D01*
X149068735Y-94563340D01*
X148945732Y-94645528D01*
X148945731Y-94645529D01*
X148945730Y-94645529D01*
X148809059Y-94702140D01*
X148663968Y-94731000D01*
X148516032Y-94731000D01*
X148370941Y-94702140D01*
X148234270Y-94645529D01*
X148234269Y-94645529D01*
X148234268Y-94645528D01*
X148111265Y-94563340D01*
X148006660Y-94458735D01*
X147924472Y-94335732D01*
X147867860Y-94199059D01*
X147853571Y-94127220D01*
X147839000Y-94053968D01*
X147839000Y-93906032D01*
X147867860Y-93760941D01*
X147924471Y-93624270D01*
X147924472Y-93624268D01*
X148006660Y-93501265D01*
X148111265Y-93396660D01*
X148234268Y-93314472D01*
X148285283Y-93293341D01*
X148370941Y-93257860D01*
X148516032Y-93229000D01*
X148663968Y-93229000D01*
X148809059Y-93257860D01*
X148809059Y-93257860D01*
G37*
G36*
X97415443Y-92450519D02*
G01*
X97481627Y-92457037D01*
X97651466Y-92508557D01*
X97807991Y-92592222D01*
X97843729Y-92621552D01*
X97945186Y-92704814D01*
X98010144Y-92783967D01*
X98057778Y-92842009D01*
X98141443Y-92998534D01*
X98192963Y-93168373D01*
X98210359Y-93345000D01*
X98192963Y-93521627D01*
X98141443Y-93691466D01*
X98057778Y-93847991D01*
X98028448Y-93883729D01*
X97945186Y-93985186D01*
X97843729Y-94068448D01*
X97807991Y-94097778D01*
X97651466Y-94181443D01*
X97481627Y-94232963D01*
X97415443Y-94239481D01*
X97349260Y-94246000D01*
X96960740Y-94246000D01*
X96894557Y-94239481D01*
X96828373Y-94232963D01*
X96658534Y-94181443D01*
X96502009Y-94097778D01*
X96466271Y-94068448D01*
X96364814Y-93985186D01*
X96281552Y-93883729D01*
X96252222Y-93847991D01*
X96168557Y-93691466D01*
X96117037Y-93521627D01*
X96099641Y-93345000D01*
X96117037Y-93168373D01*
X96168557Y-92998534D01*
X96252222Y-92842009D01*
X96299856Y-92783967D01*
X96364814Y-92704814D01*
X96466271Y-92621552D01*
X96502009Y-92592222D01*
X96658534Y-92508557D01*
X96828373Y-92457037D01*
X96894557Y-92450519D01*
X96960740Y-92444000D01*
X97349260Y-92444000D01*
X97415443Y-92450519D01*
X97415443Y-92450519D01*
G37*
G36*
X134551823Y-91871313D02*
G01*
X134712242Y-91919976D01*
X134805581Y-91969867D01*
X134860078Y-91998996D01*
X134989659Y-92105341D01*
X135096004Y-92234922D01*
X135096005Y-92234924D01*
X135175024Y-92382758D01*
X135223687Y-92543177D01*
X135240117Y-92710000D01*
X135223687Y-92876823D01*
X135175024Y-93037242D01*
X135104933Y-93168373D01*
X135096004Y-93185078D01*
X134989659Y-93314659D01*
X134860078Y-93421004D01*
X134860076Y-93421005D01*
X134712242Y-93500024D01*
X134712239Y-93500025D01*
X134682380Y-93509083D01*
X134551823Y-93548687D01*
X134426804Y-93561000D01*
X133543196Y-93561000D01*
X133418177Y-93548687D01*
X133287620Y-93509083D01*
X133257761Y-93500025D01*
X133257758Y-93500024D01*
X133109924Y-93421005D01*
X133109922Y-93421004D01*
X132980341Y-93314659D01*
X132873996Y-93185078D01*
X132865067Y-93168373D01*
X132794976Y-93037242D01*
X132746313Y-92876823D01*
X132729883Y-92710000D01*
X132746313Y-92543177D01*
X132794976Y-92382758D01*
X132873995Y-92234924D01*
X132873996Y-92234922D01*
X132980341Y-92105341D01*
X133109922Y-91998996D01*
X133164419Y-91969867D01*
X133257758Y-91919976D01*
X133418177Y-91871313D01*
X133543196Y-91859000D01*
X134426804Y-91859000D01*
X134551823Y-91871313D01*
X134551823Y-91871313D01*
G37*
G36*
X127616000Y-93561000D02*
G01*
X125114000Y-93561000D01*
X125114000Y-91859000D01*
X127616000Y-91859000D01*
X127616000Y-93561000D01*
X127616000Y-93561000D01*
G37*
G36*
X115008665Y-91962622D02*
G01*
X115082222Y-91969867D01*
X115223786Y-92012810D01*
X115354252Y-92082546D01*
X115382028Y-92105341D01*
X115468607Y-92176393D01*
X115538008Y-92260960D01*
X115562454Y-92290748D01*
X115632190Y-92421214D01*
X115675133Y-92562778D01*
X115689633Y-92710000D01*
X115675133Y-92857222D01*
X115632190Y-92998786D01*
X115562454Y-93129252D01*
X115538008Y-93159040D01*
X115468607Y-93243607D01*
X115408004Y-93293341D01*
X115354252Y-93337454D01*
X115223786Y-93407190D01*
X115082222Y-93450133D01*
X115008665Y-93457378D01*
X114971888Y-93461000D01*
X114898112Y-93461000D01*
X114861335Y-93457378D01*
X114787778Y-93450133D01*
X114646214Y-93407190D01*
X114515748Y-93337454D01*
X114461996Y-93293341D01*
X114401393Y-93243607D01*
X114331992Y-93159040D01*
X114307546Y-93129252D01*
X114237810Y-92998786D01*
X114194867Y-92857222D01*
X114180367Y-92710000D01*
X114194867Y-92562778D01*
X114237810Y-92421214D01*
X114307546Y-92290748D01*
X114331992Y-92260960D01*
X114401393Y-92176393D01*
X114487972Y-92105341D01*
X114515748Y-92082546D01*
X114646214Y-92012810D01*
X114787778Y-91969867D01*
X114861335Y-91962622D01*
X114898112Y-91959000D01*
X114971888Y-91959000D01*
X115008665Y-91962622D01*
X115008665Y-91962622D01*
G37*
G36*
X110074059Y-91987860D02*
G01*
X110134294Y-92012810D01*
X110210732Y-92044472D01*
X110333735Y-92126660D01*
X110438340Y-92231265D01*
X110520528Y-92354268D01*
X110520529Y-92354270D01*
X110577140Y-92490941D01*
X110606000Y-92636032D01*
X110606000Y-92783968D01*
X110577140Y-92929059D01*
X110548363Y-92998534D01*
X110520528Y-93065732D01*
X110438340Y-93188735D01*
X110333735Y-93293340D01*
X110210732Y-93375528D01*
X110210731Y-93375529D01*
X110210730Y-93375529D01*
X110074059Y-93432140D01*
X109928968Y-93461000D01*
X109781032Y-93461000D01*
X109635941Y-93432140D01*
X109499270Y-93375529D01*
X109499269Y-93375529D01*
X109499268Y-93375528D01*
X109376265Y-93293340D01*
X109271660Y-93188735D01*
X109189472Y-93065732D01*
X109161638Y-92998534D01*
X109132860Y-92929059D01*
X109104000Y-92783968D01*
X109104000Y-92636032D01*
X109132860Y-92490941D01*
X109189471Y-92354270D01*
X109189472Y-92354268D01*
X109271660Y-92231265D01*
X109376265Y-92126660D01*
X109499268Y-92044472D01*
X109575707Y-92012810D01*
X109635941Y-91987860D01*
X109781032Y-91959000D01*
X109928968Y-91959000D01*
X110074059Y-91987860D01*
X110074059Y-91987860D01*
G37*
G36*
X117548665Y-91962622D02*
G01*
X117622222Y-91969867D01*
X117763786Y-92012810D01*
X117894252Y-92082546D01*
X117922028Y-92105341D01*
X118008607Y-92176393D01*
X118078008Y-92260960D01*
X118102454Y-92290748D01*
X118172190Y-92421214D01*
X118215133Y-92562778D01*
X118229633Y-92710000D01*
X118215133Y-92857222D01*
X118172190Y-92998786D01*
X118102454Y-93129252D01*
X118078008Y-93159040D01*
X118008607Y-93243607D01*
X117948004Y-93293341D01*
X117894252Y-93337454D01*
X117763786Y-93407190D01*
X117622222Y-93450133D01*
X117548665Y-93457378D01*
X117511888Y-93461000D01*
X117438112Y-93461000D01*
X117401335Y-93457378D01*
X117327778Y-93450133D01*
X117186214Y-93407190D01*
X117055748Y-93337454D01*
X117001996Y-93293341D01*
X116941393Y-93243607D01*
X116871992Y-93159040D01*
X116847546Y-93129252D01*
X116777810Y-92998786D01*
X116734867Y-92857222D01*
X116720367Y-92710000D01*
X116734867Y-92562778D01*
X116777810Y-92421214D01*
X116847546Y-92290748D01*
X116871992Y-92260960D01*
X116941393Y-92176393D01*
X117027972Y-92105341D01*
X117055748Y-92082546D01*
X117186214Y-92012810D01*
X117327778Y-91969867D01*
X117401335Y-91962622D01*
X117438112Y-91959000D01*
X117511888Y-91959000D01*
X117548665Y-91962622D01*
X117548665Y-91962622D01*
G37*
G36*
X122774059Y-91987860D02*
G01*
X122834294Y-92012810D01*
X122910732Y-92044472D01*
X123033735Y-92126660D01*
X123138340Y-92231265D01*
X123220528Y-92354268D01*
X123220529Y-92354270D01*
X123277140Y-92490941D01*
X123306000Y-92636032D01*
X123306000Y-92783968D01*
X123277140Y-92929059D01*
X123248363Y-92998534D01*
X123220528Y-93065732D01*
X123138340Y-93188735D01*
X123033735Y-93293340D01*
X122910732Y-93375528D01*
X122910731Y-93375529D01*
X122910730Y-93375529D01*
X122774059Y-93432140D01*
X122628968Y-93461000D01*
X122481032Y-93461000D01*
X122335941Y-93432140D01*
X122199270Y-93375529D01*
X122199269Y-93375529D01*
X122199268Y-93375528D01*
X122076265Y-93293340D01*
X121971660Y-93188735D01*
X121889472Y-93065732D01*
X121861638Y-92998534D01*
X121832860Y-92929059D01*
X121804000Y-92783968D01*
X121804000Y-92636032D01*
X121832860Y-92490941D01*
X121889471Y-92354270D01*
X121889472Y-92354268D01*
X121971660Y-92231265D01*
X122076265Y-92126660D01*
X122199268Y-92044472D01*
X122275707Y-92012810D01*
X122335941Y-91987860D01*
X122481032Y-91959000D01*
X122628968Y-91959000D01*
X122774059Y-91987860D01*
X122774059Y-91987860D01*
G37*
G36*
X107534059Y-91987860D02*
G01*
X107594294Y-92012810D01*
X107670732Y-92044472D01*
X107793735Y-92126660D01*
X107898340Y-92231265D01*
X107980528Y-92354268D01*
X107980529Y-92354270D01*
X108037140Y-92490941D01*
X108066000Y-92636032D01*
X108066000Y-92783968D01*
X108037140Y-92929059D01*
X108008363Y-92998534D01*
X107980528Y-93065732D01*
X107898340Y-93188735D01*
X107793735Y-93293340D01*
X107670732Y-93375528D01*
X107670731Y-93375529D01*
X107670730Y-93375529D01*
X107534059Y-93432140D01*
X107388968Y-93461000D01*
X107241032Y-93461000D01*
X107095941Y-93432140D01*
X106959270Y-93375529D01*
X106959269Y-93375529D01*
X106959268Y-93375528D01*
X106836265Y-93293340D01*
X106731660Y-93188735D01*
X106649472Y-93065732D01*
X106621638Y-92998534D01*
X106592860Y-92929059D01*
X106564000Y-92783968D01*
X106564000Y-92636032D01*
X106592860Y-92490941D01*
X106649471Y-92354270D01*
X106649472Y-92354268D01*
X106731660Y-92231265D01*
X106836265Y-92126660D01*
X106959268Y-92044472D01*
X107035707Y-92012810D01*
X107095941Y-91987860D01*
X107241032Y-91959000D01*
X107388968Y-91959000D01*
X107534059Y-91987860D01*
X107534059Y-91987860D01*
G37*
G36*
X151446000Y-91756000D02*
G01*
X149544000Y-91756000D01*
X149544000Y-89854000D01*
X151446000Y-89854000D01*
X151446000Y-91756000D01*
X151446000Y-91756000D01*
G37*
G36*
X143061425Y-89867760D02*
G01*
X143061428Y-89867761D01*
X143061429Y-89867761D01*
X143240693Y-89922140D01*
X143240696Y-89922142D01*
X143240697Y-89922142D01*
X143405903Y-90010446D01*
X143550712Y-90129288D01*
X143669554Y-90274097D01*
X143757858Y-90439303D01*
X143757860Y-90439307D01*
X143812239Y-90618571D01*
X143812240Y-90618575D01*
X143830601Y-90805000D01*
X143812240Y-90991425D01*
X143812239Y-90991428D01*
X143812239Y-90991429D01*
X143757860Y-91170693D01*
X143757858Y-91170696D01*
X143757858Y-91170697D01*
X143669554Y-91335903D01*
X143550712Y-91480712D01*
X143405903Y-91599554D01*
X143240697Y-91687858D01*
X143240693Y-91687860D01*
X143061429Y-91742239D01*
X143061428Y-91742239D01*
X143061425Y-91742240D01*
X142921718Y-91756000D01*
X142828282Y-91756000D01*
X142688575Y-91742240D01*
X142688572Y-91742239D01*
X142688571Y-91742239D01*
X142509307Y-91687860D01*
X142509303Y-91687858D01*
X142344097Y-91599554D01*
X142199288Y-91480712D01*
X142080446Y-91335903D01*
X141992142Y-91170697D01*
X141992142Y-91170696D01*
X141992140Y-91170693D01*
X141937761Y-90991429D01*
X141937761Y-90991428D01*
X141937760Y-90991425D01*
X141919399Y-90805000D01*
X141937760Y-90618575D01*
X141937761Y-90618571D01*
X141992140Y-90439307D01*
X141992142Y-90439303D01*
X142080446Y-90274097D01*
X142199288Y-90129288D01*
X142344097Y-90010446D01*
X142509303Y-89922142D01*
X142509304Y-89922142D01*
X142509307Y-89922140D01*
X142688571Y-89867761D01*
X142688572Y-89867761D01*
X142688575Y-89867760D01*
X142828282Y-89854000D01*
X142921718Y-89854000D01*
X143061425Y-89867760D01*
X143061425Y-89867760D01*
G37*
G36*
X104991000Y-89751000D02*
G01*
X103289000Y-89751000D01*
X103289000Y-88049000D01*
X104991000Y-88049000D01*
X104991000Y-89751000D01*
X104991000Y-89751000D01*
G37*
G36*
X111341000Y-89751000D02*
G01*
X109639000Y-89751000D01*
X109639000Y-88049000D01*
X111341000Y-88049000D01*
X111341000Y-89751000D01*
X111341000Y-89751000D01*
G37*
G36*
X124041000Y-89751000D02*
G01*
X122339000Y-89751000D01*
X122339000Y-88049000D01*
X124041000Y-88049000D01*
X124041000Y-89751000D01*
X124041000Y-89751000D01*
G37*
G36*
X117691000Y-89751000D02*
G01*
X115989000Y-89751000D01*
X115989000Y-88049000D01*
X117691000Y-88049000D01*
X117691000Y-89751000D01*
X117691000Y-89751000D01*
G37*
G36*
X139281000Y-89711000D02*
G01*
X137579000Y-89711000D01*
X137579000Y-88009000D01*
X139281000Y-88009000D01*
X139281000Y-89711000D01*
X139281000Y-89711000D01*
G37*
G36*
X132934059Y-88177860D02*
G01*
X132994294Y-88202810D01*
X133070732Y-88234472D01*
X133193735Y-88316660D01*
X133298340Y-88421265D01*
X133380528Y-88544268D01*
X133380529Y-88544270D01*
X133437140Y-88680941D01*
X133466000Y-88826032D01*
X133466000Y-88973968D01*
X133451429Y-89047220D01*
X133437140Y-89119059D01*
X133380528Y-89255732D01*
X133298340Y-89378735D01*
X133193735Y-89483340D01*
X133070732Y-89565528D01*
X133070731Y-89565529D01*
X133070730Y-89565529D01*
X132934059Y-89622140D01*
X132788968Y-89651000D01*
X132641032Y-89651000D01*
X132495941Y-89622140D01*
X132359270Y-89565529D01*
X132359269Y-89565529D01*
X132359268Y-89565528D01*
X132236265Y-89483340D01*
X132131660Y-89378735D01*
X132049472Y-89255732D01*
X131992860Y-89119059D01*
X131978571Y-89047220D01*
X131964000Y-88973968D01*
X131964000Y-88826032D01*
X131992860Y-88680941D01*
X132049471Y-88544270D01*
X132049472Y-88544268D01*
X132131660Y-88421265D01*
X132236265Y-88316660D01*
X132359268Y-88234472D01*
X132435707Y-88202810D01*
X132495941Y-88177860D01*
X132641032Y-88149000D01*
X132788968Y-88149000D01*
X132934059Y-88177860D01*
X132934059Y-88177860D01*
G37*
G36*
X127708665Y-88152622D02*
G01*
X127782222Y-88159867D01*
X127923786Y-88202810D01*
X128054252Y-88272546D01*
X128084040Y-88296992D01*
X128168607Y-88366393D01*
X128220748Y-88429929D01*
X128262454Y-88480748D01*
X128332190Y-88611214D01*
X128375133Y-88752778D01*
X128389633Y-88900000D01*
X128375133Y-89047222D01*
X128332190Y-89188786D01*
X128262454Y-89319252D01*
X128238008Y-89349040D01*
X128168607Y-89433607D01*
X128108004Y-89483341D01*
X128054252Y-89527454D01*
X127923786Y-89597190D01*
X127782222Y-89640133D01*
X127708665Y-89647378D01*
X127671888Y-89651000D01*
X127598112Y-89651000D01*
X127561335Y-89647378D01*
X127487778Y-89640133D01*
X127346214Y-89597190D01*
X127215748Y-89527454D01*
X127161996Y-89483341D01*
X127101393Y-89433607D01*
X127031992Y-89349040D01*
X127007546Y-89319252D01*
X126937810Y-89188786D01*
X126894867Y-89047222D01*
X126880367Y-88900000D01*
X126894867Y-88752778D01*
X126937810Y-88611214D01*
X127007546Y-88480748D01*
X127049252Y-88429929D01*
X127101393Y-88366393D01*
X127185960Y-88296992D01*
X127215748Y-88272546D01*
X127346214Y-88202810D01*
X127487778Y-88159867D01*
X127561335Y-88152622D01*
X127598112Y-88149000D01*
X127671888Y-88149000D01*
X127708665Y-88152622D01*
X127708665Y-88152622D01*
G37*
G36*
X97430880Y-84754776D02*
G01*
X97811593Y-84830504D01*
X98221249Y-85000189D01*
X98589929Y-85246534D01*
X98903466Y-85560071D01*
X99149811Y-85928751D01*
X99319496Y-86338407D01*
X99406000Y-86773296D01*
X99406000Y-87216704D01*
X99319496Y-87651593D01*
X99149811Y-88061249D01*
X98903466Y-88429929D01*
X98589929Y-88743466D01*
X98221249Y-88989811D01*
X97811593Y-89159496D01*
X97430880Y-89235224D01*
X97376705Y-89246000D01*
X96933295Y-89246000D01*
X96879120Y-89235224D01*
X96498407Y-89159496D01*
X96088751Y-88989811D01*
X95720071Y-88743466D01*
X95406534Y-88429929D01*
X95160189Y-88061249D01*
X94990504Y-87651593D01*
X94904000Y-87216704D01*
X94904000Y-86773296D01*
X94990504Y-86338407D01*
X95160189Y-85928751D01*
X95406534Y-85560071D01*
X95720071Y-85246534D01*
X96088751Y-85000189D01*
X96498407Y-84830504D01*
X96879120Y-84754776D01*
X96933295Y-84744000D01*
X97376705Y-84744000D01*
X97430880Y-84754776D01*
X97430880Y-84754776D01*
G37*
G36*
X178075880Y-84754776D02*
G01*
X178456593Y-84830504D01*
X178866249Y-85000189D01*
X179234929Y-85246534D01*
X179548466Y-85560071D01*
X179794811Y-85928751D01*
X179964496Y-86338407D01*
X180051000Y-86773296D01*
X180051000Y-87216704D01*
X179964496Y-87651593D01*
X179794811Y-88061249D01*
X179548466Y-88429929D01*
X179234929Y-88743466D01*
X178866249Y-88989811D01*
X178456593Y-89159496D01*
X178075880Y-89235224D01*
X178021705Y-89246000D01*
X177578295Y-89246000D01*
X177524120Y-89235224D01*
X177143407Y-89159496D01*
X176733751Y-88989811D01*
X176365071Y-88743466D01*
X176051534Y-88429929D01*
X175805189Y-88061249D01*
X175635504Y-87651593D01*
X175549000Y-87216704D01*
X175549000Y-86773296D01*
X175635504Y-86338407D01*
X175805189Y-85928751D01*
X176051534Y-85560071D01*
X176365071Y-85246534D01*
X176733751Y-85000189D01*
X177143407Y-84830504D01*
X177524120Y-84754776D01*
X177578295Y-84744000D01*
X178021705Y-84744000D01*
X178075880Y-84754776D01*
X178075880Y-84754776D01*
G37*
G36*
X154621000Y-87946000D02*
G01*
X152719000Y-87946000D01*
X152719000Y-86044000D01*
X154621000Y-86044000D01*
X154621000Y-87946000D01*
X154621000Y-87946000D01*
G37*
G36*
X143826000Y-87946000D02*
G01*
X141924000Y-87946000D01*
X141924000Y-86044000D01*
X143826000Y-86044000D01*
X143826000Y-87946000D01*
X143826000Y-87946000D01*
G37*
G36*
X150681425Y-86057760D02*
G01*
X150681428Y-86057761D01*
X150681429Y-86057761D01*
X150860693Y-86112140D01*
X150860696Y-86112142D01*
X150860697Y-86112142D01*
X151025903Y-86200446D01*
X151170712Y-86319288D01*
X151289554Y-86464097D01*
X151351002Y-86579059D01*
X151377860Y-86629307D01*
X151423345Y-86779252D01*
X151432240Y-86808575D01*
X151450601Y-86995000D01*
X151432240Y-87181425D01*
X151432239Y-87181428D01*
X151432239Y-87181429D01*
X151377860Y-87360693D01*
X151377858Y-87360696D01*
X151377858Y-87360697D01*
X151289554Y-87525903D01*
X151170712Y-87670712D01*
X151025903Y-87789554D01*
X150860697Y-87877858D01*
X150860693Y-87877860D01*
X150681429Y-87932239D01*
X150681428Y-87932239D01*
X150681425Y-87932240D01*
X150541718Y-87946000D01*
X150448282Y-87946000D01*
X150308575Y-87932240D01*
X150308572Y-87932239D01*
X150308571Y-87932239D01*
X150129307Y-87877860D01*
X150129303Y-87877858D01*
X149964097Y-87789554D01*
X149819288Y-87670712D01*
X149700446Y-87525903D01*
X149612142Y-87360697D01*
X149612142Y-87360696D01*
X149612140Y-87360693D01*
X149557761Y-87181429D01*
X149557761Y-87181428D01*
X149557760Y-87181425D01*
X149539399Y-86995000D01*
X149557760Y-86808575D01*
X149566655Y-86779252D01*
X149612140Y-86629307D01*
X149638998Y-86579059D01*
X149700446Y-86464097D01*
X149819288Y-86319288D01*
X149964097Y-86200446D01*
X150129303Y-86112142D01*
X150129304Y-86112142D01*
X150129307Y-86112140D01*
X150308571Y-86057761D01*
X150308572Y-86057761D01*
X150308575Y-86057760D01*
X150448282Y-86044000D01*
X150541718Y-86044000D01*
X150681425Y-86057760D01*
X150681425Y-86057760D01*
G37*
G36*
X104388228Y-85581703D02*
G01*
X104543100Y-85645853D01*
X104682481Y-85738985D01*
X104801015Y-85857519D01*
X104894147Y-85996900D01*
X104958297Y-86151772D01*
X104991000Y-86316184D01*
X104991000Y-86483816D01*
X104958297Y-86648228D01*
X104894147Y-86803100D01*
X104801015Y-86942481D01*
X104682481Y-87061015D01*
X104543100Y-87154147D01*
X104388228Y-87218297D01*
X104223816Y-87251000D01*
X104056184Y-87251000D01*
X103891772Y-87218297D01*
X103736900Y-87154147D01*
X103597519Y-87061015D01*
X103478985Y-86942481D01*
X103385853Y-86803100D01*
X103321703Y-86648228D01*
X103289000Y-86483816D01*
X103289000Y-86316184D01*
X103321703Y-86151772D01*
X103385853Y-85996900D01*
X103478985Y-85857519D01*
X103597519Y-85738985D01*
X103736900Y-85645853D01*
X103891772Y-85581703D01*
X104056184Y-85549000D01*
X104223816Y-85549000D01*
X104388228Y-85581703D01*
X104388228Y-85581703D01*
G37*
G36*
X110738228Y-85581703D02*
G01*
X110893100Y-85645853D01*
X111032481Y-85738985D01*
X111151015Y-85857519D01*
X111244147Y-85996900D01*
X111308297Y-86151772D01*
X111341000Y-86316184D01*
X111341000Y-86483816D01*
X111308297Y-86648228D01*
X111244147Y-86803100D01*
X111151015Y-86942481D01*
X111032481Y-87061015D01*
X110893100Y-87154147D01*
X110738228Y-87218297D01*
X110573816Y-87251000D01*
X110406184Y-87251000D01*
X110241772Y-87218297D01*
X110086900Y-87154147D01*
X109947519Y-87061015D01*
X109828985Y-86942481D01*
X109735853Y-86803100D01*
X109671703Y-86648228D01*
X109639000Y-86483816D01*
X109639000Y-86316184D01*
X109671703Y-86151772D01*
X109735853Y-85996900D01*
X109828985Y-85857519D01*
X109947519Y-85738985D01*
X110086900Y-85645853D01*
X110241772Y-85581703D01*
X110406184Y-85549000D01*
X110573816Y-85549000D01*
X110738228Y-85581703D01*
X110738228Y-85581703D01*
G37*
G36*
X117088228Y-85581703D02*
G01*
X117243100Y-85645853D01*
X117382481Y-85738985D01*
X117501015Y-85857519D01*
X117594147Y-85996900D01*
X117658297Y-86151772D01*
X117691000Y-86316184D01*
X117691000Y-86483816D01*
X117658297Y-86648228D01*
X117594147Y-86803100D01*
X117501015Y-86942481D01*
X117382481Y-87061015D01*
X117243100Y-87154147D01*
X117088228Y-87218297D01*
X116923816Y-87251000D01*
X116756184Y-87251000D01*
X116591772Y-87218297D01*
X116436900Y-87154147D01*
X116297519Y-87061015D01*
X116178985Y-86942481D01*
X116085853Y-86803100D01*
X116021703Y-86648228D01*
X115989000Y-86483816D01*
X115989000Y-86316184D01*
X116021703Y-86151772D01*
X116085853Y-85996900D01*
X116178985Y-85857519D01*
X116297519Y-85738985D01*
X116436900Y-85645853D01*
X116591772Y-85581703D01*
X116756184Y-85549000D01*
X116923816Y-85549000D01*
X117088228Y-85581703D01*
X117088228Y-85581703D01*
G37*
G36*
X123438228Y-85581703D02*
G01*
X123593100Y-85645853D01*
X123732481Y-85738985D01*
X123851015Y-85857519D01*
X123944147Y-85996900D01*
X124008297Y-86151772D01*
X124041000Y-86316184D01*
X124041000Y-86483816D01*
X124008297Y-86648228D01*
X123944147Y-86803100D01*
X123851015Y-86942481D01*
X123732481Y-87061015D01*
X123593100Y-87154147D01*
X123438228Y-87218297D01*
X123273816Y-87251000D01*
X123106184Y-87251000D01*
X122941772Y-87218297D01*
X122786900Y-87154147D01*
X122647519Y-87061015D01*
X122528985Y-86942481D01*
X122435853Y-86803100D01*
X122371703Y-86648228D01*
X122339000Y-86483816D01*
X122339000Y-86316184D01*
X122371703Y-86151772D01*
X122435853Y-85996900D01*
X122528985Y-85857519D01*
X122647519Y-85738985D01*
X122786900Y-85645853D01*
X122941772Y-85581703D01*
X123106184Y-85549000D01*
X123273816Y-85549000D01*
X123438228Y-85581703D01*
X123438228Y-85581703D01*
G37*
G36*
X138678228Y-85541703D02*
G01*
X138833100Y-85605853D01*
X138972481Y-85698985D01*
X139091015Y-85817519D01*
X139184147Y-85956900D01*
X139248297Y-86111772D01*
X139281000Y-86276184D01*
X139281000Y-86443816D01*
X139248297Y-86608228D01*
X139184147Y-86763100D01*
X139091015Y-86902481D01*
X138972481Y-87021015D01*
X138833100Y-87114147D01*
X138678228Y-87178297D01*
X138513816Y-87211000D01*
X138346184Y-87211000D01*
X138181772Y-87178297D01*
X138026900Y-87114147D01*
X137887519Y-87021015D01*
X137768985Y-86902481D01*
X137675853Y-86763100D01*
X137611703Y-86608228D01*
X137579000Y-86443816D01*
X137579000Y-86276184D01*
X137611703Y-86111772D01*
X137675853Y-85956900D01*
X137768985Y-85817519D01*
X137887519Y-85698985D01*
X138026900Y-85605853D01*
X138181772Y-85541703D01*
X138346184Y-85509000D01*
X138513816Y-85509000D01*
X138678228Y-85541703D01*
X138678228Y-85541703D01*
G37*
G36*
X127708665Y-85612622D02*
G01*
X127782222Y-85619867D01*
X127923786Y-85662810D01*
X128054252Y-85732546D01*
X128084040Y-85756992D01*
X128168607Y-85826393D01*
X128238008Y-85910960D01*
X128262454Y-85940748D01*
X128332190Y-86071214D01*
X128375133Y-86212778D01*
X128389633Y-86360000D01*
X128375133Y-86507222D01*
X128332190Y-86648786D01*
X128262454Y-86779252D01*
X128242885Y-86803097D01*
X128168607Y-86893607D01*
X128108004Y-86943341D01*
X128054252Y-86987454D01*
X127923786Y-87057190D01*
X127782222Y-87100133D01*
X127708665Y-87107378D01*
X127671888Y-87111000D01*
X127598112Y-87111000D01*
X127561335Y-87107378D01*
X127487778Y-87100133D01*
X127346214Y-87057190D01*
X127215748Y-86987454D01*
X127161996Y-86943341D01*
X127101393Y-86893607D01*
X127027115Y-86803097D01*
X127007546Y-86779252D01*
X126937810Y-86648786D01*
X126894867Y-86507222D01*
X126880367Y-86360000D01*
X126894867Y-86212778D01*
X126937810Y-86071214D01*
X127007546Y-85940748D01*
X127031992Y-85910960D01*
X127101393Y-85826393D01*
X127185960Y-85756992D01*
X127215748Y-85732546D01*
X127346214Y-85662810D01*
X127487778Y-85619867D01*
X127561335Y-85612622D01*
X127598112Y-85609000D01*
X127671888Y-85609000D01*
X127708665Y-85612622D01*
X127708665Y-85612622D01*
G37*
G36*
X132934059Y-85637860D02*
G01*
X132994294Y-85662810D01*
X133070732Y-85694472D01*
X133193735Y-85776660D01*
X133298340Y-85881265D01*
X133380528Y-86004268D01*
X133437140Y-86140941D01*
X133466000Y-86286033D01*
X133466000Y-86433967D01*
X133437140Y-86579059D01*
X133380528Y-86715732D01*
X133298340Y-86838735D01*
X133193735Y-86943340D01*
X133070732Y-87025528D01*
X133070731Y-87025529D01*
X133070730Y-87025529D01*
X132934059Y-87082140D01*
X132788968Y-87111000D01*
X132641032Y-87111000D01*
X132495941Y-87082140D01*
X132359270Y-87025529D01*
X132359269Y-87025529D01*
X132359268Y-87025528D01*
X132236265Y-86943340D01*
X132131660Y-86838735D01*
X132049472Y-86715732D01*
X131992860Y-86579059D01*
X131964000Y-86433967D01*
X131964000Y-86286033D01*
X131992860Y-86140941D01*
X132049472Y-86004268D01*
X132131660Y-85881265D01*
X132236265Y-85776660D01*
X132359268Y-85694472D01*
X132435707Y-85662810D01*
X132495941Y-85637860D01*
X132641032Y-85609000D01*
X132788968Y-85609000D01*
X132934059Y-85637860D01*
X132934059Y-85637860D01*
G37*
M02*
