G04 #@! TF.GenerationSoftware,KiCad,Pcbnew,(5.1.4)-1*
G04 #@! TF.CreationDate,2020-01-26T18:27:04+00:00*
G04 #@! TF.ProjectId,GFuzz,4746757a-7a2e-46b6-9963-61645f706362,rev?*
G04 #@! TF.SameCoordinates,Original*
G04 #@! TF.FileFunction,Copper,L2,Bot*
G04 #@! TF.FilePolarity,Positive*
%FSLAX46Y46*%
G04 Gerber Fmt 4.6, Leading zero omitted, Abs format (unit mm)*
G04 Created by KiCad (PCBNEW (5.1.4)-1) date 2020-01-26 18:27:04*
%MOMM*%
%LPD*%
G04 APERTURE LIST*
%ADD10O,1.200000X1.200000*%
%ADD11O,1.200000X1.600000*%
%ADD12O,1.700000X1.700000*%
%ADD13R,1.700000X1.700000*%
%ADD14R,1.000000X1.000000*%
%ADD15O,2.000000X1.700000*%
%ADD16C,0.100000*%
%ADD17C,1.700000*%
%ADD18C,1.600000*%
%ADD19R,1.600000X1.600000*%
%ADD20C,4.400000*%
%ADD21C,1.440000*%
%ADD22O,1.800000X1.800000*%
%ADD23R,1.800000X1.800000*%
%ADD24O,1.400000X1.400000*%
%ADD25C,1.400000*%
%ADD26C,3.500000*%
%ADD27C,3.000000*%
%ADD28R,3.500000X3.500000*%
%ADD29R,1.300000X1.300000*%
%ADD30C,1.300000*%
%ADD31C,1.800000*%
%ADD32O,2.400000X1.600000*%
%ADD33R,2.400000X1.600000*%
%ADD34C,0.800000*%
%ADD35C,1.000000*%
%ADD36C,0.304800*%
G04 APERTURE END LIST*
D10*
X143256000Y-113665000D03*
X144526000Y-114935000D03*
D11*
X143256000Y-116205000D03*
D12*
X122555000Y-121285000D03*
X120015000Y-121285000D03*
X117475000Y-121285000D03*
X114935000Y-121285000D03*
X112395000Y-121285000D03*
X109855000Y-121285000D03*
X107315000Y-121285000D03*
X104775000Y-121285000D03*
D13*
X102235000Y-121285000D03*
D14*
X146685000Y-106680000D03*
X146685000Y-109220000D03*
D15*
X97155000Y-93345000D03*
D16*
G36*
X97929504Y-94996204D02*
G01*
X97953773Y-94999804D01*
X97977571Y-95005765D01*
X98000671Y-95014030D01*
X98022849Y-95024520D01*
X98043893Y-95037133D01*
X98063598Y-95051747D01*
X98081777Y-95068223D01*
X98098253Y-95086402D01*
X98112867Y-95106107D01*
X98125480Y-95127151D01*
X98135970Y-95149329D01*
X98144235Y-95172429D01*
X98150196Y-95196227D01*
X98153796Y-95220496D01*
X98155000Y-95245000D01*
X98155000Y-96445000D01*
X98153796Y-96469504D01*
X98150196Y-96493773D01*
X98144235Y-96517571D01*
X98135970Y-96540671D01*
X98125480Y-96562849D01*
X98112867Y-96583893D01*
X98098253Y-96603598D01*
X98081777Y-96621777D01*
X98063598Y-96638253D01*
X98043893Y-96652867D01*
X98022849Y-96665480D01*
X98000671Y-96675970D01*
X97977571Y-96684235D01*
X97953773Y-96690196D01*
X97929504Y-96693796D01*
X97905000Y-96695000D01*
X96405000Y-96695000D01*
X96380496Y-96693796D01*
X96356227Y-96690196D01*
X96332429Y-96684235D01*
X96309329Y-96675970D01*
X96287151Y-96665480D01*
X96266107Y-96652867D01*
X96246402Y-96638253D01*
X96228223Y-96621777D01*
X96211747Y-96603598D01*
X96197133Y-96583893D01*
X96184520Y-96562849D01*
X96174030Y-96540671D01*
X96165765Y-96517571D01*
X96159804Y-96493773D01*
X96156204Y-96469504D01*
X96155000Y-96445000D01*
X96155000Y-95245000D01*
X96156204Y-95220496D01*
X96159804Y-95196227D01*
X96165765Y-95172429D01*
X96174030Y-95149329D01*
X96184520Y-95127151D01*
X96197133Y-95106107D01*
X96211747Y-95086402D01*
X96228223Y-95068223D01*
X96246402Y-95051747D01*
X96266107Y-95037133D01*
X96287151Y-95024520D01*
X96309329Y-95014030D01*
X96332429Y-95005765D01*
X96356227Y-94999804D01*
X96380496Y-94996204D01*
X96405000Y-94995000D01*
X97905000Y-94995000D01*
X97929504Y-94996204D01*
X97929504Y-94996204D01*
G37*
D17*
X97155000Y-95845000D03*
D18*
X104140000Y-86400000D03*
D19*
X104140000Y-88900000D03*
D20*
X177800000Y-86995000D03*
X97155000Y-86995000D03*
X177800000Y-120650000D03*
X97155000Y-120650000D03*
D18*
X110490000Y-86400000D03*
D19*
X110490000Y-88900000D03*
D21*
X137795000Y-107950000D03*
X140335000Y-107950000D03*
X142875000Y-107950000D03*
X127000000Y-107950000D03*
X129540000Y-107950000D03*
X132080000Y-107950000D03*
D22*
X150495000Y-86995000D03*
D23*
X142875000Y-86995000D03*
D22*
X153670000Y-94615000D03*
D23*
X153670000Y-86995000D03*
D22*
X142875000Y-90805000D03*
D23*
X150495000Y-90805000D03*
D24*
X137795000Y-100330000D03*
D25*
X137795000Y-95250000D03*
D24*
X143510000Y-93980000D03*
D25*
X148590000Y-93980000D03*
D24*
X137795000Y-112395000D03*
D25*
X137795000Y-117475000D03*
D24*
X107315000Y-97790000D03*
D25*
X107315000Y-92710000D03*
D24*
X135255000Y-112395000D03*
D25*
X135255000Y-117475000D03*
D24*
X124460000Y-112395000D03*
D25*
X124460000Y-117475000D03*
D24*
X109855000Y-111760000D03*
D25*
X114935000Y-111760000D03*
D24*
X107315000Y-116840000D03*
D25*
X107315000Y-111760000D03*
D24*
X132715000Y-103505000D03*
D25*
X137795000Y-103505000D03*
D24*
X125095000Y-103505000D03*
D25*
X130175000Y-103505000D03*
D24*
X127635000Y-86360000D03*
D25*
X132715000Y-86360000D03*
D24*
X127635000Y-88900000D03*
D25*
X132715000Y-88900000D03*
D24*
X117475000Y-92710000D03*
D25*
X122555000Y-92710000D03*
D24*
X117475000Y-95250000D03*
D25*
X122555000Y-95250000D03*
D24*
X122555000Y-100330000D03*
D25*
X117475000Y-100330000D03*
D24*
X117475000Y-102870000D03*
D25*
X122555000Y-102870000D03*
D24*
X114935000Y-95250000D03*
D25*
X109855000Y-95250000D03*
D24*
X114935000Y-92710000D03*
D25*
X109855000Y-92710000D03*
D16*
G36*
X102735765Y-107094213D02*
G01*
X102820704Y-107106813D01*
X102903999Y-107127677D01*
X102984848Y-107156605D01*
X103062472Y-107193319D01*
X103136124Y-107237464D01*
X103205094Y-107288616D01*
X103268718Y-107346282D01*
X103326384Y-107409906D01*
X103377536Y-107478876D01*
X103421681Y-107552528D01*
X103458395Y-107630152D01*
X103487323Y-107711001D01*
X103508187Y-107794296D01*
X103520787Y-107879235D01*
X103525000Y-107965000D01*
X103525000Y-109715000D01*
X103520787Y-109800765D01*
X103508187Y-109885704D01*
X103487323Y-109968999D01*
X103458395Y-110049848D01*
X103421681Y-110127472D01*
X103377536Y-110201124D01*
X103326384Y-110270094D01*
X103268718Y-110333718D01*
X103205094Y-110391384D01*
X103136124Y-110442536D01*
X103062472Y-110486681D01*
X102984848Y-110523395D01*
X102903999Y-110552323D01*
X102820704Y-110573187D01*
X102735765Y-110585787D01*
X102650000Y-110590000D01*
X100900000Y-110590000D01*
X100814235Y-110585787D01*
X100729296Y-110573187D01*
X100646001Y-110552323D01*
X100565152Y-110523395D01*
X100487528Y-110486681D01*
X100413876Y-110442536D01*
X100344906Y-110391384D01*
X100281282Y-110333718D01*
X100223616Y-110270094D01*
X100172464Y-110201124D01*
X100128319Y-110127472D01*
X100091605Y-110049848D01*
X100062677Y-109968999D01*
X100041813Y-109885704D01*
X100029213Y-109800765D01*
X100025000Y-109715000D01*
X100025000Y-107965000D01*
X100029213Y-107879235D01*
X100041813Y-107794296D01*
X100062677Y-107711001D01*
X100091605Y-107630152D01*
X100128319Y-107552528D01*
X100172464Y-107478876D01*
X100223616Y-107409906D01*
X100281282Y-107346282D01*
X100344906Y-107288616D01*
X100413876Y-107237464D01*
X100487528Y-107193319D01*
X100565152Y-107156605D01*
X100646001Y-107127677D01*
X100729296Y-107106813D01*
X100814235Y-107094213D01*
X100900000Y-107090000D01*
X102650000Y-107090000D01*
X102735765Y-107094213D01*
X102735765Y-107094213D01*
G37*
D26*
X101775000Y-108840000D03*
D16*
G36*
X99598513Y-102393611D02*
G01*
X99671318Y-102404411D01*
X99742714Y-102422295D01*
X99812013Y-102447090D01*
X99878548Y-102478559D01*
X99941678Y-102516398D01*
X100000795Y-102560242D01*
X100055330Y-102609670D01*
X100104758Y-102664205D01*
X100148602Y-102723322D01*
X100186441Y-102786452D01*
X100217910Y-102852987D01*
X100242705Y-102922286D01*
X100260589Y-102993682D01*
X100271389Y-103066487D01*
X100275000Y-103140000D01*
X100275000Y-105140000D01*
X100271389Y-105213513D01*
X100260589Y-105286318D01*
X100242705Y-105357714D01*
X100217910Y-105427013D01*
X100186441Y-105493548D01*
X100148602Y-105556678D01*
X100104758Y-105615795D01*
X100055330Y-105670330D01*
X100000795Y-105719758D01*
X99941678Y-105763602D01*
X99878548Y-105801441D01*
X99812013Y-105832910D01*
X99742714Y-105857705D01*
X99671318Y-105875589D01*
X99598513Y-105886389D01*
X99525000Y-105890000D01*
X98025000Y-105890000D01*
X97951487Y-105886389D01*
X97878682Y-105875589D01*
X97807286Y-105857705D01*
X97737987Y-105832910D01*
X97671452Y-105801441D01*
X97608322Y-105763602D01*
X97549205Y-105719758D01*
X97494670Y-105670330D01*
X97445242Y-105615795D01*
X97401398Y-105556678D01*
X97363559Y-105493548D01*
X97332090Y-105427013D01*
X97307295Y-105357714D01*
X97289411Y-105286318D01*
X97278611Y-105213513D01*
X97275000Y-105140000D01*
X97275000Y-103140000D01*
X97278611Y-103066487D01*
X97289411Y-102993682D01*
X97307295Y-102922286D01*
X97332090Y-102852987D01*
X97363559Y-102786452D01*
X97401398Y-102723322D01*
X97445242Y-102664205D01*
X97494670Y-102609670D01*
X97549205Y-102560242D01*
X97608322Y-102516398D01*
X97671452Y-102478559D01*
X97737987Y-102447090D01*
X97807286Y-102422295D01*
X97878682Y-102404411D01*
X97951487Y-102393611D01*
X98025000Y-102390000D01*
X99525000Y-102390000D01*
X99598513Y-102393611D01*
X99598513Y-102393611D01*
G37*
D27*
X98775000Y-104140000D03*
D28*
X104775000Y-104140000D03*
D29*
X113665000Y-98425000D03*
D30*
X111125000Y-98425000D03*
X112385000Y-99695000D03*
D29*
X120015000Y-115580000D03*
D30*
X120015000Y-113040000D03*
X118745000Y-114300000D03*
D31*
X102870000Y-93980000D03*
D23*
X102870000Y-96520000D03*
D12*
X153670000Y-97790000D03*
X153670000Y-100330000D03*
X153670000Y-102870000D03*
X153670000Y-105410000D03*
X153670000Y-107950000D03*
D13*
X153670000Y-110490000D03*
D32*
X133985000Y-92710000D03*
X126365000Y-100330000D03*
X133985000Y-95250000D03*
X126365000Y-97790000D03*
X133985000Y-97790000D03*
X126365000Y-95250000D03*
X133985000Y-100330000D03*
D33*
X126365000Y-92710000D03*
D12*
X153670000Y-121285000D03*
X151130000Y-121285000D03*
D13*
X148590000Y-121285000D03*
D12*
X142875000Y-121285000D03*
X140335000Y-121285000D03*
D13*
X137795000Y-121285000D03*
D10*
X130048000Y-113665000D03*
X131318000Y-114935000D03*
D11*
X130048000Y-116205000D03*
D12*
X130175000Y-121285000D03*
D13*
X127635000Y-121285000D03*
D12*
X111125000Y-117475000D03*
D13*
X113665000Y-117475000D03*
D18*
X149860000Y-104855000D03*
X149860000Y-109855000D03*
X123190000Y-86400000D03*
D19*
X123190000Y-88900000D03*
D18*
X148590000Y-100290000D03*
D19*
X148590000Y-97790000D03*
D18*
X142240000Y-100290000D03*
D19*
X142240000Y-97790000D03*
D18*
X149860000Y-113665000D03*
D19*
X149860000Y-116165000D03*
D18*
X138430000Y-86360000D03*
D19*
X138430000Y-88860000D03*
D18*
X116840000Y-86400000D03*
D19*
X116840000Y-88900000D03*
D18*
X118785000Y-107315000D03*
D19*
X121285000Y-107315000D03*
D18*
X111125000Y-107315000D03*
D19*
X113625000Y-107315000D03*
D18*
X117555000Y-97790000D03*
X122555000Y-97790000D03*
X109935000Y-114300000D03*
X114935000Y-114300000D03*
D34*
X113665000Y-103505000D03*
X120015000Y-89535000D03*
X120015000Y-96520000D03*
X156210000Y-110490000D03*
X124460000Y-93980000D03*
X143510000Y-118110000D03*
X153670000Y-118110000D03*
X139700000Y-103505000D03*
X147955000Y-105410000D03*
X118745000Y-90109999D03*
X118745000Y-99060000D03*
D35*
X111125000Y-115490000D02*
X109935000Y-114300000D01*
X111125000Y-117475000D02*
X111125000Y-115490000D01*
X109855000Y-114220000D02*
X109935000Y-114300000D01*
X109855000Y-111760000D02*
X109855000Y-114220000D01*
X110490000Y-86400000D02*
X116840000Y-86400000D01*
X104140000Y-86400000D02*
X110490000Y-86400000D01*
X116840000Y-86400000D02*
X123190000Y-86400000D01*
D36*
X114235001Y-111060001D02*
X114935000Y-111760000D01*
X113882599Y-110707599D02*
X114235001Y-111060001D01*
X108367401Y-110707599D02*
X113882599Y-110707599D01*
X107315000Y-111760000D02*
X108367401Y-110707599D01*
X114935000Y-111760000D02*
X114935000Y-114300000D01*
X114935000Y-114300000D02*
X118745000Y-114300000D01*
D35*
X122555000Y-97790000D02*
X126365000Y-97790000D01*
X122555000Y-97790000D02*
X122555000Y-100330000D01*
X122555000Y-100330000D02*
X122555000Y-102870000D01*
D36*
X123470051Y-117475000D02*
X124460000Y-117475000D01*
X120955200Y-117475000D02*
X123470051Y-117475000D01*
X120015000Y-116534800D02*
X120955200Y-117475000D01*
X120015000Y-115580000D02*
X120015000Y-116534800D01*
X113625000Y-107315000D02*
X113625000Y-103545000D01*
X113625000Y-103545000D02*
X113665000Y-103505000D01*
X135255000Y-107950000D02*
X135255000Y-112395000D01*
X133350000Y-106045000D02*
X135255000Y-107950000D01*
X123659800Y-106045000D02*
X133350000Y-106045000D01*
X121285000Y-107315000D02*
X122389800Y-107315000D01*
X122389800Y-107315000D02*
X123659800Y-106045000D01*
X128905000Y-114935000D02*
X121285000Y-107315000D01*
X131318000Y-114935000D02*
X128905000Y-114935000D01*
X116840000Y-88900000D02*
X119380000Y-88900000D01*
X119380000Y-88900000D02*
X120015000Y-89535000D01*
X118745000Y-95250000D02*
X117475000Y-95250000D01*
X120015000Y-96520000D02*
X118745000Y-95250000D01*
X132715000Y-86360000D02*
X138430000Y-86360000D01*
X142875000Y-88199800D02*
X142875000Y-86995000D01*
X142214800Y-88860000D02*
X142875000Y-88199800D01*
X138430000Y-88860000D02*
X142214800Y-88860000D01*
X142875000Y-90805000D02*
X142875000Y-86995000D01*
X143510000Y-91440000D02*
X142875000Y-90805000D01*
X143510000Y-93980000D02*
X143510000Y-91440000D01*
X140335000Y-121285000D02*
X141605000Y-120015000D01*
X141605000Y-120015000D02*
X144780000Y-120015000D01*
X144780000Y-120015000D02*
X147955000Y-116840000D01*
X147955000Y-115570000D02*
X149860000Y-113665000D01*
X147955000Y-116840000D02*
X147955000Y-115570000D01*
X133350000Y-100330000D02*
X133985000Y-100330000D01*
X130175000Y-103505000D02*
X133350000Y-100330000D01*
X133985000Y-101434800D02*
X135255000Y-102704800D01*
X133985000Y-100330000D02*
X133985000Y-101434800D01*
X135255000Y-102704800D02*
X135255000Y-104140000D01*
X135255000Y-104140000D02*
X136525000Y-105410000D01*
X136525000Y-105410000D02*
X141605000Y-105410000D01*
X142240000Y-104775000D02*
X142240000Y-100290000D01*
X141605000Y-105410000D02*
X142240000Y-104775000D01*
X142240000Y-100290000D02*
X148590000Y-100290000D01*
X142240000Y-96685200D02*
X142240000Y-97790000D01*
X135154799Y-89599999D02*
X142240000Y-96685200D01*
X133414999Y-89599999D02*
X135154799Y-89599999D01*
X132715000Y-88900000D02*
X133414999Y-89599999D01*
X143344800Y-97790000D02*
X146050000Y-95084800D01*
X142240000Y-97790000D02*
X143344800Y-97790000D01*
X146050000Y-95084800D02*
X146050000Y-93980000D01*
X146050000Y-93980000D02*
X147320000Y-92710000D01*
X147320000Y-92710000D02*
X151130000Y-92710000D01*
X151130000Y-92710000D02*
X151765000Y-93345000D01*
X151765000Y-93345000D02*
X151765000Y-95250000D01*
X151765000Y-95250000D02*
X152400000Y-95885000D01*
X152400000Y-95885000D02*
X153035000Y-96520000D01*
X153035000Y-96520000D02*
X154940000Y-96520000D01*
X154940000Y-96520000D02*
X156210000Y-97790000D01*
X156210000Y-97790000D02*
X156210000Y-110490000D01*
X148590000Y-97790000D02*
X148590000Y-93980000D01*
X132715000Y-104775000D02*
X132715000Y-103505000D01*
X132080000Y-105410000D02*
X132715000Y-104775000D01*
X129540000Y-105410000D02*
X132080000Y-105410000D01*
X128270000Y-104140000D02*
X129540000Y-105410000D01*
X124460000Y-93980000D02*
X128270000Y-93980000D01*
X128270000Y-93980000D02*
X128270000Y-104140000D01*
X153670000Y-101045000D02*
X153670000Y-100330000D01*
X149860000Y-104855000D02*
X153670000Y-101045000D01*
X150659999Y-110654999D02*
X149860000Y-109855000D01*
X151012401Y-111007401D02*
X150659999Y-110654999D01*
X151012401Y-117707799D02*
X151012401Y-111007401D01*
X148590000Y-120130200D02*
X151012401Y-117707799D01*
X148590000Y-121285000D02*
X148590000Y-120130200D01*
X150495000Y-86995000D02*
X153670000Y-86995000D01*
X113665000Y-120015000D02*
X113665000Y-117475000D01*
X112395000Y-121285000D02*
X113665000Y-120015000D01*
X143256000Y-110871000D02*
X140335000Y-107950000D01*
X143256000Y-113665000D02*
X143256000Y-110871000D01*
X140335000Y-107950000D02*
X137795000Y-107950000D01*
X143256000Y-113665000D02*
X143256000Y-110744000D01*
X146685000Y-107484800D02*
X146685000Y-106680000D01*
X143425800Y-110744000D02*
X146685000Y-107484800D01*
X143256000Y-110744000D02*
X143425800Y-110744000D01*
X136525000Y-116205000D02*
X143256000Y-116205000D01*
X135255000Y-117475000D02*
X136525000Y-116205000D01*
X143256000Y-116205000D02*
X143256000Y-117856000D01*
X143256000Y-117856000D02*
X143510000Y-118110000D01*
X154519999Y-106259999D02*
X153670000Y-105410000D01*
X154940000Y-106680000D02*
X154519999Y-106259999D01*
X154940000Y-116840000D02*
X154940000Y-106680000D01*
X153670000Y-118110000D02*
X154940000Y-116840000D01*
X120015000Y-95250000D02*
X122555000Y-95250000D01*
X117475000Y-92710000D02*
X120015000Y-95250000D01*
X122555000Y-95250000D02*
X126365000Y-95250000D01*
X127635000Y-86360000D02*
X127635000Y-88900000D01*
X122555000Y-92710000D02*
X126365000Y-92710000D01*
X137095001Y-99630001D02*
X137795000Y-100330000D01*
X135255000Y-97790000D02*
X137095001Y-99630001D01*
X133985000Y-97790000D02*
X135255000Y-97790000D01*
X137795000Y-101319949D02*
X137795000Y-103505000D01*
X137795000Y-100330000D02*
X137795000Y-101319949D01*
X137795000Y-111405051D02*
X136525000Y-110135051D01*
X137795000Y-112395000D02*
X137795000Y-111405051D01*
X142155001Y-107230001D02*
X142875000Y-107950000D01*
X141802599Y-106877599D02*
X142155001Y-107230001D01*
X137280247Y-106877599D02*
X141802599Y-106877599D01*
X136525000Y-107632846D02*
X137280247Y-106877599D01*
X136525000Y-110135051D02*
X136525000Y-107632846D01*
X152820001Y-98639999D02*
X153670000Y-97790000D01*
X152467599Y-98992401D02*
X152820001Y-98639999D01*
X152467599Y-99956723D02*
X152467599Y-98992401D01*
X148721723Y-103702599D02*
X152467599Y-99956723D01*
X147122401Y-103702599D02*
X148721723Y-103702599D01*
X142875000Y-107950000D02*
X147122401Y-103702599D01*
X137795000Y-95250000D02*
X133985000Y-95250000D01*
X139700000Y-98144949D02*
X139700000Y-103505000D01*
X137795000Y-95250000D02*
X137795000Y-96239949D01*
X137795000Y-96239949D02*
X139700000Y-98144949D01*
X147955000Y-105410000D02*
X149225000Y-106680000D01*
X149225000Y-106680000D02*
X151130000Y-106680000D01*
X151130000Y-105410000D02*
X153670000Y-102870000D01*
X151130000Y-106680000D02*
X151130000Y-105410000D01*
X137795000Y-120130200D02*
X138545200Y-119380000D01*
X137795000Y-121285000D02*
X137795000Y-120130200D01*
X138545200Y-119380000D02*
X144145000Y-119380000D01*
X144145000Y-119380000D02*
X147320000Y-116205000D01*
X152467919Y-107950000D02*
X153670000Y-107950000D01*
X149589322Y-107950000D02*
X152467919Y-107950000D01*
X147320000Y-110219322D02*
X149589322Y-107950000D01*
X147320000Y-116205000D02*
X147320000Y-110219322D01*
X143677472Y-114935000D02*
X144526000Y-114935000D01*
X143116446Y-114935000D02*
X143677472Y-114935000D01*
X141846446Y-113665000D02*
X143116446Y-114935000D01*
X130048000Y-113665000D02*
X141846446Y-113665000D01*
X129540000Y-107950000D02*
X127000000Y-107950000D01*
X145880200Y-109220000D02*
X146685000Y-109220000D01*
X144526000Y-110574200D02*
X145880200Y-109220000D01*
X144526000Y-114935000D02*
X144526000Y-110574200D01*
X129540000Y-107950000D02*
X130810000Y-106680000D01*
X130647999Y-113065001D02*
X130048000Y-113665000D01*
X133152401Y-110560599D02*
X130647999Y-113065001D01*
X133152401Y-107435247D02*
X133152401Y-110560599D01*
X132397154Y-106680000D02*
X133152401Y-107435247D01*
X130810000Y-106680000D02*
X132397154Y-106680000D01*
D35*
X114935000Y-99695000D02*
X113665000Y-98425000D01*
X114935000Y-102870000D02*
X114935000Y-99695000D01*
X114235001Y-93409999D02*
X114935000Y-92710000D01*
X113534999Y-94110001D02*
X114235001Y-93409999D01*
X113534999Y-96644999D02*
X113534999Y-94110001D01*
X113665000Y-96775000D02*
X113534999Y-96644999D01*
X113665000Y-98425000D02*
X113665000Y-96775000D01*
X131785000Y-92710000D02*
X133985000Y-92710000D01*
X130284999Y-91209999D02*
X131785000Y-92710000D01*
X116435001Y-91209999D02*
X130284999Y-91209999D01*
X114935000Y-92710000D02*
X116435001Y-91209999D01*
X144740000Y-121285000D02*
X149860000Y-116165000D01*
X142875000Y-121285000D02*
X144740000Y-121285000D01*
X114935000Y-103859949D02*
X116205000Y-105129949D01*
X114935000Y-102870000D02*
X114935000Y-103859949D01*
X116205000Y-109230000D02*
X120015000Y-113040000D01*
X116205000Y-105129949D02*
X116205000Y-109230000D01*
X128448000Y-116205000D02*
X130048000Y-116205000D01*
X125262002Y-116205000D02*
X128448000Y-116205000D01*
X122097002Y-113040000D02*
X125262002Y-116205000D01*
X120015000Y-113040000D02*
X122097002Y-113040000D01*
X142025001Y-122134999D02*
X142875000Y-121285000D01*
X141324999Y-122835001D02*
X142025001Y-122134999D01*
X136384999Y-122835001D02*
X141324999Y-122835001D01*
X130048000Y-116498002D02*
X136384999Y-122835001D01*
X130048000Y-116205000D02*
X130048000Y-116498002D01*
X107315000Y-90805000D02*
X106910001Y-90400001D01*
X107315000Y-92710000D02*
X107315000Y-90805000D01*
X106910001Y-89870001D02*
X106910001Y-90400001D01*
X105940000Y-88900000D02*
X106910001Y-89870001D01*
X104140000Y-88900000D02*
X105940000Y-88900000D01*
X112314999Y-97074999D02*
X113665000Y-98425000D01*
X109607997Y-97074999D02*
X112314999Y-97074999D01*
X108454999Y-95922001D02*
X109607997Y-97074999D01*
X108454999Y-94839948D02*
X108454999Y-95922001D01*
X107315000Y-93699949D02*
X108454999Y-94839948D01*
X107315000Y-92710000D02*
X107315000Y-93699949D01*
D36*
X109855000Y-95250000D02*
X109855000Y-92710000D01*
X124395001Y-104204999D02*
X125095000Y-103505000D01*
X121349999Y-104204999D02*
X124395001Y-104204999D01*
X117475000Y-100330000D02*
X121349999Y-104204999D01*
X110490000Y-92075000D02*
X109855000Y-92710000D01*
X110490000Y-88900000D02*
X110490000Y-92075000D01*
X112804799Y-90109999D02*
X118745000Y-90109999D01*
X110490000Y-88900000D02*
X111594800Y-88900000D01*
X111594800Y-88900000D02*
X112804799Y-90109999D01*
X118745000Y-99060000D02*
X117475000Y-100330000D01*
X107315000Y-95885000D02*
X107315000Y-97790000D01*
X102870000Y-93980000D02*
X105410000Y-93980000D01*
X105410000Y-93980000D02*
X107315000Y-95885000D01*
X107315000Y-118745000D02*
X107315000Y-116840000D01*
X109855000Y-121285000D02*
X107315000Y-118745000D01*
X121705001Y-120435001D02*
X122555000Y-121285000D01*
X121352599Y-120082599D02*
X121705001Y-120435001D01*
X116137401Y-120082599D02*
X121352599Y-120082599D01*
X114935000Y-121285000D02*
X116137401Y-120082599D01*
D35*
X101775000Y-106990000D02*
X101775000Y-108840000D01*
X101269999Y-106484999D02*
X101775000Y-106990000D01*
X101269999Y-97266479D02*
X101269999Y-106484999D01*
X98298510Y-94294990D02*
X101269999Y-97266479D01*
X98104990Y-94294990D02*
X98298510Y-94294990D01*
X97155000Y-93345000D02*
X98104990Y-94294990D01*
X98775000Y-105990000D02*
X97155000Y-107610000D01*
X98775000Y-104140000D02*
X98775000Y-105990000D01*
X97155000Y-107610000D02*
X97155000Y-112395000D01*
X102235000Y-117475000D02*
X102235000Y-121285000D01*
X97155000Y-112395000D02*
X102235000Y-117475000D01*
X110475001Y-99074999D02*
X111125000Y-98425000D01*
X110475001Y-103200001D02*
X110475001Y-99074999D01*
X104775000Y-108900002D02*
X110475001Y-103200001D01*
X104775000Y-121285000D02*
X104775000Y-108900002D01*
M02*
